<svg xmlns="http://www.w3.org/2000/svg" viewBox="0 0 66.14 65.55"><defs><style>.cls-1{fill:#c1c1c1;}.cls-2{fill:#eaeaea;}.cls-3{fill:#f66232;}.cls-4{fill:#373951;}.cls-5{fill:#80a8e8;}.cls-6{fill:#9cbaf7;}.cls-7{fill:#ffc9b6;}.cls-8{fill:#f7f7f7;}.cls-9{fill:#a8a8a8;}.cls-10{fill:#f7ca11;}.cls-11{fill:#f4be14;}.cls-12{fill:#efefef;}.cls-13{fill:#d6d6d6;}.cls-14{fill:#fce265;}.cls-15{fill:#b2b2b2;}</style></defs><title>Asset 13</title><g id="Layer_2" data-name="Layer 2"><g id="Layer_1-2" data-name="Layer 1"><polygon class="cls-1" points="3.6 36.64 1.79 33.27 45.95 7.77 47.59 11.23 3.6 36.64"/><path class="cls-1" d="M48,10.27c0,.92-.57,1.35-1.26.94a3,3,0,0,1-1.26-2.39c0-.93.57-1.35,1.26-1A3,3,0,0,1,48,10.27Z"/><path class="cls-2" d="M4,35.68c0,.93-.57,1.35-1.26,1a3,3,0,0,1-1.25-2.4c0-.92.56-1.35,1.25-.95A3,3,0,0,1,4,35.68Z"/><path class="cls-1" d="M3.71,35.58c0,.74-.45,1.08-1,.76a2.4,2.4,0,0,1-1-1.92c0-.74.45-1.08,1-.76A2.42,2.42,0,0,1,3.71,35.58Z"/><polygon class="cls-1" points="3.6 43.93 1.79 40.56 45.95 15.06 47.59 18.53 3.6 43.93"/><path class="cls-1" d="M48,17.56c0,.92-.57,1.35-1.26,1a3,3,0,0,1-1.26-2.4c0-.93.57-1.35,1.26-.95A3,3,0,0,1,48,17.56Z"/><path class="cls-2" d="M4,43c0,.93-.57,1.35-1.26,1a3,3,0,0,1-1.25-2.4c0-.92.56-1.35,1.25-1A3,3,0,0,1,4,43Z"/><path class="cls-1" d="M3.71,42.87c0,.74-.45,1.08-1,.76a2.4,2.4,0,0,1-1-1.92c0-.74.45-1.08,1-.76A2.42,2.42,0,0,1,3.71,42.87Z"/><path class="cls-1" d="M45.24.59,7.64,22.48a2.58,2.58,0,0,1-2.43.34c-.84-.48-1.35-1.9-1.35-3.72V2.51H0V19.1C0,22.39,1.2,25,3.28,26.16A5.29,5.29,0,0,0,6,26.88a7.28,7.28,0,0,0,3.6-1.06L47,4.17Z"/><path class="cls-1" d="M47.45,3.14c0,1-.59,1.4-1.31,1a3.13,3.13,0,0,1-1.31-2.51c0-1,.58-1.4,1.31-1A3.16,3.16,0,0,1,47.45,3.14Z"/><path class="cls-2" d="M3.86,2.51c0,.57-.87,1-1.93,1S0,3.08,0,2.51s.86-1,1.93-1S3.86,1.94,3.86,2.51Z"/><ellipse class="cls-1" cx="1.93" cy="2.51" rx="1.64" ry="0.88"/><path class="cls-3" d="M42.69,16.53a31,31,0,0,0-4.51-3.15,3.67,3.67,0,0,0-3.22.35,6,6,0,0,0-1.34.51c-.31.22-.24.79-.24.79l.55-.32a4.5,4.5,0,0,0,1,.81,5.33,5.33,0,0,1,.47.33.91.91,0,0,1,.17,1.26c-.12.17-.48.64-.64.83-.56.64-.43,1.15-.13,1.11a2.47,2.47,0,0,0,1-.55c.45-.36.66-.46,1.66-.1s1.13-.53,1.62-.1,2.14,2.27,2.14,2.27Z"/><path class="cls-4" d="M50.33,43.84s3.18,1.82,4,2.91.59,1.15.75,2.49-.42,2.65-1.86,2.58c-1.27,0-1.22-1.17-1.44-1.9,0,0-3.56-.37-5.38-1.64S47.33,43.5,50.33,43.84Z"/><path class="cls-5" d="M39,27.23c2.85-.64,6.39.43,9.39,1.83a.6.6,0,0,1,.22.06c3.61,1.73,12.06,1.67,12,1.8a13.31,13.31,0,0,1,.6,6.9c-.56,2.16-2.46,4.26-5,3.93a6.79,6.79,0,0,1-6,.55c0,.06.34.49.74,1.1a3.78,3.78,0,0,0-3.12,1.44,6.75,6.75,0,0,0-1,1.91c-1.14-.84-2.26-1.77-3-2.37-1.48-1.12-6.55-6.62-6.55-11.24A3.41,3.41,0,0,1,39,27.23Z"/><path class="cls-6" d="M38.41,47.3a15.76,15.76,0,0,1,2.26-6.15c2.26-3.39,4.09-8.35,6.52-9.91,2.93-1.87,9.5-.4,9.72-.52,0,1.6.56,5.42.31,7.18a12.51,12.51,0,0,1-1,3.85c-.71,1.38-2.64,2.61-5.49,2.69a10.92,10.92,0,0,1-3.46,3.65,32.77,32.77,0,0,1,3.38,2.62,61.72,61.72,0,0,0,7.45,6.08,5.54,5.54,0,0,0-1.56,1.31A3.83,3.83,0,0,0,55.7,60c-4.88-1.12-8.76-3.67-12.77-6.5a15.31,15.31,0,0,1-3.25-3.34A1.75,1.75,0,0,1,38.41,47.3Z"/><path class="cls-2" d="M50.26,18.56c-.71-3.39-1.18-8-1.18-8s3.58-3.91,7.11.54c1.09,1.37,1,3.22,1.32,4a4.54,4.54,0,0,1,.73,2.25C56.18,19.6,52.76,19.49,50.26,18.56Z"/><path class="cls-7" d="M43.18,12.36l2.87,2.35c1.55-.55,2.73-2.38,3.39-4.13-.57-.46-2.57-1.6-2.71-2.21.59-1.67-.31-3.07-1.86-4.57a5,5,0,0,0-6.31-.17,2.74,2.74,0,0,0-1.39,2.63c.19,1.78,1.21,6.05,2.72,6.82C40.94,13.61,42.17,12.74,43.18,12.36Z"/><path class="cls-4" d="M47.31,3.77A3.91,3.91,0,0,0,45,.54c-1.64-.75-4.56-.86-5.88.62A.51.51,0,0,0,39,1,1.07,1.07,0,0,0,37.47.94a2.7,2.7,0,0,0-.85,1.16,1.3,1.3,0,0,0-.87,0c-1,.39-.91,1.74-.58,2.53.7,1.63,3.28,3.42,5.18,3-.1,1,.37,1.47,1.13,2.09a4,4,0,0,0,4.25.36,4.91,4.91,0,0,0,2.8-4.28A2.52,2.52,0,0,0,47.31,3.77Z"/><path class="cls-7" d="M39.68,8.05a.84.84,0,0,1,1.39-.42c1,.7-.21,2.78-.21,2.78Z"/><path class="cls-8" d="M44.88,13.75c3.66-2.81,3.54-3.13,5.3-3.89,1.54-.67,6,3.47,7.41,7.79a99.9,99.9,0,0,1,3,14.27c-3.53,3.21-9,2.56-13.27.6a23.5,23.5,0,0,1-4-6.52,25.2,25.2,0,0,1-2-6C41,18.22,41.23,16.57,44.88,13.75Z"/><path class="cls-4" d="M55.56,54.94a24.7,24.7,0,0,1,3.74,0c1.08.18,1.24,2.14,2.19,3.07s3.71,1.4,4.44,3.3-.61,4.85-2.33,4.12c-2.82-1.19-8.53-5.94-8.53-5.94A4.09,4.09,0,0,1,55.56,54.94Z"/><path class="cls-9" d="M24.73,21.27c0,.11,0,.22,0,.34l1.51.87c0-1.73,0-3.59-.08-4.75a5.25,5.25,0,0,0-4-4.74c-.19-.05-.33.12-.33.4v.48a.88.88,0,0,0,.33.68,11.22,11.22,0,0,1,1.62,1.26,3.62,3.62,0,0,1,.93,2.44c0,.29-.15.44-.35.32l-2.16-1.25c-.21-.11-.37,0-.37.3v.24a1.3,1.3,0,0,0,.43.94l2.19,1.8A1,1,0,0,1,24.73,21.27Z"/><path class="cls-10" d="M25.32,21.82l-.44-.45a2.34,2.34,0,0,0-.19,1.12v9.77c0,3.94,0,5.68,0,5.68l.52.3Z"/><path class="cls-10" d="M25.6,22l.64.09V33.15c0,3.94,0,5.67,0,5.67l-.53-.31Z"/><polygon class="cls-10" points="24.81 21.65 24.27 21.8 24.7 35.49 25.01 35.67 24.81 21.65"/><polygon class="cls-10" points="26.08 22.39 26.62 23.26 26.19 36.35 25.89 36.17 26.08 22.39"/><path class="cls-9" d="M25.92,20.51a16.24,16.24,0,0,0-.38-4.37,5.86,5.86,0,0,0-3.12-2.75c-.3-.11-.38.67.15,1a5,5,0,0,1,2.07,2,7.42,7.42,0,0,1,.41,2.18c0,.42-.19.65-.5.5-.89-.46-1.93-1-2.13-1.12s-.38.43.08.75A15.55,15.55,0,0,1,25,21l.18.24c.34.43.75,1.11.74.6Z"/><polygon class="cls-9" points="21.09 13.96 21.03 13.59 21.93 13.05 22.19 13.48 21.86 14.14 21.09 13.96"/><polygon class="cls-9" points="21.92 17.32 20.94 17.93 21.23 18.4 22.27 18.5 22.35 17.82 21.92 17.32"/><path class="cls-11" d="M24.27,38.82l.95-.58s-.29-14.85-.35-14.85a1.84,1.84,0,0,0-.71-.07C24.09,23.33,24.27,38.82,24.27,38.82Z"/><path class="cls-12" d="M23.78,21.85v.34l1.52.87c0-1.73,0-3.59-.08-4.76a5.24,5.24,0,0,0-4-4.73c-.19-.05-.33.12-.33.39v.49a.84.84,0,0,0,.33.67,12,12,0,0,1,1.62,1.26,3.63,3.63,0,0,1,.93,2.45c0,.29-.15.44-.36.32L21.23,17.9c-.21-.11-.37,0-.37.29v.25a1.33,1.33,0,0,0,.42.94l2.2,1.8A.93.93,0,0,1,23.78,21.85Z"/><path class="cls-10" d="M24.37,22.4,23.93,22a2.31,2.31,0,0,0-.19,1.11v9.78c0,3.94,0,5.67,0,5.67l.52.31Z"/><path class="cls-10" d="M24.65,22.56l.65.5A3.46,3.46,0,0,1,26.18,25c.11,2.21-.51,5.92-.51,8.62a31.35,31.35,0,0,1-.4,5.82l-.52-.3Z"/><polygon class="cls-10" points="23.86 22.23 23.32 22.38 23.75 36.07 24.06 36.24 23.86 22.23"/><polygon class="cls-10" points="25.13 22.96 25.67 23.73 25.24 36.93 24.94 36.75 25.13 22.96"/><path class="cls-13" d="M25,21.09a16.24,16.24,0,0,0-.38-4.37A5.9,5.9,0,0,0,21.47,14c-.3-.12-.38.67.15,1a4.89,4.89,0,0,1,2.07,2,7.42,7.42,0,0,1,.41,2.18c0,.42-.19.65-.5.49-.89-.46-1.93-1-2.13-1.12s-.38.43.08.76a15.1,15.1,0,0,1,2.5,2.28l.18.24c.34.43.75,1.11.74.59Z"/><polygon class="cls-9" points="25.83 20.78 25.32 20.89 25.3 23.06 26.24 22.55 26.24 21.02 25.83 20.78"/><polygon class="cls-14" points="26.24 22.55 25.23 23.1 25.67 23.73 26.62 23.26 26.24 22.55"/><polygon class="cls-11" points="26.23 38.82 25.27 39.39 25.67 23.73 26.62 23.26 26.23 38.82"/><path class="cls-15" d="M25.3,23.06c0,.57-.34.84-.77.59a1.86,1.86,0,0,1-.78-1.48c0-.57.35-.84.78-.59A1.85,1.85,0,0,1,25.3,23.06Z"/><path class="cls-13" d="M25,22.9c0,.37-.23.54-.5.38a1.2,1.2,0,0,1-.51-1c0-.37.23-.54.51-.38A1.22,1.22,0,0,1,25,22.9Z"/><path class="cls-7" d="M33.36,25.38A16.11,16.11,0,0,1,37.85,25c.18-.67,1.45-4,3.45-5.37,0,0,4.64,1.94,4.41,3.28-.53,3-4.1,5.2-5,5.69s-1,1.1-2.3.89c-.74-.11-3.08-.32-5.09-.46A6.08,6.08,0,0,1,33.36,25.38Z"/><path class="cls-3" d="M24.93,30.28c-2.44-.42-1.93-1.63-2.19-2.61a.84.84,0,0,1,.58-1,18.76,18.76,0,0,1,2,0c.77-.13,1.3-.41,1.26-1.69,1.17.38,1.45,1,2.29,1.24a34.63,34.63,0,0,0,4.45-.83,6.08,6.08,0,0,0,0,3.66c-1.66-.12-3.09-.2-3.17-.16C28.56,29.73,26.43,30.55,24.93,30.28Z"/><path class="cls-2" d="M44.23,26.87a8.67,8.67,0,0,1-6-3.93c.25-.37.79-1.6,1.1-2,.81-3.81,2.51-5.52,4-5.84a3.2,3.2,0,0,1,3.89,3.38C47.18,23,46.13,24.8,44.23,26.87Z"/><path class="cls-6" d="M50.33,10.08a12.22,12.22,0,0,1,3.52,2.61,15.84,15.84,0,0,1,3.2,6.4h1.19s-1.56-4.84-3.45-7a8,8,0,0,0-4.15-2.71A.83.83,0,0,0,50.33,10.08Z"/><path class="cls-2" d="M51.15,9.53s-1.77-1-2.61-.61-3.5,2.25-4,3.21a12.8,12.8,0,0,0-.83,2.58,19.68,19.68,0,0,0,5.19-2.94C51.15,9.9,51.15,9.53,51.15,9.53Z"/><path class="cls-6" d="M46.35,31.27s1.4,1.51,3.39-.28a7.27,7.27,0,0,0,2.16-8.46c1.72-1.31,4-3.31,5.69-4.88,1.1,1.8,1.53,5.34,2.51,7.62a12.73,12.73,0,0,1,1,6.69,9.91,9.91,0,0,1-5.69,3.75c-5.29,1.53-10.08-2-9.84-2.65S46.35,31.27,46.35,31.27Z"/><path class="cls-6" d="M47.19,17.24a17.11,17.11,0,0,1,5,6.28l1-1s-3-4.93-5.64-6.75a10,10,0,0,0-2.9-1.42,1.27,1.27,0,0,0-1.47.69S44.33,15.2,47.19,17.24Z"/><path class="cls-5" d="M61.22,31.17v2s-1.79,2.19-6.11,3.13a15.69,15.69,0,0,1-9.55-.71,16.3,16.3,0,0,1-2.87-2.13l1-.88s.64.76,3.47,1.6a17.75,17.75,0,0,0,8.49.14C57.82,33.75,61.22,31.17,61.22,31.17Z"/><path class="cls-5" d="M46.26,48.55a2.52,2.52,0,0,1-1.24.79,6.17,6.17,0,0,1-2-.4l1.39-.39C44.9,48.39,45.71,48.65,46.26,48.55Z"/><path class="cls-10" d="M17.87,28.33c0,1.36-.82,2-1.84,1.39a4.38,4.38,0,0,1-1.84-3.51c0-1.36.82-2,1.84-1.4A4.42,4.42,0,0,1,17.87,28.33Z"/><polygon class="cls-10" points="12.83 25.88 14.82 24.72 17.3 29.78 15.26 30.97 12.83 25.88"/><path class="cls-14" d="M15.83,29.52c0,1.36-.82,2-1.84,1.4a4.42,4.42,0,0,1-1.84-3.52c0-1.36.82-2,1.84-1.39A4.38,4.38,0,0,1,15.83,29.52Z"/><path class="cls-1" d="M15.24,29.19c0,.92-.56,1.34-1.25.94a3,3,0,0,1-1.26-2.39c0-.93.56-1.35,1.26-.95A3,3,0,0,1,15.24,29.19Z"/><polygon class="cls-1" points="11.52 27.65 13.23 26.69 14.82 30.19 13.17 31.11 11.52 27.65"/><path class="cls-10" d="M33.09,12.14c0,1.38-.84,2-1.88,1.42A4.52,4.52,0,0,1,29.34,10c0-1.38.84-2,1.87-1.42A4.5,4.5,0,0,1,33.09,12.14Z"/><polygon class="cls-10" points="27.95 9.64 29.98 8.46 32.51 13.61 30.42 14.83 27.95 9.64"/><path class="cls-14" d="M31,13.36c0,1.38-.84,2-1.88,1.42a4.5,4.5,0,0,1-1.88-3.59c0-1.39.84-2,1.88-1.42A4.49,4.49,0,0,1,31,13.36Z"/><path class="cls-1" d="M30.41,13c0,.94-.57,1.38-1.28,1a3.07,3.07,0,0,1-1.28-2.45c0-.94.57-1.38,1.28-1A3.07,3.07,0,0,1,30.41,13Z"/><polygon class="cls-1" points="26.61 11.45 28.35 10.47 29.98 14.04 28.29 14.97 26.61 11.45"/><path class="cls-10" d="M17.87,35.6c0,1.35-.82,2-1.84,1.39a4.4,4.4,0,0,1-1.84-3.52c0-1.35.82-2,1.84-1.39A4.4,4.4,0,0,1,17.87,35.6Z"/><polygon class="cls-10" points="12.83 33.15 14.82 31.99 17.3 37.04 15.26 38.24 12.83 33.15"/><path class="cls-14" d="M15.83,36.79c0,1.36-.82,2-1.84,1.39a4.39,4.39,0,0,1-1.84-3.52c0-1.35.82-2,1.84-1.39A4.4,4.4,0,0,1,15.83,36.79Z"/><path class="cls-1" d="M15.24,36.45c0,.93-.56,1.35-1.25.95A3,3,0,0,1,12.73,35c0-.92.56-1.35,1.26-1A3,3,0,0,1,15.24,36.45Z"/><polygon class="cls-1" points="11.53 34.94 13.23 33.96 14.82 37.46 13.17 38.38 11.53 34.94"/></g></g></svg>