<svg xmlns="http://www.w3.org/2000/svg" viewBox="0 0 51.67 118.92"><defs><style>.cls-1{fill:#c1c1c1;}.cls-2{fill:#d8d8d8;}.cls-3,.cls-4{fill:#efefef;}.cls-4{opacity:0.5;}.cls-5{fill:#f7ca11;}.cls-6{fill:#fce265;}.cls-7{fill:#f4b414;}.cls-8{fill:#f4af14;}.cls-9{fill:#373951;}.cls-10{fill:#a8a8a8;}.cls-11{fill:#f4be14;}.cls-12{fill:#d6d6d6;}.cls-13{fill:#b2b2b2;}.cls-14{fill:#ffc9b6;}.cls-15{fill:#80a8e8;}.cls-16{fill:#eaeaea;}.cls-17{fill:#474864;}.cls-18{fill:#9cbaf7;}.cls-19{fill:#f7f7f7;}</style></defs><title>Asset 7</title><g id="Layer_2" data-name="Layer 2"><g id="Layer_1-2" data-name="Layer 1"><path class="cls-1" d="M29.41,99.77h3.43V53.32c0-5.74-2-10.16-5.41-12.15-2.95-1.7-6.62-1.45-10.34.7l-6.78,3.91v4l8.49-4.9a8.85,8.85,0,0,1,4.37-1.36,5,5,0,0,1,2.54.66c2.35,1.36,3.7,4.7,3.7,9.18Z"/><rect class="cls-2" x="0.45" y="6.17" width="4.48" height="109.74"/><path class="cls-3" d="M2.69,4.93C1.45,4.93.45,5.49.45,6.17s1,1.24,2.24,1.24,2.24-.55,2.24-1.24S3.93,4.93,2.69,4.93Z"/><ellipse class="cls-2" cx="2.69" cy="115.91" rx="2.24" ry="1.24"/><path class="cls-1" d="M2.7,5c-1,0-1.87.46-1.87,1s.84,1,1.87,1,1.86-.46,1.86-1S3.73,5,2.7,5Z"/><path class="cls-4" d="M3.81,117s-.42.12-.56.14-.56,0-.56,0V7.39l1.12-.2Z"/><rect class="cls-2" x="9.15" y="1.24" width="4.48" height="109.74"/><path class="cls-3" d="M11.39,0C10.15,0,9.15.56,9.15,1.24s1,1.24,2.24,1.24,2.24-.55,2.24-1.24S12.62,0,11.39,0Z"/><path class="cls-2" d="M11.39,109.74c-1.24,0-2.24.56-2.24,1.24s1,1.24,2.24,1.24,2.24-.55,2.24-1.24S12.62,109.74,11.39,109.74Z"/><path class="cls-1" d="M11.39.1c-1,0-1.86.46-1.86,1s.83,1,1.86,1,1.87-.46,1.87-1S12.42.1,11.39.1Z"/><path class="cls-4" d="M12.51,112.06s-.42.12-.56.14h-.56V2.46l1.12-.2Z"/><path class="cls-1" d="M31.13,98.84c-.95,0-1.72.43-1.72,1s.77.95,1.72.95,1.71-.42,1.71-.95S32.07,98.84,31.13,98.84Z"/><path class="cls-5" d="M8.69,27.1v8.74h5.39V27.1s-.52,1.33-2.76,1.33A3,3,0,0,1,8.69,27.1Z"/><path class="cls-5" d="M11.39,34.34c-1.49,0-2.7.67-2.7,1.5s1.21,1.49,2.7,1.49,2.69-.67,2.69-1.49S12.88,34.34,11.39,34.34Z"/><path class="cls-6" d="M13.63,26.3V27c-.05.67-1,1.2-2.24,1.2S9.2,27.69,9.16,27h0v-.75a1.11,1.11,0,0,0-.46.83c0,.83,1.21,1.5,2.7,1.5s2.69-.67,2.69-1.5A1.14,1.14,0,0,0,13.63,26.3Z"/><path class="cls-5" d="M8.69,90.52v8.73h5.39V90.52s-.52,1.32-2.76,1.32A3,3,0,0,1,8.69,90.52Z"/><path class="cls-5" d="M11.39,97.76c-1.49,0-2.7.66-2.7,1.49s1.21,1.49,2.7,1.49,2.69-.67,2.69-1.49S12.88,97.76,11.39,97.76Z"/><path class="cls-6" d="M13.63,89.71v.73c-.05.66-1,1.19-2.24,1.19S9.2,91.1,9.16,90.44h0v-.76a1.11,1.11,0,0,0-.46.84c0,.82,1.21,1.49,2.7,1.49s2.69-.67,2.69-1.49A1.16,1.16,0,0,0,13.63,89.71Z"/><path class="cls-5" d="M0,59.15v8.73H5.39V59.15s-.52,1.33-2.76,1.33A3,3,0,0,1,0,59.15Z"/><path class="cls-5" d="M2.7,66.39c-1.49,0-2.7.67-2.7,1.49s1.21,1.5,2.7,1.5,2.69-.67,2.69-1.5S4.18,66.39,2.7,66.39Z"/><path class="cls-6" d="M4.94,58.35v.72c-.05.67-1,1.2-2.24,1.2S.51,59.74.47,59.07h0v-.75a1.09,1.09,0,0,0-.46.83c0,.83,1.21,1.49,2.7,1.49S5.39,60,5.39,59.15A1.14,1.14,0,0,0,4.94,58.35Z"/><ellipse class="cls-7" cx="12.97" cy="31.86" rx="5.78" ry="3.27" transform="translate(-21.42 31.32) rotate(-66.95)"/><polygon class="cls-7" points="16.64 27.29 15.36 26.59 10.52 37.09 11.97 37.85 16.64 27.29"/><path class="cls-6" d="M18.05,30.42c0,2.78-1.69,6-3.77,7.2s-3.76-.07-3.76-2.85,1.68-6,3.76-7.2S18.05,27.65,18.05,30.42Z"/><path class="cls-8" d="M16.05,27.92a2.81,2.81,0,0,1,1.21,2.66A7.84,7.84,0,0,1,14,36.83a2.28,2.28,0,0,1-1.75.32A2.08,2.08,0,0,0,14.3,37a7.84,7.84,0,0,0,3.27-6.24C17.57,29.17,17,28.17,16.05,27.92Z"/><path class="cls-3" d="M14,36.83a7.84,7.84,0,0,0,3.27-6.25,2.81,2.81,0,0,0-1.21-2.66,2.28,2.28,0,0,0-1.75.32A7.83,7.83,0,0,0,11,34.49a2.8,2.8,0,0,0,1.21,2.66A2.28,2.28,0,0,0,14,36.83Z"/><path class="cls-9" d="M14.79,32a1.57,1.57,0,0,1-.65,1.25c-.36.2-.65,0-.65-.5a1.55,1.55,0,0,1,.65-1.24C14.5,31.28,14.79,31.5,14.79,32Z"/><polygon class="cls-9" points="15.73 28.4 13.77 31.86 14.75 32.22 15.73 28.4"/><polygon class="cls-9" points="14.01 30.16 14.24 30.02 14.24 28.91 14.01 29.05 14.01 30.16"/><polygon class="cls-9" points="14.01 36.47 14.24 36.33 14.24 35.22 14.01 35.36 14.01 36.47"/><polygon class="cls-9" points="16.08 31.41 16.08 31.72 16.91 31.24 16.91 30.93 16.08 31.41"/><polygon class="cls-9" points="11.35 34.14 11.35 34.45 12.18 33.97 12.18 33.66 11.35 34.14"/><polygon class="cls-9" points="15.42 29.99 15.59 30.12 16.18 29 16.01 28.87 15.42 29.99"/><polygon class="cls-9" points="12.08 36.38 12.24 36.51 12.83 35.39 12.66 35.26 12.08 36.38"/><polygon class="cls-9" points="15.59 33.57 15.42 33.89 16.01 34.34 16.18 34.02 15.59 33.57"/><polygon class="cls-9" points="12.24 31.04 12.08 31.36 12.66 31.81 12.83 31.49 12.24 31.04"/><path class="cls-10" d="M23.48,47c0,.11,0,.22,0,.34l1.51.87c0-1.73,0-3.59-.08-4.76a5.25,5.25,0,0,0-4-4.73c-.2-.05-.34.12-.34.39v.49a.87.87,0,0,0,.33.67,10.84,10.84,0,0,1,1.62,1.26A3.63,3.63,0,0,1,23.44,44c0,.29-.15.44-.35.32l-2.16-1.25c-.2-.12-.37,0-.37.29v.25a1.3,1.3,0,0,0,.43.94l2.19,1.8A.93.93,0,0,1,23.48,47Z"/><path class="cls-5" d="M24.07,47.57l-.44-.46a2.39,2.39,0,0,0-.19,1.12V58c0,3.94,0,5.67,0,5.67L24,64Z"/><path class="cls-5" d="M24.36,47.73l.63.09V58.9c0,3.94,0,5.66,0,5.66l-.53-.3Z"/><polygon class="cls-5" points="23.57 47.4 23.03 47.55 23.45 61.24 23.76 61.41 23.57 47.4"/><polygon class="cls-5" points="24.83 48.13 25.37 49.01 24.94 62.1 24.64 61.92 24.83 48.13"/><path class="cls-10" d="M24.67,46.26a15.85,15.85,0,0,0-.38-4.37,5.88,5.88,0,0,0-3.11-2.75c-.31-.12-.38.66.14,1a4.89,4.89,0,0,1,2.07,2,7.35,7.35,0,0,1,.41,2.18c0,.42-.19.65-.5.49-.89-.46-1.92-1-2.12-1.12s-.38.43.07.76a15.47,15.47,0,0,1,2.5,2.27l.18.25c.34.43.75,1.11.75.59Z"/><polygon class="cls-10" points="19.84 39.71 19.78 39.34 20.68 38.8 20.94 39.23 20.61 39.89 19.84 39.71"/><polygon class="cls-10" points="20.67 43.07 19.69 43.68 19.99 44.15 21.02 44.25 21.1 43.56 20.67 43.07"/><path class="cls-11" d="M23,64.56,24,64s-.3-14.86-.35-14.86a2.17,2.17,0,0,0-.72-.07C22.84,49.08,23,64.56,23,64.56Z"/><path class="cls-3" d="M22.53,47.59c0,.11,0,.23,0,.34l1.51.88c0-1.73,0-3.59-.08-4.76a5.24,5.24,0,0,0-4-4.73c-.19-.06-.33.11-.33.39v.49a.86.86,0,0,0,.33.67,10.84,10.84,0,0,1,1.62,1.26,3.62,3.62,0,0,1,.93,2.44c0,.3-.15.44-.35.33L20,43.65c-.21-.12-.37,0-.37.29v.25a1.3,1.3,0,0,0,.43.94l2.19,1.8A.93.93,0,0,1,22.53,47.59Z"/><path class="cls-5" d="M23.12,48.14l-.44-.45a2.34,2.34,0,0,0-.19,1.12v9.78c0,3.94,0,5.67,0,5.67l.53.3Z"/><path class="cls-5" d="M23.41,48.31l.64.5a3.44,3.44,0,0,1,.89,1.89c.1,2.21-.52,5.92-.52,8.62A32.27,32.27,0,0,1,24,65.14l-.53-.3Z"/><polygon class="cls-5" points="22.61 47.98 22.08 48.13 22.5 61.81 22.81 61.99 22.61 47.98"/><polygon class="cls-5" points="23.88 48.71 24.42 49.48 23.99 62.67 23.69 62.5 23.88 48.71"/><path class="cls-12" d="M23.72,46.84a15.91,15.91,0,0,0-.38-4.38,5.85,5.85,0,0,0-3.12-2.74c-.3-.12-.38.66.15,1a5,5,0,0,1,2.07,2,7.49,7.49,0,0,1,.41,2.18c0,.43-.19.66-.5.5-.89-.46-1.93-1-2.13-1.12s-.38.43.08.76a15.47,15.47,0,0,1,2.5,2.27l.18.25c.34.42.75,1.11.75.59Z"/><polygon class="cls-10" points="24.58 46.53 24.07 46.64 24.05 48.81 24.99 48.3 24.99 46.77 24.58 46.53"/><polygon class="cls-6" points="24.99 48.3 23.98 48.85 24.42 49.48 25.37 49.01 24.99 48.3"/><polygon class="cls-11" points="24.98 64.56 24.03 65.14 24.42 49.48 25.37 49.01 24.98 64.56"/><path class="cls-13" d="M24.05,48.81c0,.57-.34.83-.77.59a1.88,1.88,0,0,1-.78-1.49c0-.57.35-.83.78-.58A1.84,1.84,0,0,1,24.05,48.81Z"/><path class="cls-12" d="M23.78,48.65c0,.37-.22.54-.5.38a1.19,1.19,0,0,1-.5-1c0-.37.22-.54.5-.38A1.19,1.19,0,0,1,23.78,48.65Z"/><path class="cls-14" d="M23.8,52.68c.36-.64,1.09-.41,1.91-.24-.12-1.24-.29-2.28-.34-3.39,1.78.33,1.73,1.69,2.57,2.68.47.54.63,1,1.5,1.19a8.84,8.84,0,0,0,2.36.19,11.59,11.59,0,0,0,.36,2.6,17.08,17.08,0,0,1-3.55-.42,4.31,4.31,0,0,1-1.67-.49c-.72-.34-1.14-1.06-1.85-1.4C24.63,53.18,23.43,53.31,23.8,52.68Z"/><path class="cls-15" d="M26.77,67.6c-.42-.82,2.3-1.5,2.3-1.5L29.78,68S27.57,69.17,26.77,67.6Z"/><path class="cls-16" d="M36.22,42.6a4.76,4.76,0,0,1,5.21,2.79c1.14,2.36,1.09,5.55.11,7.08S35.6,56.29,33.93,57a21,21,0,0,0-2.44,1.19,14.48,14.48,0,0,1-4.73-2A12.45,12.45,0,0,1,24.6,53a4.85,4.85,0,0,1,2.07-3.16c1.71.48,4.25,3.22,4.25,3.22s2.39-2.8,2.29-4.42S34.4,43,36.22,42.6Z"/><path class="cls-9" d="M34.65,112.38a21,21,0,0,0,1.44,3.45,1.91,1.91,0,0,1-1.23,2.92c-1.22.4-2.92.14-5.75-1.37s-4.08-3-4.18-4,1.33-2.39,3.78-1.62a32.08,32.08,0,0,1,3.69,1.34Z"/><path class="cls-9" d="M48.57,107.42a29,29,0,0,1,2.94,3c0,.4-.48,1.55-1.86,4s-3.84,3.75-5.86,2.44-3.38-3.43-1.69-4a5,5,0,0,1,3.15,0s.56-1.36,1.18-2.81A8.13,8.13,0,0,1,48.57,107.42Z"/><path class="cls-17" d="M51.51,110.45a3.43,3.43,0,0,0-2.88,2.46,10.45,10.45,0,0,1-2.5,4.45c2-.24,2.6-.92,3.85-3.26C51,112.13,52.07,110.83,51.51,110.45Z"/><path class="cls-15" d="M33.31,71.16a13.59,13.59,0,0,1,3.31-1.57,24.49,24.49,0,0,1,4.32-1.69l-.1-.12c-.15-.19,1-.64,1.26-.48C45.59,69.78,46,73,44,77.35c1.89,4.54,0,13.26-1.55,15.62a11.37,11.37,0,0,1,3.71,4.08c1.53,3.69,1.7,7.19,3.5,9.86.47.69.38,1.24,0,1.53-.36-.34-1.47-.21-2.44,1a6,6,0,0,0-1.3,1.92c-2.27-.86-4.75-6.34-7.13-10-1.63-2.47-2.37-3.91-2.37-5.8a1.53,1.53,0,0,1-1-2.33c-1.71-3.32-2-11-2.45-14.75C32.79,76.58,31.63,72.63,33.31,71.16Z"/><path class="cls-18" d="M24.61,91.32c.1-2.13,1.16-10.48,1.51-12.7.29-1.83.91-6.25,1.69-7.93-.43-.24,4.05,1.32,5.59,1,1.32-.27,5.14-4.34,5.15-4.19,3.45,4.11,3.66,9.77,0,12.35,0,0-2,9.29-7.77,14.61.68,1.78,2.13,2.64,3.07,5.8,1.06,3.58,2.23,9,1.55,11.61a4,4,0,0,1,.68,1.77c.35,2.08-3.67,1.86-5.08,1.59a1.66,1.66,0,0,1-1-2.39,98,98,0,0,1-4.45-10.71c-.7-2.19-1.85-5.74-.94-8A1.83,1.83,0,0,1,24.61,91.32Z"/><path class="cls-14" d="M27.53,34.7a4.41,4.41,0,0,1,4.81-.38,3.94,3.94,0,0,1,2.42,3,12.6,12.6,0,0,1,0,2.6,17.55,17.55,0,0,1-2.44,4.22,3.25,3.25,0,0,1-3.77,1.42c-2.15-.64-2.25-3.46-2.57-5.36C25.59,38,25.74,36.17,27.53,34.7Z"/><path class="cls-19" d="M31.21,46.21c4.2-2.05,5.5-4.19,8.4-1.64,1.81,1.59,2.11,8,1.87,10.74s.18,7.57.75,8.78c.65,1.39,1.51,2.07,1,3.07.92.38-14.79,5-14.93,1.63-.05-1.34-3-10.71-3.27-14.88S26.33,48.59,31.21,46.21Z"/><path class="cls-14" d="M33.81,38.73a24.56,24.56,0,0,0,.59,3.49,6.39,6.39,0,0,0,1.78,2.65A2,2,0,0,1,35.25,48c-2.34,1-5.12-1.05-5.12-1.05a11,11,0,0,0-.91-3.5C28.57,41.83,33.81,38.73,33.81,38.73Z"/><path class="cls-9" d="M27.9,33.24a5.66,5.66,0,0,1,7.19.6,5.13,5.13,0,0,1,1.49,3.87c-.09,2.19-1.1,4.11-1.76,7a7.24,7.24,0,0,1-4.34-2.28,10.68,10.68,0,0,1-2.15-1.93,2.76,2.76,0,0,1-2.81-1.9A5.48,5.48,0,0,1,23,35C24.78,33.51,25.49,32.23,27.9,33.24Z"/><path class="cls-14" d="M30.15,40.52A1.89,1.89,0,0,1,29,43l-1.25-1.89S29.35,38.5,30.15,40.52Z"/><path class="cls-18" d="M37.55,67.51s-2.8,2.87-5.44,3.09a14,14,0,0,1-3.65,0,10.07,10.07,0,0,1,3.72-1.69C34.17,68.52,37.55,67.51,37.55,67.51Z"/><path class="cls-15" d="M41.46,70.16s-1.47,2.4-6.35,3A12.66,12.66,0,0,1,27.37,72l.2-1.61s5.88,1.38,9.18.05a41.69,41.69,0,0,1,4.37-1.61Z"/><path class="cls-18" d="M42.28,53.64,43.56,58s0,4.72-.2,6.31c.25.6.66.73.2,1.44,1,0,.64,1,.18,1.75a8.85,8.85,0,0,1-3.84,3.17c-1.54.82-6.59,2.06-8.53,1.57s-4.32-1-4.15-2A5.48,5.48,0,0,0,27.36,69l-.59-1.42a6,6,0,0,0,4.6-.35c1.53-.73,4.32-4.23,3.57-10A36.85,36.85,0,0,0,42.28,53.64Z"/><path class="cls-18" d="M36.59,57.88c-.16-.1-1-4.26-2.54-7.18-1.22-2.36-3.42-3.92-4.27-3.78a2.09,2.09,0,0,0-1.53.81,7,7,0,0,1,3.6,2.17C33.21,51.59,35,57.26,35,58.36S36.59,57.88,36.59,57.88Z"/><path class="cls-18" d="M36.88,44.82c.37.32,1.21.81,2.31,3.39C39.9,49.86,41.38,55,41.38,55l1.06-.74a51.28,51.28,0,0,0-2-6.26c-1.07-2.49-2-3.34-2.68-3.78a1.55,1.55,0,0,0-2.06.16C35.78,44.63,36.88,44.82,36.88,44.82Z"/><path class="cls-15" d="M35.92,70.2a7.23,7.23,0,0,1-3.09.82A7.76,7.76,0,0,1,30,70.24a12.71,12.71,0,0,1,2.67-.12A31.8,31.8,0,0,0,35.92,70.2Z"/><path class="cls-16" d="M36.46,44.19c.89.33,2,2.13-.09,3.78s-4.36.27-5.22-.16a7.8,7.8,0,0,0-2-.58s.39-1.29,2.48-1.28c1.27,0,3.16-.36,3.72-1.13S36,44,36.46,44.19Z"/><path class="cls-14" d="M12,45.28a1.48,1.48,0,0,0,.29-1.07c0-.27.77-.81.82-.14A14.81,14.81,0,0,1,13.2,46c0,.53,0,2.37,0,2.76a6.29,6.29,0,0,0,1.45,2.69,10.1,10.1,0,0,1,1.84,3.61,17.67,17.67,0,0,0,4-.38c1.36-.32,3.88-1,4.94-1.29,2.52-.67.73,4.84.73,4.84s-4,1.08-6.59,1.51-4-.65-4.85-.3-1.25-.89-1.4-1.16-2-1.89-2.23-4.13a22.29,22.29,0,0,1,.23-4.71c-.71-.68-1.7-1.09-2.16-1.85a2.77,2.77,0,0,1-.54-2.15,6.28,6.28,0,0,1,.77-2.93C9.72,42,11.11,46.49,12,45.28Z"/><path class="cls-16" d="M19.75,54.31c1-1.14,3.2-1.62,4.21-2.17a7.67,7.67,0,0,1,1.56-2.69c3-2.41,3.84-.82,4.85.88.9,1.54,1,5.7-.59,7.88-1.68,2.36-2.53,1.81-4,1.91a14.5,14.5,0,0,1-4.37.26C20.24,57.53,19.36,55,19.75,54.31Z"/><path class="cls-15" d="M30.54,37.67s-2.36,2.11-6.12-.33S24,32.27,26.58,32.6a7.7,7.7,0,0,1,4,1.55Z"/><path class="cls-18" d="M26.64,35c.29-3.33,5.05-5.21,8.7-2.64,2,1.41,3.07,4.4,1.14,7.58C36,41.25,27.43,40.83,26.64,35Z"/><path class="cls-15" d="M33.19,32c-.12.26.16.65.64.88s1,.21,1.1,0-.17-.66-.65-.89S33.31,31.75,33.19,32Z"/></g></g></svg>