<svg xmlns="http://www.w3.org/2000/svg" viewBox="0 0 75.95 114.49"><defs><style>.cls-1{fill:#f9bba7;}.cls-2{fill:#9cbaf7;}.cls-3{fill:#eaeaea;}.cls-4{fill:#7ca5ed;}.cls-5{fill:#373951;}.cls-6{fill:#9dbbfc;}.cls-7{fill:#f7f7f7;}.cls-8{fill:#ffc9b6;}.cls-9{fill:#c1c1c1;}.cls-10{fill:#f7ca11;}.cls-11{fill:#fce265;}.cls-12{fill:#d8d8d8;}.cls-13{fill:#f66232;}.cls-14{fill:#80a8e8;}</style></defs><title>Asset 14</title><g id="Layer_2" data-name="Layer 2"><g id="Layer_1-2" data-name="Layer 1"><path class="cls-1" d="M28.35,21.42s2.37,3.84,3.33,5.27,1.25,1.48,1.15,4.75a17,17,0,0,1-.12,2.16A7.28,7.28,0,0,0,33,38.17l-2.61-.73a9.87,9.87,0,0,1-1.09-3.82,14.87,14.87,0,0,0-.76-3.78l-3.89-4.27Z"/><path class="cls-2" d="M23,3.8a5.48,5.48,0,0,0,2.16.5A1.5,1.5,0,0,0,26.54,3,8.14,8.14,0,0,0,24,2.68,1.26,1.26,0,0,0,23,3.8Z"/><path class="cls-3" d="M29.92,22.39a4.59,4.59,0,0,1-2,2.61,5.65,5.65,0,0,1-2.09.87L18.1,15.8l2.54-3.48a10.32,10.32,0,0,1,3.63,1.15c1.44.91,2.87,2.77,2.93,4.22A40.19,40.19,0,0,1,29.92,22.39Z"/><path class="cls-4" d="M27,33.15s.64,3.23,1.24,6.49c.38,2.1.75,4.22.91,5.5.4,3.25,1.26,8.18,1.75,12.28a56.54,56.54,0,0,1,0,12.06c-.14,1.58-.82,5.71-.57,8-.38,1.45-3.81,1.55-4.18-.15-.22-1.06-2.63-10.46-2.82-13.4a13.56,13.56,0,0,1,.55-5S19.84,49.6,18.43,46s-.28-8.08-.28-8.08Z"/><path class="cls-5" d="M26.24,76.89a13.78,13.78,0,0,1-.46,2,5.36,5.36,0,0,0,0,2.42,1.45,1.45,0,0,0,1.13.83,3.68,3.68,0,0,0,1.58,0A11.55,11.55,0,0,0,30.43,84a9.24,9.24,0,0,0,4.23,1.41c1.09-.14,1.69-1,1.62-1.52a6.73,6.73,0,0,0-2.34-2.77,20.68,20.68,0,0,1-2.64-2.43A12.27,12.27,0,0,1,30,76.91Z"/><path class="cls-5" d="M9.92,84.72a14.5,14.5,0,0,0-.59,3.39,2.51,2.51,0,0,0,.7,2,.74.74,0,0,0,.81.26S11,92.92,12.15,94a5.2,5.2,0,0,0,4.42.87c1-.35.4-2.21-.55-4s-2.17-3.8-2.45-5.44C11.16,85,9.92,84.72,9.92,84.72Z"/><path class="cls-6" d="M14.47,36.84a24,24,0,0,0-2.91,5.94c-.92,2.66-.94,9.12-.94,9.12a64.3,64.3,0,0,0,0,8.55,14.28,14.28,0,0,1,.31,2.65A35.51,35.51,0,0,0,9.14,74.56c.12,6.23.52,10.71.52,10.71a2.14,2.14,0,0,0,1.92,1.39,3.5,3.5,0,0,0,2.54-.8s3-13.12,4.05-16.1a36.28,36.28,0,0,0,1.51-6.44l2.38-14.75s4.07-2.52,2.18-9.16C23.05,35.26,14.47,36.84,14.47,36.84Z"/><path class="cls-4" d="M21.81,42.36C26.58,40.92,27.53,39,27.53,39l-.39-1.28s-4.57,3.18-7.77,3.66-7.08-1.09-7.08-1.09l-.49,1.87S17.69,43.6,21.81,42.36Z"/><path class="cls-7" d="M9.69,19.88C11.77,16,17.8,13.3,22.07,14A9.93,9.93,0,0,1,25.7,18.8a12.62,12.62,0,0,1,.6,5.74,39.32,39.32,0,0,0,.84,13.13A15.48,15.48,0,0,1,18.41,42c-1.82.27-3.12-.44-4.86-1.14a.59.59,0,0,1-.4-.54c-.49-4.51-1.94-8.32-3.4-12.56C9,25.44,8.51,22.1,9.69,19.88Z"/><path class="cls-6" d="M17.77,42.26c-2.52.23-4.29-.77-6.39-1.71a15.88,15.88,0,0,1,1.22-3.63s3.66.83,4.3-3.34a61.46,61.46,0,0,0,.82-7.64,20.78,20.78,0,0,0-2.31-5.49,25.19,25.19,0,0,0-2.69-3.84l1-.69a24.45,24.45,0,0,1,2.4,2.7,48,48,0,0,1,3.34,5.29l5.78-3a11.76,11.76,0,0,0-1.05-3.63A21.78,21.78,0,0,0,22.07,14l.13-1.18a5.57,5.57,0,0,1,2.42,2.48,22.45,22.45,0,0,1,2.28,9,69.66,69.66,0,0,0,.7,9.54c.18,1.07.31,2.07.46,3.11C25.87,40,21.72,41.91,17.77,42.26Z"/><path class="cls-1" d="M20.89,11.54s-.48,2.7.49,3.67a2,2,0,0,1-1.07,3.49c-2.43.73-4.09-1.05-5.57-2.28.69-1.37,1-1.35,1.1-5.21C15.91,8.06,20.89,11.54,20.89,11.54Z"/><path class="cls-8" d="M16.68,4.75c1.54-1.62,5.5-2.21,6.85.25,1,1.85,1,5.1.66,6.59-.68,3.11-3.3,4.92-6.2,2.44S14,7.54,16.68,4.75Z"/><path class="cls-5" d="M14.16,6.77c.27-1.06.91-2.45,2.18-2.16A2.47,2.47,0,0,1,18,1.75c2.6-.71,4.92.94,7.39,1.55.7.18.88.57-.36,1.29.67.07,1.29.46,1.18,1.22a1,1,0,0,1-.9.88c.67,1-.34,1.83-1.29,2.18a5.67,5.67,0,0,1-5.11-.53c-.36,1.44-1.7,3.28-3,3.63A6,6,0,0,1,14.16,6.77Z"/><path class="cls-8" d="M18.1,10.37S17.26,9,16.47,10s.76,2,.76,2Z"/><path class="cls-9" d="M7.84,101.53H0V80.65c0-5,3-10.56,6.9-12.83l40-23.09A7,7,0,0,1,54,44.47c2.33,1.35,3.66,4,3.66,7.39V72.74H49.87V52.06l-39,22.55c-1.38.79-3,3.61-3,6Z"/><path class="cls-9" d="M3.92,99.17c-2.17,0-3.92,1.06-3.92,2.36s1.75,2.35,3.92,2.35,3.92-1,3.92-2.35S6.08,99.17,3.92,99.17Z"/><path class="cls-9" d="M53.79,70.38c-2.17,0-3.92,1.06-3.92,2.36s1.75,2.35,3.92,2.35,3.91-1,3.91-2.35S56,70.38,53.79,70.38Z"/><path class="cls-10" d="M22,69.06,41.86,57.55l-4.78-8.06L17.22,61s2.45-.38,4.43,3A5.16,5.16,0,0,1,22,69.06Z"/><path class="cls-10" d="M37.24,54.84c1.32,2.23,3.38,3.44,4.62,2.71S43,54.43,41.7,52.2s-3.38-3.44-4.62-2.71S35.92,52.62,37.24,54.84Z"/><path class="cls-11" d="M16.42,62.38l1.08-.64c1-.52,2.7.47,3.77,2.28s1.14,3.75.19,4.41l-1.12.68a1.92,1.92,0,0,0,1.65,0c1.23-.73,1.17-3.13-.15-5.36S18.45,60.26,17.22,61A2,2,0,0,0,16.42,62.38Z"/><path class="cls-9" d="M26.08,112.14H18.24V91.26c0-5,3-10.56,6.9-12.83l40-23.08a7,7,0,0,1,7.15-.26c2.33,1.34,3.67,4,3.67,7.38V83.35H68.11V62.67l-39,22.55c-1.38.8-3,3.61-3,6Z"/><path class="cls-9" d="M22.16,109.78c-2.16,0-3.92,1.06-3.92,2.36s1.76,2.35,3.92,2.35,3.92-1,3.92-2.35S24.33,109.78,22.16,109.78Z"/><path class="cls-9" d="M72,81c-2.16,0-3.92,1.06-3.92,2.36S69.87,85.7,72,85.7s3.92-1,3.92-2.35S74.2,81,72,81Z"/><path class="cls-10" d="M40.24,79.67,60.1,68.17,55.33,60.1,35.46,71.61s2.45-.39,4.43,3A5.14,5.14,0,0,1,40.24,79.67Z"/><path class="cls-10" d="M55.48,65.46c1.32,2.22,3.39,3.44,4.62,2.71S61.27,65,60,62.81s-3.39-3.44-4.62-2.71S54.16,63.23,55.48,65.46Z"/><path class="cls-11" d="M34.67,73l1.08-.65c1-.52,2.69.48,3.76,2.29s1.15,3.74.2,4.4l-1.12.68a1.92,1.92,0,0,0,1.65,0c1.23-.73,1.16-3.13-.16-5.35s-3.38-3.44-4.62-2.71A1.93,1.93,0,0,0,34.67,73Z"/><path class="cls-9" d="M28.89,54.89c-1.43,0-2.58.69-2.58,1.55S27.46,58,28.89,58s2.58-.69,2.58-1.55S30.31,54.89,28.89,54.89Z"/><rect class="cls-9" x="26.31" y="53.11" width="5.16" height="3.33"/><path class="cls-12" d="M28.89,51.56c-1.43,0-2.58.7-2.58,1.55s1.15,1.55,2.58,1.55,2.58-.69,2.58-1.55S30.31,51.56,28.89,51.56Z"/><path class="cls-9" d="M28.89,51.92c-.85,0-1.54.41-1.54.93s.69.92,1.54.92,1.54-.41,1.54-.92S29.74,51.92,28.89,51.92Z"/><rect class="cls-9" x="27.35" y="49.28" width="3.08" height="3.57"/><ellipse class="cls-12" cx="28.89" cy="49.28" rx="1.54" ry="0.93"/><path class="cls-5" d="M27.51,42.49a.37.37,0,0,1-.18-.05L25.19,41.2a.37.37,0,0,1,.36-.64l2.14,1.24a.37.37,0,0,1,.14.5A.37.37,0,0,1,27.51,42.49Z"/><path class="cls-9" d="M28.91,48.56c-.43,0-.77.21-.77.47s.34.46.77.46.77-.21.77-.46S29.33,48.56,28.91,48.56Z"/><rect class="cls-9" x="28.14" y="43.27" width="1.54" height="5.76"/><ellipse class="cls-12" cx="28.91" cy="43.27" rx="0.77" ry="0.46"/><path class="cls-5" d="M28.89,46.15c-3,0-5.41-1.51-5.41-3.44s2.38-3.45,5.41-3.45,5.41,1.51,5.41,3.45S31.92,46.15,28.89,46.15Zm0-5.91c-2.4,0-4.43,1.13-4.43,2.47s2,2.46,4.43,2.46,4.43-1.13,4.43-2.46S31.29,40.24,28.89,40.24Z"/><path class="cls-5" d="M30.32,42.49a.37.37,0,0,1-.19-.69l2.14-1.24a.38.38,0,0,1,.51.14.37.37,0,0,1-.14.5L30.5,42.44A.41.41,0,0,1,30.32,42.49Z"/><ellipse class="cls-9" cx="28.91" cy="43.42" rx="1.54" ry="0.93"/><rect class="cls-9" x="27.37" y="42.5" width="3.08" height="0.93"/><path class="cls-12" d="M28.91,41.57c-.85,0-1.54.42-1.54.93s.69.92,1.54.92,1.54-.41,1.54-.92S29.76,41.57,28.91,41.57Z"/><path class="cls-5" d="M25.37,45.16a.38.38,0,0,1-.32-.18.38.38,0,0,1,.14-.51l2.14-1.23a.36.36,0,1,1,.36.63l-2.14,1.24A.37.37,0,0,1,25.37,45.16Z"/><path class="cls-5" d="M32.46,45.16a.41.41,0,0,1-.19,0l-2.14-1.24a.37.37,0,0,1-.13-.5.36.36,0,0,1,.5-.13l2.14,1.23a.38.38,0,0,1,.14.51A.4.4,0,0,1,32.46,45.16Z"/><path class="cls-9" d="M47.1,65.54c-1.43,0-2.58.7-2.58,1.55s1.15,1.55,2.58,1.55,2.58-.69,2.58-1.55S48.52,65.54,47.1,65.54Z"/><rect class="cls-9" x="44.52" y="63.77" width="5.16" height="3.33"/><path class="cls-12" d="M47.1,62.22c-1.43,0-2.58.69-2.58,1.55s1.15,1.55,2.58,1.55,2.58-.7,2.58-1.55S48.52,62.22,47.1,62.22Z"/><path class="cls-9" d="M47.1,62.57c-.85,0-1.54.42-1.54.93s.69.92,1.54.92,1.54-.41,1.54-.92S48,62.57,47.1,62.57Z"/><rect class="cls-9" x="45.56" y="59.93" width="3.08" height="3.57"/><path class="cls-12" d="M47.1,59c-.85,0-1.54.42-1.54.93s.69.92,1.54.92,1.54-.41,1.54-.92S48,59,47.1,59Z"/><path class="cls-13" d="M45.72,53.14a.45.45,0,0,1-.19,0l-2.14-1.24a.37.37,0,0,1-.13-.5.37.37,0,0,1,.5-.14l2.14,1.24A.37.37,0,0,1,46,53,.38.38,0,0,1,45.72,53.14Z"/><ellipse class="cls-9" cx="47.12" cy="59.68" rx="0.77" ry="0.46"/><rect class="cls-9" x="46.35" y="53.92" width="1.54" height="5.76"/><path class="cls-12" d="M47.12,53.46c-.43,0-.77.2-.77.46s.34.46.77.46.77-.21.77-.46S47.54,53.46,47.12,53.46Z"/><path class="cls-13" d="M47.1,56.8c-3,0-5.41-1.51-5.41-3.44s2.37-3.45,5.41-3.45,5.41,1.52,5.41,3.45S50.13,56.8,47.1,56.8Zm0-5.91c-2.4,0-4.43,1.13-4.43,2.47s2,2.47,4.43,2.47,4.43-1.13,4.43-2.47S49.5,50.89,47.1,50.89Z"/><path class="cls-13" d="M48.52,53.14A.38.38,0,0,1,48.2,53a.37.37,0,0,1,.14-.5l2.14-1.24a.37.37,0,0,1,.5.14.37.37,0,0,1-.13.5l-2.14,1.24A.41.41,0,0,1,48.52,53.14Z"/><path class="cls-9" d="M47.12,53.15c-.85,0-1.54.41-1.54.92s.69.93,1.54.93,1.54-.42,1.54-.93S48,53.15,47.12,53.15Z"/><rect class="cls-9" x="45.58" y="53.15" width="3.08" height="0.92"/><path class="cls-12" d="M47.12,52.22c-.85,0-1.54.42-1.54.93s.69.92,1.54.92,1.54-.41,1.54-.92S48,52.22,47.12,52.22Z"/><path class="cls-13" d="M43.58,55.81a.36.36,0,0,1-.32-.18.37.37,0,0,1,.13-.5l2.14-1.24A.38.38,0,0,1,46,54a.38.38,0,0,1-.14.51l-2.14,1.23A.31.31,0,0,1,43.58,55.81Z"/><path class="cls-13" d="M50.66,55.81a.31.31,0,0,1-.18-.05l-2.14-1.23A.38.38,0,0,1,48.2,54a.38.38,0,0,1,.51-.13l2.14,1.24a.37.37,0,0,1,.13.5A.36.36,0,0,1,50.66,55.81Z"/><path class="cls-2" d="M14.21,8.69c1.2-2.72,5.68-5.83,9-5.63L23.16,3C21.4.21,19.65-1.15,15.78,1.2,12.3,3.31,13,6.06,13.21,6.45A8.7,8.7,0,0,0,14.21,8.69Z"/><path class="cls-14" d="M16.25,6.06A8.5,8.5,0,0,1,19.93,3a8.68,8.68,0,0,1,6.61,0s-2.4.39-3.38,1.47-1.54,2-3.47,2A10.2,10.2,0,0,1,16.25,6.06Z"/><path class="cls-8" d="M14.41,25.24s-.2,2.82-.16,4.87-.34,6-.34,6l7.21,4.67L18.5,43.06s-5.9-1.22-7.4-1.58-2.54-1.36-2.67-3.84-.2-10.06-.2-10.06Z"/><path class="cls-3" d="M14.68,30.92c-2.24.84-5.54.69-7.41-.64a35.12,35.12,0,0,1,0-7.69c.23-3.41,4-4.77,4-4.77s4.06.41,3.49,7.66A13.46,13.46,0,0,1,14.68,30.92Z"/><path class="cls-13" d="M17.16,40.56a2.74,2.74,0,0,0-.45,2.13,10.81,10.81,0,0,1,3.58,1.58c.75.7,1.42,2.06,2,2.69,1.33,1.49,3.95,1.47,4,1.23s-.46-.46-.46-.46a2.4,2.4,0,0,0,.82-.38c.17-.19-.49-1-1.86-2-.55-.43-1.46-2-1.26-2.39s.81-.38,1.65-.81c.55-.28,1.27-.8.93-1.15s-1.43,0-2.49.08a7.56,7.56,0,0,1-2.74-.54,16.17,16.17,0,0,1-2-1.19A2.55,2.55,0,0,0,17.16,40.56Z"/><path class="cls-13" d="M29.34,33.62s.08,1.18.2,2.46a13.11,13.11,0,0,1-.38,2.76c-.41,1-1,1.53-.45,1.8s1.39-.46,1.72-1,.45-.77.81-.78,1.32.88,2.08,1.87,1.23,2.47,1.73,2.56.49-1.7-.75-3.65-1.36-2-1.47-3.37a13.66,13.66,0,0,1-.12-2.65C31.74,32.62,29.34,33.62,29.34,33.62Z"/></g></g></svg>