<svg xmlns="http://www.w3.org/2000/svg" viewBox="0 0 123.63 133.9"><defs><style>.cls-1{fill:#f9bba7;}.cls-2{fill:#f66232;}.cls-3{fill:#eaeaea;}.cls-4{fill:#7ca5ed;}.cls-5{fill:#373951;}.cls-6{fill:#9dbbfc;}.cls-7{fill:#f7f7f7;}.cls-8{fill:#ffc9b6;}.cls-9{fill:#efefef;}.cls-10{fill:#d8d8d8;}.cls-11{fill:#c1c1c1;}.cls-12{fill:#474864;}.cls-13{fill:#80a8e8;}.cls-14{fill:#9cbaf7;}</style></defs><title>Asset 6</title><g id="Layer_2" data-name="Layer 2"><g id="Layer_1-2" data-name="Layer 1"><path class="cls-1" d="M24.46,18.65c.18,0,3.79,5.05,3.79,5.05s6.41,2.31,8.06,2.87,1.86.65,1.86.65L37,29.67s-4.63-.47-6.8-.94-3.39-.71-4.75-2a23.73,23.73,0,0,1-3.26-4.14C22.18,22.49,24.46,18.65,24.46,18.65Z"/><path class="cls-2" d="M35.77,26.38c.14.05,3.44.8,4.27.55a10.61,10.61,0,0,0,2-.84c.65-.32,1.25-.68,1.59-.3s-1.36,1.48-1.36,1.48a17.59,17.59,0,0,0,2.51.68c1.48.3,2.58.59,2.64.92s-.6,1.33-2.25,1.8-5.94-.38-5.94-.38l-4.5-1a3.05,3.05,0,0,1,.18-1.54A4.64,4.64,0,0,1,35.77,26.38Z"/><path class="cls-3" d="M26.76,20.11a4.63,4.63,0,0,1-2,2.66,6,6,0,0,1-2.14.9c0-.07-7.5-9.15-7.5-9.15L17.7,11a10.33,10.33,0,0,1,3.7,1.18c1.47.92,2.93,2.83,3,4.3A23.85,23.85,0,0,1,26.76,20.11Z"/><path class="cls-4" d="M24.2,32.24s.65,3.29,1.26,6.62c.39,2.15.77,4.31.93,5.61.42,3.32,1.29,8.36,1.79,12.54a57.66,57.66,0,0,1,0,12.32c-.15,1.61-.84,5.82-.58,8.12-.39,1.48-3.89,1.59-4.27-.16-.23-1.08-2.68-10.67-2.88-13.67A13.94,13.94,0,0,1,21,58.49S16.88,49,15.44,45.31s-.29-8.24-.29-8.24Z"/><path class="cls-5" d="M23.41,76.89a13.56,13.56,0,0,1-.47,2,5.58,5.58,0,0,0,0,2.47,1.49,1.49,0,0,0,1.16.85,3.65,3.65,0,0,0,1.61,0,11.76,11.76,0,0,0,2,1.91A9.28,9.28,0,0,0,32,85.57c1.11-.14,1.73-1,1.65-1.55a6.83,6.83,0,0,0-2.39-2.82,22.27,22.27,0,0,1-2.69-2.48,13.33,13.33,0,0,1-1.32-1.81Z"/><path class="cls-5" d="M6.75,84.89a14.83,14.83,0,0,0-.6,3.45,2.58,2.58,0,0,0,.71,2,.77.77,0,0,0,.83.27S7.81,93.25,9,94.34a5.36,5.36,0,0,0,4.52.89c1-.36.4-2.26-.56-4.12s-2.22-3.88-2.5-5.55C8,85.16,6.75,84.89,6.75,84.89Z"/><path class="cls-6" d="M11.4,36a24.31,24.31,0,0,0-3,6.06c-.95,2.73-1,9.32-1,9.32a65.24,65.24,0,0,0,0,8.73,14.8,14.8,0,0,1,.31,2.7A36.13,36.13,0,0,0,6,74.51c.12,6.36.53,10.93.53,10.93a2.18,2.18,0,0,0,1.95,1.42A3.54,3.54,0,0,0,11,86s3.05-13.39,4.13-16.43A36.83,36.83,0,0,0,16.72,63L19.15,48s4.15-2.56,2.22-9.34C20.16,34.39,11.4,36,11.4,36Z"/><path class="cls-4" d="M18.89,41.64c4.87-1.47,5.84-3.48,5.84-3.48l-.4-1.31s-4.66,3.25-7.93,3.74a19.7,19.7,0,0,1-6.59-.33l-.35,1.83A25.11,25.11,0,0,0,18.89,41.64Z"/><path class="cls-7" d="M6.52,18.69c2.12-4,8.28-6.72,12.63-6a10.16,10.16,0,0,1,3.71,4.88,12.88,12.88,0,0,1,.61,5.86,40.28,40.28,0,0,0,.86,13.41,15.86,15.86,0,0,1-8.91,4.37c-1.86.28-3.19-.45-5-1.16a.61.61,0,0,1-.4-.56c-.5-4.6-2-8.49-3.47-12.82C5.79,24.36,5.31,21,6.52,18.69Z"/><path class="cls-6" d="M14.76,41.54c-2.57.23-4.37-.79-6.52-1.75a15.8,15.8,0,0,1,1.25-3.7s3.74.84,4.39-3.42a60.54,60.54,0,0,0,.83-7.8,21,21,0,0,0-2.35-5.6,26.88,26.88,0,0,0-2.75-3.92l1-.7a24.13,24.13,0,0,1,2.45,2.75,49.23,49.23,0,0,1,3.41,5.4l5.9-3a11.85,11.85,0,0,0-1.07-3.7,22.38,22.38,0,0,0-2.18-3.38l.14-1.2A5.66,5.66,0,0,1,21.76,14a22.93,22.93,0,0,1,2.33,9.17,72.3,72.3,0,0,0,.71,9.74c.18,1.09.32,2.12.47,3.17C23,39.18,18.79,41.18,14.76,41.54Z"/><path class="cls-1" d="M18,10.17s-.49,2.76.51,3.75a2.1,2.1,0,0,1-1.1,3.57c-2.48.74-4.18-1.08-5.69-2.34.7-1.39,1-1.37,1.12-5.32C12.87,6.62,18,10.17,18,10.17Z"/><path class="cls-8" d="M8.61,24.58s-.75,4.11-1.23,6.14A19.28,19.28,0,0,1,6,34.52L11.88,41,8.69,42.59S3.18,39.84,1.8,39.1s-2.15-2-1.64-4.48a86.57,86.57,0,0,1,3.28-9.19Z"/><path class="cls-3" d="M8.48,30C6,30.08,4,28.56,2.09,27.17c.89-2.1,1.85-4.23,2-5.72.24-3.48,4.07-4.86,4.07-4.86s3.26,1.62,2.69,9C10.28,27.67,8.49,29.66,8.48,30Z"/><path class="cls-8" d="M13.65,3.24c1.57-1.66,5.61-2.25,7,.26,1,1.89,1,5.2.67,6.72-.7,3.18-3.37,5-6.33,2.49S11,6.09,13.65,3.24Z"/><path class="cls-5" d="M10.29,5.27c.27-1.08,1.72-2.47,3-2.17A2.51,2.51,0,0,1,15,.18c2.66-.72,5,1,7.54,1.59.72.17.9.57-.36,1.31.68.07,1.31.47,1.2,1.24a1.06,1.06,0,0,1-.92.9c.68,1-.35,1.87-1.31,2.23a5.78,5.78,0,0,1-5.22-.55c-.36,1.48-1.74,3.36-3.11,3.71C11.43,9.59,9.89,6.82,10.29,5.27Z"/><path class="cls-8" d="M15.1,9s-.85-1.36-1.66-.36.77,2,.77,2Z"/><polygon class="cls-9" points="113.02 66.43 81.58 84.59 11.71 44.25 43.15 26.09 113.02 66.43"/><polygon class="cls-10" points="113.02 66.43 81.58 84.59 81.58 112.18 113.02 94.03 113.02 66.43"/><polygon class="cls-11" points="11.71 44.25 11.71 71.84 81.58 112.18 81.58 84.59 11.71 44.25"/><path class="cls-10" d="M45.72,56.29,86,79.54,106,68c1.34-.77,1.17-2.12-.37-3L45.72,30.41a5.84,5.84,0,0,0-5.23-.22L18.87,42.68c-1.34.77-1.17,2.12.38,3L38.86,57l1.63-.94A5.81,5.81,0,0,1,45.72,56.29Z"/><path class="cls-11" d="M84.36,80.49,86,79.54,45.72,56.29a5.81,5.81,0,0,0-5.23-.22L38.86,57,79.14,80.27A5.82,5.82,0,0,0,84.36,80.49Z"/><polygon class="cls-12" points="113.02 87.86 81.58 106.02 81.58 112.18 113.02 94.03 113.02 87.86"/><polygon class="cls-5" points="11.71 71.84 11.71 65.67 81.58 106.02 81.58 112.18 11.71 71.84"/><path class="cls-11" d="M31.37,41a3.73,3.73,0,0,1-1.55,3c-.86.5-1.56,0-1.56-1.17a3.71,3.71,0,0,1,1.56-3C30.67,39.32,31.37,39.85,31.37,41Z"/><path class="cls-3" d="M116.33,54.08a11.18,11.18,0,0,1,3.51,4.28,7.07,7.07,0,0,1,.26,4.21,5.88,5.88,0,0,1-2,2.82l-6-6.59-1.24-2.1Z"/><path class="cls-13" d="M105,81.87c-.42-.83,2.33-1.52,2.33-1.52l.71,1.94S105.8,83.46,105,81.87Z"/><path class="cls-8" d="M101,70.29c-.61.94-6.33,6.21-6.9,6.76a13.31,13.31,0,0,0,.74,3.8,11,11,0,0,0,6-3.37,36.62,36.62,0,0,1,3.93-4S102.39,68.09,101,70.29Z"/><path class="cls-5" d="M120,120.4a20.33,20.33,0,0,0,1.46,3.49,1.93,1.93,0,0,1-1.25,3c-1.23.41-3,.14-5.81-1.38s-4.12-3-4.23-4,1.35-2.42,3.82-1.64a31.7,31.7,0,0,1,3.73,1.36Z"/><path class="cls-5" d="M113.72,127.29a21,21,0,0,0,1.45,3.49,1.92,1.92,0,0,1-1.24,2.95c-1.23.41-3,.14-5.81-1.38s-4.12-3-4.23-4,1.35-2.42,3.82-1.64a33.24,33.24,0,0,1,3.73,1.35Z"/><path class="cls-13" d="M115.19,121.32c.86.91,4.52,1.89,5.43.92a3.48,3.48,0,0,0-.58-4.5c-.3-2.53.4-3.65-.44-6.81a39.35,39.35,0,0,0-2.57-6.1c1.53-2.39,7.26-8.52,5.35-13.11,2.08-4.41,1.64-7.65-1.89-10.15-.24-.17-1.43.29-1.27.48l.1.12A24.66,24.66,0,0,0,115,83.88a13.72,13.72,0,0,0-3.35,1.58c-1.7,1.49-.53,5.49-.31,7.39.42,3.76-2,10.63-.23,14-.35.7,2,8.77,4.15,12.62C114.28,119.91,114.91,121,115.19,121.32Z"/><path class="cls-14" d="M102.81,105.84c.11-2.16,1.19-10.6,1.53-12.83.29-1.85.93-6.32,1.71-8-.43-.24,4.09,1.33,5.66,1,1.33-.27,5.18-4.38,5.2-4.23,3.48,4.15,3.69,9.87,0,12.48,0,0-2.07,9.39-7.86,14.77.69,1.79,2.16,2.66,3.1,5.85,1.07,3.63,2.26,9.12,1.57,11.74a4.09,4.09,0,0,1,.69,1.78c.36,2.11-3.71,1.89-5.14,1.61a1.67,1.67,0,0,1-1-2.41,98.18,98.18,0,0,1-4.49-10.83c-.71-2.21-1.87-5.8-1-8.11A1.85,1.85,0,0,1,102.81,105.84Z"/><path class="cls-8" d="M105.77,48.62a4.46,4.46,0,0,1,4.86-.38,4,4,0,0,1,2.44,3,11.6,11.6,0,0,1,0,2.63,17.64,17.64,0,0,1-2.47,4.27,3.25,3.25,0,0,1-3.8,1.43c-2.18-.65-2.27-3.5-2.6-5.42C103.81,52,104,50.11,105.77,48.62Z"/><path class="cls-7" d="M109.49,60.25c4.24-2.06,5.56-4.23,8.49-1.65,1.82,1.6,2.13,8.14,1.88,10.85s.19,7.65.77,8.88c.65,1.4,1.52,2.08,1,3.09.94.39-14.94,5.07-15.08,1.65-.06-1.36-3.08-10.82-3.31-15S104.55,62.66,109.49,60.25Z"/><path class="cls-8" d="M112.12,52.7a25,25,0,0,0,.59,3.52,6.49,6.49,0,0,0,1.8,2.68,2,2,0,0,1-.94,3.16c-2.36,1-5.17-1.07-5.17-1.07a11,11,0,0,0-.92-3.53C106.82,55.83,112.12,52.7,112.12,52.7Z"/><path class="cls-5" d="M104.6,48.07a2,2,0,0,1,3.48-1.17c.92-2.09,4.92-1,6,.66,3.35,5.14-.69,8.45-.94,10.8-1-.22-2.94-.09-4.18-.67-1.45-.67-3.53-2.76-3.74-4.14a1.38,1.38,0,0,1-1.36-1.76C102.32,51.23,102.41,48.61,104.6,48.07Z"/><path class="cls-8" d="M108.47,55.12a1.91,1.91,0,0,1-1.16,2.51l-1.26-1.91S107.66,53.08,108.47,55.12Z"/><path class="cls-14" d="M115.9,81.78s-2.83,2.9-5.5,3.12a14.35,14.35,0,0,1-3.69,0,10.29,10.29,0,0,1,3.76-1.71C112.48,82.8,115.9,81.78,115.9,81.78Z"/><path class="cls-13" d="M119.84,84.45s-1.48,2.43-6.41,3a12.81,12.81,0,0,1-7.82-1.19l.2-1.63s5.94,1.4,9.28,0a44.32,44.32,0,0,1,4.41-1.63Z"/><path class="cls-14" d="M120.67,67.77l1.3,4.38a63.25,63.25,0,0,1-.21,6.38c.26.62.68.74.21,1.46,1,0,.64,1,.18,1.76A9,9,0,0,1,118.27,85c-1.56.82-6.66,2.07-8.62,1.58s-4.37-1-4.2-2a6.32,6.32,0,0,0,.15-1.25l-.6-1.44a6.07,6.07,0,0,0,4.65-.35c1.54-.74,4.37-4.27,3.61-10.08A37.34,37.34,0,0,0,120.67,67.77Z"/><path class="cls-14" d="M114.92,72c-.16-.1-1-4.3-2.56-7.25-1.23-2.38-3.46-4-4.32-3.82a2.12,2.12,0,0,0-1.54.82A7.06,7.06,0,0,1,110.13,64c1.37,1.71,3.21,7.44,3.23,8.55S114.92,72,114.92,72Z"/><path class="cls-14" d="M115.22,58.85c.37.32,1.22.82,2.33,3.42.72,1.67,2.21,6.87,2.21,6.87l1.08-.75a52.5,52.5,0,0,0-2-6.32c-1.08-2.52-2-3.38-2.7-3.83a1.59,1.59,0,0,0-2.09.16C114.11,58.66,115.22,58.85,115.22,58.85Z"/><path class="cls-13" d="M114.25,84.49a7.28,7.28,0,0,1-3.13.84,8.07,8.07,0,0,1-2.9-.79,13.52,13.52,0,0,1,2.7-.13A29.85,29.85,0,0,0,114.25,84.49Z"/><path class="cls-3" d="M102.72,77.8a9.76,9.76,0,0,1-3.39-3.68,7.72,7.72,0,0,1-.56-2.57c1.73-2.87,4-6.89,4.57-7.32,3-2.44,3.89-.83,4.9.89a11,11,0,0,1,.71,7.27c-.73,2.84-3.12,3.21-5,4.23C103.73,77.81,102.9,78.07,102.72,77.8Z"/><path class="cls-3" d="M114.79,58.22c.9.32,2,2.14-.09,3.82s-4.4.27-5.27-.17a7.53,7.53,0,0,0-2-.58s.4-1.31,2.51-1.3c1.28,0,3.2-.36,3.76-1.14S114.28,58,114.79,58.22Z"/><path class="cls-13" d="M113.24,50.22a17.38,17.38,0,0,0,4,3.85c2.2,1.43-.45,3.94-2.4,3.86a6.11,6.11,0,0,1-5.16-3,8.46,8.46,0,0,0-2-2.25Z"/><path class="cls-14" d="M104.26,48.4c.32-3.55,5.39-5.55,9.27-2.81,2.12,1.5,3.28,4.68,1.22,8.07C114.29,55,105.1,54.58,104.26,48.4Z"/><path class="cls-13" d="M111.24,45.18c-.13.27.18.7.69.94s1,.22,1.17-.06-.18-.7-.69-.94S111.38,44.9,111.24,45.18Z"/><path class="cls-8" d="M95,76.35s-4.41,2.13-6.77,3a8.82,8.82,0,0,1-3.24.85c-1.14-.14-1.51.3-2.33.22s-1.38.44-1,.59a10.7,10.7,0,0,0,1.78.27l-.47.79A13.36,13.36,0,0,1,80.44,85c-1.24.86-.67,1.21-.22,1l1-.61s-.18,1.32.76,1A7.75,7.75,0,0,0,85.4,84c.68-1,1-1.45,1-1.49a6.71,6.71,0,0,1,1.83-.28,26.79,26.79,0,0,0,5.89-.82,9.09,9.09,0,0,0,2.78-1.34,22.26,22.26,0,0,0,1.83-2.19Z"/><path class="cls-8" d="M95,76.35s-4.41,2.13-6.77,3a8.82,8.82,0,0,1-3.24.85c-1.14-.14-1.51.3-2.33.22s-1.38.44-1,.59a10.7,10.7,0,0,0,1.78.27l-.47.79A13.36,13.36,0,0,1,80.44,85c-1.24.86-.67,1.21-.22,1l1-.61s-.18,1.32.76,1A7.75,7.75,0,0,0,85.4,84c.68-1,1-1.45,1-1.49a6.71,6.71,0,0,1,1.83-.28,26.79,26.79,0,0,0,5.89-.82,9.09,9.09,0,0,0,2.78-1.34,22.26,22.26,0,0,0,1.83-2.19Z"/><path class="cls-2" d="M89.15,80.57c-.19-.45-.36-.91-.52-1.36l-.36.13a8.82,8.82,0,0,1-3.24.85c-1.14-.14-1.51.3-2.33.22s-1.38.44-1,.59a10.7,10.7,0,0,0,1.78.27l-.47.79A13.36,13.36,0,0,1,80.44,85c-1.24.86-.67,1.21-.22,1l1-.61s-.18,1.32.76,1A7.75,7.75,0,0,0,85.4,84c.68-1,1-1.45,1-1.49a6.71,6.71,0,0,1,1.83-.28c.5,0,1.07-.05,1.66-.11A14.33,14.33,0,0,1,89.15,80.57Z"/><path class="cls-13" d="M41.86,71.67c.4-.8-2.23-1.46-2.23-1.46L39,72.07S41.09,73.18,41.86,71.67Z"/><path class="cls-3" d="M32.72,47.5a4.62,4.62,0,0,0-5,2.69c-1.1,2.29-1.05,5.37-.11,6.85s5.75,3.69,7.37,4.38a19,19,0,0,1,2.35,1.16,13.94,13.94,0,0,0,4.57-2A11.48,11.48,0,0,0,44,57.51a4.67,4.67,0,0,0-2-3c-1.65.46-4.11,3.11-4.11,3.11s-2.31-2.7-2.21-4.27S34.48,47.87,32.72,47.5Z"/><path class="cls-5" d="M34.24,115a20.39,20.39,0,0,1-1.4,3.33A1.85,1.85,0,0,0,34,121.11c1.18.39,2.82.13,5.57-1.33s3.94-2.9,4-3.84-1.29-2.31-3.66-1.57a32.72,32.72,0,0,0-3.57,1.3Z"/><path class="cls-5" d="M20.78,110.16a28.13,28.13,0,0,0-2.84,2.93c0,.38.46,1.5,1.8,3.88s3.71,3.62,5.66,2.35S28.67,116,27,115.46a4.84,4.84,0,0,0-3,0s-.54-1.3-1.14-2.71A7.87,7.87,0,0,0,20.78,110.16Z"/><path class="cls-12" d="M17.94,113.09a3.29,3.29,0,0,1,2.78,2.37,10.18,10.18,0,0,0,2.42,4.31c-1.92-.23-2.52-.9-3.72-3.15C18.41,114.71,17.4,113.45,17.94,113.09Z"/><path class="cls-13" d="M35.53,75.1a13,13,0,0,0-3.2-1.51A23.6,23.6,0,0,0,28.16,72l.09-.12c.15-.18-1-.62-1.21-.45-3.38,2.39-3.8,5.49-1.81,9.71-1.83,4.39,0,12.82,1.5,15.1a11,11,0,0,0-3.59,4c-1.48,3.56-1.65,6.94-3.38,9.52-.45.67-.37,1.2,0,1.48.35-.33,1.41-.2,2.35.93a5.62,5.62,0,0,1,1.26,1.85c2.2-.83,4.59-6.13,6.89-9.63,1.58-2.39,2.29-3.78,2.29-5.61a1.47,1.47,0,0,0,.94-2.25c1.66-3.21,2-10.67,2.37-14.26C36,80.35,37.16,76.53,35.53,75.1Z"/><path class="cls-14" d="M44,94.6c-.1-2.07-1.13-10.14-1.47-12.28-.27-1.77-.88-6-1.63-7.67.41-.23-3.91,1.27-5.41,1-1.27-.25-5-4.18-5-4-3.33,4-3.53,9.44,0,11.93,0,0,2,9,7.52,14.13-.66,1.72-2.06,2.55-3,5.61-1,3.46-2.15,8.72-1.5,11.22a3.86,3.86,0,0,0-.65,1.71c-.35,2,3.54,1.8,4.91,1.53a1.59,1.59,0,0,0,1-2.3A94.46,94.46,0,0,0,43,105.05c.67-2.11,1.78-5.54.91-7.75A1.78,1.78,0,0,0,44,94.6Z"/><path class="cls-8" d="M41.12,39.85a4.24,4.24,0,0,0-4.65-.35,3.78,3.78,0,0,0-2.34,2.89,11.84,11.84,0,0,0,0,2.52A17.11,17.11,0,0,0,36.51,49a3.12,3.12,0,0,0,3.64,1.37c2.09-.62,2.17-3.35,2.49-5.18C43,43.08,42.85,41.28,41.12,39.85Z"/><path class="cls-7" d="M37.56,51c-4.05-2-5.32-4.05-8.12-1.59-1.74,1.54-2,7.79-1.8,10.39s-.18,7.31-.73,8.48c-.63,1.35-1.46,2-.92,3-.89.37,14.3,4.85,14.43,1.57.06-1.3,2.94-10.35,3.16-14.38S42.28,53.29,37.56,51Z"/><path class="cls-8" d="M35.05,43.75a23.17,23.17,0,0,1-.57,3.37,6.26,6.26,0,0,1-1.73,2.57,2,2,0,0,0,.9,3c2.27,1,5-1,5-1a10.22,10.22,0,0,1,.88-3.38C40.11,46.76,35.05,43.75,35.05,43.75Z"/><path class="cls-5" d="M33.82,39a5,5,0,0,0-1.45,3.74c.09,2.11,1.07,4,1.7,6.76a7,7,0,0,0,4.2-2.21,10.59,10.59,0,0,0,2.08-1.86,2.67,2.67,0,0,0,2.71-1.84,5.3,5.3,0,0,0,2.43-3.51C40.42,35.29,35.7,37.14,33.82,39Z"/><path class="cls-8" d="M38.59,45.48a1.83,1.83,0,0,0,1.1,2.41l1.21-1.83S39.36,43.53,38.59,45.48Z"/><path class="cls-14" d="M31.43,71.58s2.71,2.77,5.26,3a13.54,13.54,0,0,0,3.53,0,9.72,9.72,0,0,0-3.59-1.64C34.7,72.55,31.43,71.58,31.43,71.58Z"/><path class="cls-13" d="M27.66,74.14s1.42,2.31,6.13,2.89a12.27,12.27,0,0,0,7.49-1.15l-.2-1.56s-5.68,1.34-8.87.05A44.14,44.14,0,0,0,28,72.81Z"/><path class="cls-14" d="M26.86,58.17l-1.24,4.2s0,4.57.2,6.1c-.24.59-.64.71-.2,1.4-.92,0-.61.95-.17,1.68a8.47,8.47,0,0,0,3.71,3.07c1.49.79,6.38,2,8.25,1.52s4.18-1,4-1.91A6,6,0,0,1,41.28,73l.58-1.37a5.82,5.82,0,0,1-4.45-.34c-1.48-.71-4.18-4.09-3.45-9.65A35.48,35.48,0,0,1,26.86,58.17Z"/><path class="cls-14" d="M32.36,62.26c.16-.09,1-4.11,2.46-6.94C36,53,38.12,51.53,39,51.67a2,2,0,0,1,1.47.78A6.74,6.74,0,0,0,37,54.55c-1.32,1.64-3.07,7.12-3.09,8.18S32.36,62.26,32.36,62.26Z"/><path class="cls-14" d="M32.08,49.65c-.36.3-1.17.77-2.23,3.26-.69,1.6-2.11,6.57-2.11,6.57l-1-.71a49.78,49.78,0,0,1,1.94-6.05c1-2.41,1.91-3.23,2.59-3.66a1.49,1.49,0,0,1,2,.16C33.14,49.46,32.08,49.65,32.08,49.65Z"/><path class="cls-13" d="M33,74.17a6.9,6.9,0,0,0,3,.8,7.63,7.63,0,0,0,2.78-.75,12.65,12.65,0,0,0-2.59-.12A29,29,0,0,1,33,74.17Z"/><path class="cls-3" d="M32.49,49c-.86.31-2,2.05.09,3.65s4.21.26,5-.15A7.13,7.13,0,0,1,39.54,52s-.38-1.25-2.4-1.23c-1.23,0-3.06-.35-3.6-1.1S33,48.86,32.49,49Z"/><path class="cls-8" d="M45.41,60.29c.61.93,6.33,6.21,6.9,6.75a13.22,13.22,0,0,1-.75,3.8,10.93,10.93,0,0,1-6-3.37,35.64,35.64,0,0,0-3.93-4S44,58.08,45.41,60.29Z"/><path class="cls-3" d="M43.65,67.79A9.59,9.59,0,0,0,47,64.11a7.21,7.21,0,0,0,.56-2.57c-1.72-2.87-4-6.88-4.57-7.32-3-2.44-3.88-.83-4.9.9a10.94,10.94,0,0,0-.7,7.27c.73,2.83,3.11,3.2,5,4.22C42.64,67.8,43.46,68.07,43.65,67.79Z"/><path class="cls-8" d="M51.32,66.35s4.42,2.13,6.77,3a9.1,9.1,0,0,0,3.25.86c1.14-.15,1.51.3,2.33.22s1.38.43,1,.58a9.69,9.69,0,0,1-1.78.27l.46.8A14.1,14.1,0,0,0,65.93,75c1.24.86.66,1.22.22,1l-1-.6s.18,1.31-.75,1A7.84,7.84,0,0,1,61,74c-.67-1-1-1.46-1-1.5a7,7,0,0,0-1.82-.28,26.71,26.71,0,0,1-5.89-.82,8.65,8.65,0,0,1-2.78-1.34,20.89,20.89,0,0,1-1.83-2.19Z"/><path class="cls-2" d="M57.22,70.56c.19-.45.35-.9.52-1.36l.35.13a9.1,9.1,0,0,0,3.25.86c1.14-.15,1.51.3,2.33.22s1.38.43,1,.58a9.69,9.69,0,0,1-1.78.27l.46.8A14.1,14.1,0,0,0,65.93,75c1.24.86.66,1.22.22,1l-1-.6s.18,1.31-.75,1A7.84,7.84,0,0,1,61,74c-.67-1-1-1.46-1-1.5a7,7,0,0,0-1.82-.28c-.5,0-1.07,0-1.66-.1C56.74,71.63,57,71.08,57.22,70.56Z"/><path class="cls-2" d="M8,39.77c-.47.3-1,2-1,2a11,11,0,0,1,3.12,2.5c.56.88.86,2.39,1.26,3.17.93,1.81,3.52,2.48,3.65,2.25s-.35-.57-.35-.57a2.52,2.52,0,0,0,.91-.16c.22-.15-.23-1.07-1.3-2.5-.43-.57-.94-2.31-.63-2.69s.9-.17,1.84-.37c.63-.13,1.47-.46,1.23-.89s-1.43-.35-2.49-.57a7.93,7.93,0,0,1-2.56-1.24A16.11,16.11,0,0,1,10,39,4.15,4.15,0,0,0,8,39.77Z"/></g></g></svg>