<svg xmlns="http://www.w3.org/2000/svg" viewBox="0 0 73.13 140.54"><defs><style>.cls-1{fill:#b2603d;}.cls-2{fill:#c17249;}.cls-3{fill:#dd895f;}.cls-4{fill:#d8d8d8;}.cls-5{fill:#9b482c;}.cls-6{fill:#adadad;}.cls-7{fill:#c1c1c1;}.cls-13,.cls-8{fill:#efefef;}.cls-8{opacity:0.5;}.cls-9{fill:#f7ca11;}.cls-10{fill:#fce265;}.cls-11{fill:#f4b414;}.cls-12{fill:#f4af14;}.cls-14{fill:#373951;}.cls-15{fill:#ccc;}.cls-16{fill:#eaeaea;}.cls-17{fill:#ffb9a4;}.cls-18{fill:#80a8e8;}.cls-19{fill:#f66232;}.cls-20{fill:#9cbaf7;}.cls-21{fill:#f7f7f7;}.cls-22{fill:#ffc9b6;}</style></defs><title>Asset 12</title><g id="Layer_2" data-name="Layer 2"><g id="Layer_1-2" data-name="Layer 1"><polygon class="cls-1" points="6.33 140.54 0 137.06 0 35.86 6.33 39.34 6.33 140.54"/><polygon class="cls-2" points="68.44 104.68 6.33 140.54 6.33 39.34 68.44 3.48 68.44 104.68"/><polygon class="cls-3" points="0 35.86 6.33 39.34 68.44 3.48 62.11 0 0 35.86"/><path class="cls-1" d="M60.5,74.51,52.7,79c-.51.29-.93,0-.93-.7V76.09a2.22,2.22,0,0,1,.93-1.77l7.8-4.5c.51-.3.93,0,.93.7v2.21A2.24,2.24,0,0,1,60.5,74.51Z"/><path class="cls-1" d="M64,78.57l-7.79,4.5c-.52.3-.93,0-.93-.7V80.15a2.21,2.21,0,0,1,.93-1.77L64,73.88c.52-.3.93,0,.93.7V76.8A2.21,2.21,0,0,1,64,78.57Z"/><path class="cls-1" d="M33.68,32.86l-7.8,4.5c-.51.3-.92,0-.92-.7V34.44a2.23,2.23,0,0,1,.92-1.77l7.8-4.5c.51-.3.93,0,.93.7v2.22A2.24,2.24,0,0,1,33.68,32.86Z"/><path class="cls-1" d="M37.21,36.92l-7.8,4.51c-.51.29-.93,0-.93-.71V38.51a2.24,2.24,0,0,1,.93-1.78l7.8-4.5c.51-.29.92,0,.92.7v2.22A2.21,2.21,0,0,1,37.21,36.92Z"/><path class="cls-1" d="M56.81,70.6,49,75.1c-.51.3-.93,0-.93-.7V72.18A2.22,2.22,0,0,1,49,70.41l7.8-4.5c.51-.3.92,0,.92.7v2.22A2.23,2.23,0,0,1,56.81,70.6Z"/><path class="cls-1" d="M56.76,58.52,49,63c-.52.29-.93,0-.93-.7V60.1A2.19,2.19,0,0,1,49,58.33l7.79-4.5c.52-.3.93,0,.93.7v2.21A2.21,2.21,0,0,1,56.76,58.52Z"/><path class="cls-1" d="M60.29,62.58l-7.8,4.5c-.51.3-.93,0-.93-.7V64.16a2.24,2.24,0,0,1,.93-1.77l7.8-4.5c.51-.3.93,0,.93.7v2.22A2.22,2.22,0,0,1,60.29,62.58Z"/><path class="cls-1" d="M60.54,86.59l-7.8,4.5c-.51.29-.92,0-.92-.7V88.17a2.21,2.21,0,0,1,.92-1.77l7.8-4.5c.51-.3.93,0,.93.7v2.21A2.24,2.24,0,0,1,60.54,86.59Z"/><path class="cls-1" d="M47.31,111.9l-7.8,4.5c-.51.29-.93,0-.93-.7v-2.22a2.22,2.22,0,0,1,.93-1.77l7.8-4.51c.51-.29.93,0,.93.71v2.21A2.24,2.24,0,0,1,47.31,111.9Z"/><path class="cls-1" d="M55.41,95.23l-7.79,4.5c-.52.3-.93,0-.93-.7V96.82A2.21,2.21,0,0,1,47.62,95l7.79-4.5c.52-.29.93,0,.93.7v2.22A2.19,2.19,0,0,1,55.41,95.23Z"/><path class="cls-1" d="M50.18,92.59l-7.8,4.51c-.51.29-.93,0-.93-.71V94.18a2.21,2.21,0,0,1,.93-1.77l7.8-4.51c.51-.29.92,0,.92.7v2.22A2.21,2.21,0,0,1,50.18,92.59Z"/><path class="cls-1" d="M60.54,98.15l-7.8,4.5c-.51.29-.92,0-.92-.7V99.73A2.21,2.21,0,0,1,52.74,98l7.8-4.5c.51-.3.93,0,.93.7v2.21A2.24,2.24,0,0,1,60.54,98.15Z"/><path class="cls-1" d="M65.55,101.06l-7.8,4.5c-.51.3-.92,0-.92-.7v-2.22a2.23,2.23,0,0,1,.92-1.77l7.8-4.5c.51-.3.93,0,.93.7v2.22A2.24,2.24,0,0,1,65.55,101.06Z"/><path class="cls-1" d="M50.18,104.15l-7.8,4.51c-.51.29-.93,0-.93-.71v-2.21a2.24,2.24,0,0,1,.93-1.78l7.8-4.5c.51-.29.92,0,.92.7v2.22A2.21,2.21,0,0,1,50.18,104.15Z"/><path class="cls-1" d="M24.68,73.86l-7.79,4.5c-.52.3-.93,0-.93-.7V75.45a2.21,2.21,0,0,1,.93-1.78l7.79-4.5c.52-.29.93,0,.93.7v2.22A2.19,2.19,0,0,1,24.68,73.86Z"/><path class="cls-1" d="M27.55,54.56l-7.79,4.5c-.52.3-.93,0-.93-.7V56.14a2.21,2.21,0,0,1,.93-1.77l7.79-4.5c.52-.3.93,0,.93.7v2.22A2.19,2.19,0,0,1,27.55,54.56Z"/><path class="cls-1" d="M51.52,56l-7.79,4.51c-.51.29-.93,0-.93-.71V57.63a2.21,2.21,0,0,1,.93-1.77l7.79-4.51c.52-.29.93,0,.93.7v2.22A2.19,2.19,0,0,1,51.52,56Z"/><path class="cls-1" d="M27.55,66.12l-7.79,4.5c-.52.3-.93,0-.93-.7V67.7a2.21,2.21,0,0,1,.93-1.77l7.79-4.5c.52-.3.93,0,.93.7v2.22A2.19,2.19,0,0,1,27.55,66.12Z"/><path class="cls-1" d="M32.93,87.23l-7.8,4.51c-.51.29-.92,0-.92-.71V88.82A2.23,2.23,0,0,1,25.13,87l7.8-4.5c.51-.29.93,0,.93.7v2.22A2.22,2.22,0,0,1,32.93,87.23Z"/><path class="cls-1" d="M35.8,67.93,28,72.43c-.51.3-.92,0-.92-.7V69.52A2.23,2.23,0,0,1,28,67.74l7.8-4.5c.51-.29.93,0,.93.7v2.22A2.22,2.22,0,0,1,35.8,67.93Z"/><path class="cls-1" d="M63.74,34.15l-7.8,4.5c-.51.29-.93,0-.93-.7V35.73A2.22,2.22,0,0,1,55.94,34l7.8-4.51c.51-.29.93,0,.93.71v2.21A2.24,2.24,0,0,1,63.74,34.15Z"/><path class="cls-1" d="M35.8,79.49,28,84c-.51.3-.92,0-.92-.7V81.08A2.23,2.23,0,0,1,28,79.3l7.8-4.5c.51-.29.93,0,.93.7v2.22A2.22,2.22,0,0,1,35.8,79.49Z"/><path class="cls-1" d="M19.6,129.22l-7.8,4.51c-.51.29-.93,0-.93-.71v-2.21A2.24,2.24,0,0,1,11.8,129l7.8-4.5c.51-.29.93,0,.93.7v2.22A2.22,2.22,0,0,1,19.6,129.22Z"/><path class="cls-1" d="M23.28,120.87l-7.8,4.5c-.51.3-.93,0-.93-.7v-2.21a2.24,2.24,0,0,1,.93-1.78l7.8-4.5c.51-.29.93,0,.93.7v2.22A2.22,2.22,0,0,1,23.28,120.87Z"/><path class="cls-1" d="M19.6,116.2l-7.8,4.5c-.51.29-.93,0-.93-.7v-2.22A2.22,2.22,0,0,1,11.8,116l7.8-4.5c.51-.3.93,0,.93.7v2.21A2.24,2.24,0,0,1,19.6,116.2Z"/><path class="cls-1" d="M23.28,107.85l-7.8,4.5c-.51.29-.93,0-.93-.7v-2.22a2.22,2.22,0,0,1,.93-1.77l7.8-4.51c.51-.29.93,0,.93.71v2.21A2.24,2.24,0,0,1,23.28,107.85Z"/><path class="cls-1" d="M60.24,30.53,52.44,35c-.51.3-.93,0-.93-.7V32.11a2.24,2.24,0,0,1,.93-1.77l7.8-4.5c.51-.3.93,0,.93.7v2.22A2.24,2.24,0,0,1,60.24,30.53Z"/><path class="cls-1" d="M63.92,22.18l-7.8,4.5c-.51.3-.93,0-.93-.7V23.76A2.22,2.22,0,0,1,56.12,22l7.8-4.5c.51-.3.93,0,.93.7v2.22A2.24,2.24,0,0,1,63.92,22.18Z"/><path class="cls-1" d="M33.72,44.94l-7.79,4.5c-.52.3-.93,0-.93-.7V46.52a2.21,2.21,0,0,1,.93-1.77l7.79-4.5c.51-.3.93,0,.93.7v2.22A2.22,2.22,0,0,1,33.72,44.94Z"/><path class="cls-1" d="M22.59,51.34l-7.79,4.5c-.52.29-.93,0-.93-.7V52.92a2.19,2.19,0,0,1,.93-1.77l7.79-4.5c.52-.3.93,0,.93.7v2.21A2.21,2.21,0,0,1,22.59,51.34Z"/><polygon class="cls-4" points="49.62 81.28 21.95 97.25 21.95 43.78 49.62 27.8 49.62 81.28"/><polygon class="cls-5" points="24.5 45.25 47.07 32.22 47.07 79.8 24.5 92.84 24.5 45.25"/><polygon class="cls-6" points="47.07 38.54 24.5 51.57 24.5 48.96 47.02 35.95 47.07 38.54"/><polygon class="cls-6" points="47.07 74.31 24.5 87.34 24.5 84.73 47.02 71.72 47.07 74.31"/><path class="cls-7" d="M43,82.13l1.67-.92V58.42c0-2.79-1-5-2.64-5.92a4.9,4.9,0,0,0-5,.34l-3.31,1.91v1.93l4.14-2.39a4.35,4.35,0,0,1,2.13-.66,2.39,2.39,0,0,1,1.24.32c1.14.66,1.8,2.29,1.8,4.47Z"/><path class="cls-4" d="M28.1,42.85l-1.32.65-.29.15v48l3.44-2V41.86C29.32,42.19,28.73,42.55,28.1,42.85Z"/><path class="cls-8" d="M28.21,43.15V90.69l.86-.49V42.63C28.79,42.79,28.5,43,28.21,43.15Z"/><path class="cls-4" d="M36.53,37.88l-.11.06L36.3,38c-.42.27-.86.51-1.3.76-.63.36-1.21.83-1.83,1.21V87.83c.83-.35,3-1.72,3.44-2v-48Z"/><path class="cls-8" d="M34.89,39.21V86.84l.89-.5,0-47.63Z"/><path class="cls-9" d="M32.82,51.11v6.71H37V51.11s-.4,1-2.12,1A2.27,2.27,0,0,1,32.82,51.11Z"/><ellipse class="cls-9" cx="34.89" cy="57.82" rx="2.07" ry="1.15"/><path class="cls-10" d="M36.61,50.49v.56c0,.51-.79.92-1.71.92s-1.69-.41-1.72-.92h0v-.58a.84.84,0,0,0-.35.64c0,.63.93,1.14,2.07,1.14S37,51.74,37,51.11A.85.85,0,0,0,36.61,50.49Z"/><path class="cls-11" d="M39,53.09a7,7,0,0,1-2.89,5.53c-1.6.92-2.9-.06-2.9-2.19a6.93,6.93,0,0,1,2.9-5.53C37.7,50,39,51,39,53.09Z"/><polygon class="cls-11" points="38.93 51.25 37.94 50.72 34.22 58.77 35.34 59.36 38.93 51.25"/><path class="cls-10" d="M40,53.66a6.94,6.94,0,0,1-2.9,5.53c-1.59.92-2.89-.06-2.89-2.19a7,7,0,0,1,2.89-5.53C38.71,50.55,40,51.53,40,53.66Z"/><path class="cls-12" d="M38.47,51.74a2.13,2.13,0,0,1,.93,2,6,6,0,0,1-2.51,4.8,1.78,1.78,0,0,1-1.35.25,1.63,1.63,0,0,0,1.59-.15,6,6,0,0,0,2.51-4.8C39.64,52.69,39.17,51.93,38.47,51.74Z"/><path class="cls-13" d="M36.89,58.58a6,6,0,0,0,2.51-4.8,2.13,2.13,0,0,0-.93-2,1.74,1.74,0,0,0-1.34.24,6,6,0,0,0-2.52,4.8,2.16,2.16,0,0,0,.93,2A1.78,1.78,0,0,0,36.89,58.58Z"/><path class="cls-14" d="M37.51,54.85a1.22,1.22,0,0,1-.5,1c-.28.16-.5,0-.5-.38a1.17,1.17,0,0,1,.5-1C37.28,54.32,37.51,54.49,37.51,54.85Z"/><polygon class="cls-14" points="38.23 52.11 36.72 54.76 37.47 55.04 38.23 52.11"/><polygon class="cls-14" points="36.9 53.45 37.08 53.35 37.08 52.5 36.9 52.6 36.9 53.45"/><polygon class="cls-14" points="36.9 58.3 37.08 58.19 37.08 57.34 36.9 57.45 36.9 58.3"/><polygon class="cls-14" points="38.49 54.41 38.49 54.66 39.13 54.29 39.13 54.04 38.49 54.41"/><polygon class="cls-14" points="34.86 56.51 34.86 56.75 35.5 56.38 35.5 56.14 34.86 56.51"/><polygon class="cls-14" points="37.99 53.33 38.12 53.42 38.57 52.56 38.44 52.46 37.99 53.33"/><polygon class="cls-14" points="35.42 58.24 35.55 58.33 36 57.47 35.87 57.37 35.42 58.24"/><polygon class="cls-14" points="38.12 56.08 37.99 56.32 38.44 56.66 38.57 56.42 38.12 56.08"/><polygon class="cls-14" points="35.55 54.13 35.42 54.38 35.87 54.72 36 54.48 35.55 54.13"/><polygon class="cls-6" points="21.95 97.35 19.67 114.31 18.85 114.22 18.85 60.74 21.95 43.87 21.95 97.35"/><polygon class="cls-15" points="22.77 97.44 19.67 114.31 19.67 60.84 22.77 43.97 22.77 97.44"/><polygon class="cls-16" points="21.95 43.87 22.77 43.97 19.67 60.84 18.85 60.74 21.95 43.87"/><path class="cls-14" d="M49.68,125.25c.14,2.14.66,5.06-.18,5.09-1.45-.5-2.83-1.29-4.07-.54A2.58,2.58,0,0,0,44.34,133a7.07,7.07,0,0,0,2.4,2,17.8,17.8,0,0,0,4.38,1.31c1,.62,2.49,1.11,3.57.54s1.67-1.07,1.34-2.29c-.55-2.05-.29-2.17.43-5.59C56.86,127,49.57,123.51,49.68,125.25Z"/><path class="cls-14" d="M49,121.52c.57-1,2.43-1,4.77-.26S57,122.33,57,123s.34,2.55-2.58,2.35-5.06-1.8-5.25-2.47A4.76,4.76,0,0,1,49,121.52Z"/><path class="cls-16" d="M57,64.61a2.62,2.62,0,0,1,1.36-1.7h0A4.69,4.69,0,0,1,65.72,65c1,2.6-.1,5.28-1,7.85-.52,1.46.11,3.74-.84,5s-8.22-2.61-8.33-6.41A30.11,30.11,0,0,1,57,64.61Z"/><path class="cls-17" d="M56.69,58.24c.66,1.6,3.71,7.48,3.71,7.48L53.46,69.2A29.23,29.23,0,0,0,51.86,61C50.48,57.68,56.69,58.24,56.69,58.24Z"/><path class="cls-14" d="M72.31,124.26a24.66,24.66,0,0,0-.83-10.74,12.91,12.91,0,0,0-7,2c.54,1.94.74,2.48,1.08,3.89q.3,1.18.69,2.34c.39,1.17.29,1.2-.92,1.16-1.84-.05-3.54.3-3.55,2.36a5,5,0,0,0,1.66,2.24,5.76,5.76,0,0,0,5.27.57c.9.78,3,.1,4.25-1.06C73.41,126.6,72.76,124.73,72.31,124.26Z"/><path class="cls-18" d="M53,85.52c.45-1.18.67-1.58,1.92-1.64s2.61.18,3.93.07a21.09,21.09,0,0,0,5.53-1.4c.73-.28,1.88,3.43,2.09,5.25.3,2.52,0,3.44-.4,5.84,1,2.39,1.79,6.82.46,10.09a30.94,30.94,0,0,1,5.27,9c1.37,3.84,1.18,8.48,1.21,9.77.1,2.13-5.55,1.9-7.16,0-1.27-4.38-6.47-14.44-7.53-16.36-1.46-2.66-2.05-4.54-3.41-7.25-1.06-2.09-2.48-4.27-2.86-6.61A13.88,13.88,0,0,1,53,85.52Z"/><path class="cls-19" d="M49.68,68.37s-2.47-2.67-3.46-3.63-3-1.37-4.07-1.81-.95,0-.9.18.4.36.4.36-.91-.13-1,.31.38.39.38.39a.54.54,0,0,0-.24.57c.07.4,1.23.67,1.23.67s-1.19.25-.79.67a4.77,4.77,0,0,0,1.79.66,11,11,0,0,1,1.25,1.17c.73.77,2.64,2.1,3.44,1.79A9.29,9.29,0,0,0,49.68,68.37Z"/><path class="cls-20" d="M50.74,88.64c.71-1.3,10.89-2.34,10.76-2.28.5,2,3.35,7.52-.94,9.8-.14.89-3,11.12-4.87,14.56.43,2.21,1.14,2.88.3,5.77a17.44,17.44,0,0,1,1.08,5.35c.18,4.42-.58,9.75-1.15,10.5-1.27,1.7-6.31,1-6.42-2-.23-2.46-2.72-20.06-3.06-24.79C47.62,98.32,48.56,92.61,50.74,88.64Z"/><path class="cls-18" d="M63.8,88.28s-1.44,2.35-6.22,2.93-7.4-1.47-7.4-1.47l.56-1.1s5.21,1.19,8.45-.12a42.76,42.76,0,0,1,4.29-1.58Z"/><path class="cls-18" d="M49.4,85.77C49,85,51.66,84.3,51.66,84.3l.69,1.88S50.18,87.31,49.4,85.77Z"/><path class="cls-21" d="M49.58,68.24c1-.63,10.66-5.75,11.55-5.28,2.32,1.24,3.88,5.5,4.13,8.19.16,1.73-.05,9.84.11,11.27.21.35.74,1.23.12,1.71.79.8.22,1.22-.57,2.05s-5.87,3.58-8.2,3.58c-3.25,0-5.42-.05-6.26-.68-.59-.44-.3-1.36.23-1.81-.3-1.7-2.36-4.41-2.65-6-.59-3.26-1.52-5.58-1.69-8.91C46.22,69.73,47.69,69.43,49.58,68.24Z"/><path class="cls-16" d="M60.4,63.13s-.19.65-2,1.59a35.13,35.13,0,0,1-5.29,1.86v-.4A43.46,43.46,0,0,1,57,63.91c2-1,2.6-.88,2.6-.88Z"/><path class="cls-22" d="M49.34,56.34c.41-2,1.3-3.65,3.24-4.12a5.23,5.23,0,0,1,5.14,1.88c1.51,1.86,1.05,3.92-.28,5.74a9.08,9.08,0,0,1-2.81,2.46c-1.08.57-3.2,1.43-4.41-.28A7.64,7.64,0,0,1,49.34,56.34Z"/><path class="cls-14" d="M49.62,53.21c.68-.11.42-.74,1-1.1a7.45,7.45,0,0,1,4.87-.64c3.08.64,4.91,2.21,3.69,4.67.24,1.26-.8,4.5-.55,6.19a3.54,3.54,0,0,1-4.48-2.77c-1.26.22-3.59-2.19-3-3.3C48.92,56.79,48.82,53.35,49.62,53.21Z"/><path class="cls-22" d="M50.86,57.76s1-1.33,1.83.33c.71,1.37-1,1.87-1,1.87Z"/><path class="cls-18" d="M53.39,55.76s-2.28,2-5.9-.32-.43-4.89,2.08-4.57a7.41,7.41,0,0,1,3.82,1.5Z"/><path class="cls-20" d="M49.62,53.21c.29-3.2,4.88-5,8.39-2.54,1.92,1.36,3,4.24,1.1,7.31C58.69,59.21,50.38,58.8,49.62,53.21Z"/><path class="cls-18" d="M55.94,50.3c-.12.25.16.63.62.86s.93.19,1-.06-.16-.63-.62-.85S56.06,50.05,55.94,50.3Z"/><path class="cls-22" d="M43.69,70.68a1.87,1.87,0,0,1-.61,2.18c-.67.48-2.62,0-2.14-1.27-.49-.37-.07-.85.12-1.35-.2-.69.23-1.35.68-1.25C43,69.26,43.43,69.7,43.69,70.68Z"/><path class="cls-18" d="M54.65,111.39a3.7,3.7,0,0,1-2.25.56,2.38,2.38,0,0,1-1.54-.81,8.44,8.44,0,0,1,1.89,0C53.48,111.26,54.65,111.39,54.65,111.39Z"/><path class="cls-18" d="M54.22,110.37a10.33,10.33,0,0,0-2.3-1.28c-.72-.17-1.28-.27-1.28-.27a11.85,11.85,0,0,0,1.6,1.07A7.56,7.56,0,0,0,54.22,110.37Z"/><path class="cls-20" d="M64.61,72.09l1.26,4.25s0,4.64-.2,6.19c.24.6.65.72.2,1.42.94,0,.62,1,.17,1.71a8.56,8.56,0,0,1-3.76,3.11c-1.51.8-6.47,2-8.37,1.54s-4.24-1-4.07-1.93A5.23,5.23,0,0,0,50,87.17l-.58-1.4a5.91,5.91,0,0,0,4.51-.34c1.5-.72,4.24-4.15,3.51-9.78A36.6,36.6,0,0,0,64.61,72.09Z"/><path class="cls-20" d="M59,76.24c-.16-.1-1-4.18-2.49-7C55.35,66.88,54,65.85,53.13,66a1.84,1.84,0,0,0-1.47,1.1,2.84,2.84,0,0,1,2.72,1.32c1.33,1.66,3.12,7.22,3.13,8.3S59,76.24,59,76.24Z"/><path class="cls-20" d="M59.2,63.39a7,7,0,0,1,2.38,3.36c.7,1.62,2.14,6.67,2.14,6.67l1-.73a51.42,51.42,0,0,0-2-6.13c-1-2.45-1.94-3.28-2.63-3.72a1.23,1.23,0,0,0-1.2.09A2.84,2.84,0,0,0,59.2,63.39Z"/><path class="cls-18" d="M58.38,88.32a7,7,0,0,1-3,.8,7.65,7.65,0,0,1-2.81-.76,12.94,12.94,0,0,1,2.62-.12A30.64,30.64,0,0,0,58.38,88.32Z"/><path class="cls-22" d="M47,70.49a59.19,59.19,0,0,0-7-2.08,6.84,6.84,0,0,0-1.67-2.71,15.28,15.28,0,0,1-1.54-2.65,3.76,3.76,0,0,0-2.44.92,12.08,12.08,0,0,0,.54,3.68C36,70.52,36,71.11,37,72.05c.15.58,0,.66,1,1a16.06,16.06,0,0,0,5.69,2.75A32.51,32.51,0,0,1,48.55,78L49.16,72A6.64,6.64,0,0,0,47,70.49Z"/><path class="cls-16" d="M44.22,68.45c1.11.1,2,.28,2.22.76,1.78-.89,3.72-1.4,5.22,0,2.3,2.12,2.87,7.72.27,10.06-1.72,1.54-3.15,1.13-5.17-1.17-.79-.32-1.74-1.23-3.48-2A5.76,5.76,0,0,1,44.22,68.45Z"/><path class="cls-22" d="M36.16,65.42a7.84,7.84,0,0,0,.63-2.37c0-1-.32-4.65-.31-5.48s-.68-.44-.72.2.12,1.56-.24,1.72-1.68-.57-1.72-1.92a2.65,2.65,0,0,0-1.28-2.36c-.32,0,0,.76,0,.76s-.24.1-.36.61a3.82,3.82,0,0,0,0,1.23A5.48,5.48,0,0,0,31.6,60c0,1,2,3.18,2.75,4.34A2.24,2.24,0,0,0,36.16,65.42Z"/><path class="cls-19" d="M37.61,64.62s-.56-1-.82-1.57c0-1-.32-4.65-.31-5.48s-.68-.44-.72.2.12,1.56-.24,1.72-1.68-.57-1.72-1.92a2.65,2.65,0,0,0-1.28-2.36c-.32,0,0,.76,0,.76s-.24.1-.36.61a3.82,3.82,0,0,0,0,1.23A5.48,5.48,0,0,0,31.6,60c0,1,2,3.18,2.75,4.34a9.68,9.68,0,0,0,.14,1.62A4.25,4.25,0,0,1,37.61,64.62Z"/></g></g></svg>