<svg xmlns="http://www.w3.org/2000/svg" viewBox="0 0 66.6 88.59"><defs><style>.cls-1{fill:#ccc;}.cls-2{fill:#d6d6d6;}.cls-3{fill:#373951;}.cls-4{fill:#c1c1c1;}.cls-5{fill:#eaeaea;}.cls-6{fill:#d7e3ff;}.cls-7{fill:#e0e0e0;}.cls-8{fill:#ea4e24;}.cls-9{fill:#ff6f48;}.cls-10{fill:#f66232;}.cls-11{fill:#d39c66;}.cls-12{fill:#e5b177;}.cls-13{fill:#ffc9b6;}.cls-14{fill:#80a8e8;}.cls-15{fill:#291d56;}.cls-16{fill:#9cbaf7;}.cls-17{fill:#f7f7f7;}.cls-18{fill:#ffb30b;}</style></defs><title>Asset 10</title><g id="Layer_2" data-name="Layer 2"><g id="Layer_1-2" data-name="Layer 1"><path class="cls-1" d="M11.41,73.54H7.78V57.91a4.58,4.58,0,0,1,2-4.16,3.85,3.85,0,0,1,3.91.17l3.69,2.13a1.24,1.24,0,0,0,.29.13,2.09,2.09,0,0,0,.18-1V33.86h3.63V55.21a4.58,4.58,0,0,1-2,4.16,3.85,3.85,0,0,1-3.91-.17l-3.68-2.13a1.91,1.91,0,0,0-.29-.13,1.93,1.93,0,0,0-.19,1Z"/><path class="cls-2" d="M15.41,42H24a0,0,0,0,1,0,0v17.4a4.05,4.05,0,0,1-4.05,4.05h-.45a4.05,4.05,0,0,1-4.05-4.05V42A0,0,0,0,1,15.41,42Z"/><ellipse class="cls-3" cx="19.69" cy="42.14" rx="4.28" ry="2.42"/><path class="cls-1" d="M10.7,72.71c.81.35,1,1,.37,1.46a2.86,2.86,0,0,1-2.58.2c-.81-.34-1-1-.36-1.45A2.87,2.87,0,0,1,10.7,72.71Z"/><rect class="cls-4" x="5.69" y="31.43" width="7.01" height="9.68"/><polygon class="cls-4" points="39.94 37.29 39.94 28.27 33.33 28.27 31.79 36.55 39.94 37.29"/><path class="cls-4" d="M39.57,37.88l-19,10.95a2.44,2.44,0,0,1-2.18-.09L6.2,41.68c-.64-.38-.71-.94-.16-1.26l19-11a2.42,2.42,0,0,1,2.17.09l12.23,7.06C40.06,37,40.13,37.56,39.57,37.88Z"/><path class="cls-2" d="M41.8,31.72l-20,11.58a4.89,4.89,0,0,1-4.41-.19L1.08,33.72C-.23,33-.37,31.83.76,31.18L20.82,19.6a4.9,4.9,0,0,1,4.4.18l16.27,9.39C42.79,29.93,42.93,31.06,41.8,31.72Z"/><rect class="cls-2" y="31.08" width="0.92" height="1.29"/><rect class="cls-2" x="41.13" y="29.41" width="1.44" height="1.21"/><path class="cls-5" d="M41.8,30.57l-20,11.58A4.92,4.92,0,0,1,17.34,42L1.08,32.58C-.23,31.82-.37,30.68.76,30L20.82,18.45a4.87,4.87,0,0,1,4.4.19L41.49,28C42.79,28.78,42.93,29.92,41.8,30.57Z"/><path class="cls-4" d="M27.18,28.44l7.47,4.31,4.92-2.84c.56-.32.49-.88-.16-1.26L27.18,21.59A2.42,2.42,0,0,0,25,21.5l-19,11c-.55.32-.48.89.16,1.26L11,36.46l14-8.11A2.42,2.42,0,0,1,27.18,28.44Z"/><path class="cls-2" d="M20.61,40.86l14-8.11-7.47-4.31A2.42,2.42,0,0,0,25,28.35L11,36.46l7.46,4.31A2.44,2.44,0,0,0,20.61,40.86Z"/><path class="cls-6" d="M30.73,26.41a10,10,0,0,0-3.13-1.7,6.53,6.53,0,0,0-4.21.4,33.09,33.09,0,0,0-4.1,2.41c-2.15,1.4-6.71,3.59-8,4.21a28.18,28.18,0,0,0-4,2.6L11,36.46l7.46,4.31a2.44,2.44,0,0,0,2.18.09l14-8.11,3.51-2.08c-.54-.51-1.81-.73-3.08-1.42A43.17,43.17,0,0,1,30.73,26.41Z"/><path class="cls-2" d="M15.1,24.25c.85.35,1,1,.38,1.51A3,3,0,0,1,12.8,26c-.84-.36-1-1-.38-1.52A3,3,0,0,1,15.1,24.25Z"/><path class="cls-2" d="M15.1,20.05c.85.36,1,1,.38,1.51a3,3,0,0,1-2.68.22c-.84-.36-1-1-.38-1.52A3,3,0,0,1,15.1,20.05Z"/><polygon class="cls-2" points="12.04 20.86 12.04 25.11 15.86 25.11 15.86 20.74 12.04 20.86"/><path class="cls-7" d="M20.4,26.92,15.34,24l-1.1-.73,1.1-.59,4.39,2.53a1.58,1.58,0,0,1,.67,1.27Z"/><polygon class="cls-7" points="20.39 27.61 19.29 28.21 19.2 27.15 18.63 25.81 20.39 26.46 20.39 27.61"/><path class="cls-1" d="M19.29,27.52l-5-2.92V23.27l4.39,2.54a1.6,1.6,0,0,1,.66,1.27Z"/><polygon class="cls-1" points="19.29 28.21 18.09 27.52 18.09 26.37 19.29 27.06 19.29 28.21"/><path class="cls-4" d="M17.89,23.81h0a2.6,2.6,0,0,1-2.33-.1l-3.52-2V21.3l2.16-.87,3.52,2C18.41,22.86,18.48,23.47,17.89,23.81Z"/><polygon class="cls-4" points="18.03 22.73 18.17 23.32 18.29 23.21 18.29 22.81 18.03 22.73"/><path class="cls-2" d="M17.89,23.43h0a2.6,2.6,0,0,1-2.33-.1L12,21.3l2.16-1.25,3.52,2C18.41,22.48,18.48,23.08,17.89,23.43Z"/><path class="cls-5" d="M15.86,20.84h0v-.5a1.91,1.91,0,1,0-3.82,0v.5h0c0,.33.25.65.75.87a3,3,0,0,0,2.68-.22A.81.81,0,0,0,15.86,20.84Z"/><polygon class="cls-8" points="22.86 31.09 22.44 30.9 22.69 30.16 23.17 30.34 22.86 31.09"/><polygon class="cls-8" points="30.67 32.82 30.47 33.5 29.93 33.18 30.06 32.56 30.67 32.82"/><path class="cls-8" d="M30.47,33.5c-.4,1.23-2.52,1.64-4.74.92S22,32.12,22.44,30.9,25,29.26,27.17,30,30.87,32.28,30.47,33.5Z"/><ellipse class="cls-9" cx="26.62" cy="31.66" rx="2.33" ry="4.22" transform="translate(-11.71 47.2) rotate(-72)"/><path class="cls-10" d="M30.39,32.63c-.81,2.49-8.18.09-7.37-2.4s3.11-4,5.15-3.3S31.19,30.14,30.39,32.63Z"/><path class="cls-10" d="M30.28,32.85C29.92,34,28,34.33,26,33.68s-3.36-2.1-3-3.21,2.29-1.49,4.31-.83S30.65,31.73,30.28,32.85Z"/><path class="cls-11" d="M28.63,27.65c-.05.16-.38.19-.73.08s-.59-.33-.54-.49.38-.19.73-.08S28.68,27.49,28.63,27.65Z"/><rect class="cls-11" x="30.15" y="9.63" width="1.33" height="18.26" transform="translate(7.3 -8.6) rotate(17.99)"/><path class="cls-12" d="M34.26,10.3c0,.16-.37.2-.72.08S33,10.05,33,9.89s.37-.19.72-.08S34.31,10.15,34.26,10.3Z"/><path class="cls-13" d="M47,10.82c-3.74,3.52-3.8,7.18-6.39,9.06-1.34-1.33-5.52-3.52-6.93-4.24s-3.19-1-1.71,1.85,4.71,5.31,7.22,7.29,4.21-.56,5.93-2.67S50.5,15.3,50.5,15.3Z"/><path class="cls-14" d="M58,33.09c.18.1,1.44.47,1.59,1.47s-1.38,1.49-2,.48S58,33.09,58,33.09Z"/><path class="cls-15" d="M37.91,70.14c-1.28.69-3,1.89-4.56,2.61-2.27,1-1.93,2.29-1.76,3.85.14,1.34,2.69,1.76,4.13,1.72s4.28-2.74,4.86-3c1,0,1.94.21,3-.86s-.07-3.47-.37-3.83C43.59,69.23,37.41,67,37.91,70.14Z"/><path class="cls-15" d="M62.17,73.76c.21.84,1.78,2.48,2.08,3.16.78.69,1.09.59,1.7,1.4.91,1.2.83,1.83,0,2.65a4.12,4.12,0,0,1-1.77,1s-1,3.7-1.59,4.33a7.26,7.26,0,0,1-5.5,2.23c-2.28.07-3.65-1.73-3.65-2.45a2.94,2.94,0,0,1,2-3.08,5.61,5.61,0,0,0,3-3.2,27.55,27.55,0,0,1-2.15-3.22C55.15,74.79,61.53,71.12,62.17,73.76Z"/><path class="cls-14" d="M35.53,47.69c.8-1.77,6.74-9.46,8.27-10.67,1-2.69.9-2.57,1.81-3.62a51.48,51.48,0,0,1,7.35,4c-.29,3.61-2.63,9.82-8.83,14.12-.35.81.89,2.49,1.06,5.66A57,57,0,0,1,43.7,70.51c-.18.76-5.33,2.08-6.23-.41C35.27,64,35,48.91,35.53,47.69Z"/><path class="cls-16" d="M48,43.24a10,10,0,0,1,.18-7.78c.1-.17,8.84-.32,8.83-.34-.21-.34,1.61.43,1.52.77,3.75,5.26,2.23,11.76-1.27,17.07.78.62,1,.34.28,1.59,1.54,1.73,1.68,6.61,2.94,10.52.31,1,.72,2.12,1,3.22.38,1.62,3.15,7.51,2.83,8.63-.85,3-3.15,3.79-5.91,2.93-1.74-.54-4.43-7.65-5.16-9.76-1.27-3.69-1.2-5.31-3.37-9.78-1.5-3.08-3.42-4.55-3.16-7.23C46.88,50.76,47.86,45.47,48,43.24Z"/><path class="cls-14" d="M59.05,35.72l.52,2s-2,2.58-7.63,1.67-5.9-3-5.9-3l1.12-1.95Z"/><path class="cls-17" d="M47.5,12.2c2.56-.14,4.16-.6,6.69.55,2.3,1,2.87,2.74,3.81,5.58.73,2.22.24,8.45.6,10.47.06.31.45,1.72.91,3.5a1.94,1.94,0,0,1-1,2.16l1,1a.58.58,0,0,1,0,1,9.66,9.66,0,0,1-14.2-2.93.61.61,0,0,1,.21-.82l.61-.26c-.64-.95-.89-2.3-1.58-3.23-1.26-1.7-1.44-4.47-1.87-6.51-2.14-2.21-1.26-6.5.25-9.14C43.64,12.2,45.69,12.29,47.5,12.2Z"/><path class="cls-5" d="M49.89,12a12.13,12.13,0,0,1-3.26,4c-2,1.43-3.76.65-3.6-.52a4,4,0,0,1,1.06-2A10.79,10.79,0,0,1,47.5,12.2C48.89,12.08,49.89,12,49.89,12Z"/><path class="cls-16" d="M44.8,12.75a6.4,6.4,0,0,0-2.08,3.66,12.07,12.07,0,0,0,.11,4.73c.39,1.28,0,1.73-.65,1.73s-1.64-2.72-1-7c.34-2.17,1.33-3.32,2.09-3.59A1.28,1.28,0,0,1,44.8,12.75Z"/><path class="cls-18" d="M55.27,35.4a9.34,9.34,0,0,1-5.08-.1,8.79,8.79,0,0,1-3-1.9s2,.67,3.57,1.05S55.27,35.4,55.27,35.4Z"/><path class="cls-5" d="M56.6,31.5A7.59,7.59,0,0,1,52,33.16a8.55,8.55,0,0,1-3.78-.78s2.31-.28,3.92-.35S56.6,31.5,56.6,31.5Z"/><path class="cls-16" d="M59.57,34.56A10.92,10.92,0,0,1,60,35.72c.15.53-.17.48-.71.83a7.9,7.9,0,0,1-4,2.23c-2.32.39-7.06-1.29-8.35-2.72-1.32-.67-2.4-.94-2.51-2.43A50.34,50.34,0,0,0,43,28.75a57.87,57.87,0,0,1-1.51-7.41,29.55,29.55,0,0,0,9.32-.75c.86,2.53,2.22,7,2.86,9s2.5,4.3,3.83,4.9A2.14,2.14,0,0,0,59.57,34.56Z"/><path class="cls-14" d="M49.45,22.87s.6,2.5.83,3.51,0,3.1-3,3.33-3.4-.85-3.75-2.28-.66-3.58-.66-3.58S47.85,23.15,49.45,22.87Z"/><path class="cls-16" d="M52.8,12.2a6.4,6.4,0,0,0-2.08,3.66,12.07,12.07,0,0,0,.11,4.73c.39,1.28,0,1.73-.65,1.73s-2-2.56-1.29-6.85a4.86,4.86,0,0,1,2.42-3.76A1.28,1.28,0,0,1,52.8,12.2Z"/><path class="cls-13" d="M43.2,14.31l1.52,1.55a7.44,7.44,0,0,0,4.17-3.78c-.57-.45-2-1.15-2.15-1.75.6-1.67-.3-3.07-1.85-4.57a5,5,0,0,0-6.31-.17,3.51,3.51,0,0,0-1.5,3c.19,1.77.83,4.26,2.62,5.43A4.23,4.23,0,0,0,43.2,14.31Z"/><path class="cls-3" d="M47.33,5.73A3.92,3.92,0,0,0,45,2.5c-1.64-.75-4.56-.86-5.87.62,0-.05,0-.1-.07-.14a1.08,1.08,0,0,0-1.56-.08,2.71,2.71,0,0,0-.84,1.17,1.24,1.24,0,0,0-.87,0c-1,.4-.92,1.74-.58,2.53.7,1.63,3.64,3.33,5.54,2.89-.1.95.69,1.52,1.45,2.14,1.18,1,3.62.57,5-.1,0-1.33,1.5-2,1.39-3.8A2.55,2.55,0,0,0,47.33,5.73Z"/><path class="cls-13" d="M39.69,10s.63-1.45,1.68-.75S41.16,12,41.16,12Z"/><path class="cls-14" d="M42.64,6.76s-2.44,2.17-6.31-.34-.46-5.23,2.22-4.89a7.92,7.92,0,0,1,4.09,1.6Z"/><path class="cls-16" d="M38.21,4c.3-3.43,5.21-5.36,8.95-2.72C49.22,2.68,50.33,5.76,48.34,9,47.89,10.36,39,9.92,38.21,4Z"/><path class="cls-14" d="M44.66.72c-.13.27.17.68.67.92s1,.21,1.12-.06S46.28.9,45.79.67,44.79.46,44.66.72Z"/><path class="cls-14" d="M56.14,55s-.13.82-1.59,1.12a4.93,4.93,0,0,1-3-.34A14,14,0,0,1,56.14,55Z"/><path class="cls-14" d="M55.27,54.11a2.63,2.63,0,0,0-1.53-1.36,2.88,2.88,0,0,0-1.85,0A18,18,0,0,0,55.27,54.11Z"/><path class="cls-14" d="M52.41,33.09a5.81,5.81,0,0,1-2.76,1.26,6,6,0,0,1-3-.16c.23,0,1.29-.32,2.58-.56C50.2,33.45,52.41,33.09,52.41,33.09Z"/><path class="cls-13" d="M50.64,19.67c-4.46,3.41-4.94,7.39-8,9.14-1.31-1.6-5.61-4.44-7.07-5.39S32.25,22,33.54,25.25s4.54,6.3,7.05,8.73,4.64-.14,6.74-2.24,6.59-6.82,6.59-6.82Z"/><path class="cls-8" d="M32,18l2.61,2.83a6.21,6.21,0,0,0,1.28-1.63,8.76,8.76,0,0,0,.74-2L33.26,15Z"/><path class="cls-10" d="M35,27.81s.88-2.86,2.07-3.49c-1.57-1.82-3-2.94-4.08-4.8-.81-1.44-.56-2.68-1.12-2.7s-.36,2.95-.36,2.95l-1.25-.84c-1.5-1-2,2.34-1.38,3.48.88,1.52,3.83,2.35,3.83,2.35Z"/><path class="cls-5" d="M54.19,12.75c-1.29,0-3.85,2.45-4.8,6.66a22.76,22.76,0,0,0-2.6,3.88,7.67,7.67,0,0,1,4.43,5.35c2.46-2.55,2.6-1.52,4-4.76C59.74,21.59,59.61,12.82,54.19,12.75Z"/><path class="cls-10" d="M31.7,13.88s-1.25-.19-1.33.79c-.22.22-.74.71-.56,1.27-.79,1.52-.24,2.51.46,3s2.23,0,2.23,0,.35-.28,0-.94a.88.88,0,0,0,.76-1.29c.58-.07.91-.91.8-1.36a2.18,2.18,0,0,0-1-1.3l-.21.66Z"/></g></g></svg>