<svg xmlns="http://www.w3.org/2000/svg" viewBox="0 0 61.41 85.16"><defs><style>.cls-1{fill:#bbd5ff;}.cls-2{fill:#9cbaf7;}.cls-3{fill:#adadad;}.cls-4{fill:#c4c4c4;}.cls-5{fill:#d6d6d6;}.cls-6{fill:#c1c1c1;}.cls-7,.cls-8{fill:#eaeaea;}.cls-8{opacity:0.5;}.cls-9{fill:#373951;}.cls-10{fill:#ffc9b6;}.cls-11{fill:#f66232;}.cls-12{fill:#80a8e8;}</style></defs><title>Asset 2</title><g id="Layer_2" data-name="Layer 2"><g id="Layer_1-2" data-name="Layer 1"><path class="cls-1" d="M34.15,73.41c-.37-.3-1.18-.67-1.28-1.19s.32-.68.57-.89.77-.6,1.12-1c1.28-1.27,2.25-3.26,1.13-4.95-1-1.47-2.84-2-4.45-2.35a24.93,24.93,0,0,0-10.8-.39,13.77,13.77,0,0,0-2,.15,9.72,9.72,0,0,0-5.47,2.54c-1.25,1.35-1.65,3.54-.22,4.92,1.1,1.07,2.79,1.21,3.88,2.27.29.27.56.59.28,1a4,4,0,0,1-1.26.93,9.75,9.75,0,0,1-2.85,1.08,14.69,14.69,0,0,1-3.38.16,5.22,5.22,0,0,0-2.83.58C4.89,77.27,5,79.23,6,80.68s7.67,1.79,9.06,1.88a17.77,17.77,0,0,0,3.42,0,5.25,5.25,0,0,0,2.6-1,3.66,3.66,0,0,0,.87-.93c.25-.38.31-.9.61-1.25a2.29,2.29,0,0,1,1.23-.5,9.18,9.18,0,0,1,1.39-.24c.93-.1,1.86-.12,2.79-.17a11,11,0,0,0,5.21-1.13,3.39,3.39,0,0,0,1.76-2A2,2,0,0,0,34.15,73.41Z"/><path class="cls-2" d="M21.89,64s0-.05,0-.08h0C21.87,64,21.88,64,21.89,64Z"/><path class="cls-3" d="M8.57,41.15H3.62c0,6.11,3.68,13,8.36,15.72l5.1,2.94V54.1l-2.63-1.52C11.27,50.74,8.58,45.51,8.57,41.15Z"/><polygon class="cls-4" points="7.04 25.35 0 21.25 2.41 40.27 9.98 44.61 7.04 25.35"/><path class="cls-4" d="M8.32,38.76,6.46,39.83C2.89,41.9,0,39.71,0,35V21.24l14.78-8.53v13.7C14.78,31.17,11.89,36.7,8.32,38.76Z"/><path class="cls-5" d="M15.35,42.87,13.5,43.94C9.93,46,7,43.81,7,39.05V25.35l14.79-8.53v13.7C21.82,35.28,18.92,40.81,15.35,42.87Z"/><path class="cls-6" d="M38.93,48.48,9,44.73V62.12l10.57,6.1c3.43,2,8.63,2.2,11.61.48a3.35,3.35,0,0,0,2-3.14s0-.07,0-.11c0-3.61,1.7-5.4,3.86-8.45S38.93,48.48,38.93,48.48Z"/><path class="cls-3" d="M34.05,61.62a10,10,0,0,1-1.93.73,14.65,14.65,0,0,1-3.78.68,16.17,16.17,0,0,1-3.86-.45,16.68,16.68,0,0,1-6.9-3.27,14.57,14.57,0,0,1-4.64-7.13,19,19,0,0,1-.59-4.45c0-.86,0-1.72,0-2.59L9,44.73V62.12l10.57,6.1c3.43,2,8.63,2.2,11.61.48a3.35,3.35,0,0,0,2-3.14s0-.07,0-.11A8.63,8.63,0,0,1,34.05,61.62Z"/><path class="cls-5" d="M36.26,53.73h0c-4.2,2.42-11.54,2.12-16.39-.68L8.64,46.56a1.07,1.07,0,0,1,0-1.87l12.29-7.1a2.56,2.56,0,0,1,2.59,0l11.56,6.67C39.93,47.06,40.46,51.3,36.26,53.73Z"/><polygon class="cls-5" points="8.11 44.02 8.11 45.68 9.94 46.47 9.82 43.66 8.11 44.02"/><polygon class="cls-5" points="39.09 47.83 39.09 49.82 37.77 51.17 36.71 47.27 39.09 47.83"/><path class="cls-7" d="M36.26,51.94h0c-4.2,2.42-11.54,2.12-16.39-.68L8.64,44.77a1.07,1.07,0,0,1,0-1.87l12.29-7.1a2.56,2.56,0,0,1,2.59,0l11.56,6.67C39.93,45.27,40.46,49.51,36.26,51.94Z"/><polygon class="cls-7" points="21.82 16.82 14.78 12.71 0 21.25 7.04 25.35 21.82 16.82"/><path class="cls-3" d="M18.14,44.63c3.09-1.78,8.47-1.56,12,.5l3,1.73a6.62,6.62,0,0,1,2.45,2.26c1.14-1.74.28-3.93-2.45-5.51l-3-1.74c-3.56-2-8.94-2.27-12-.49-2.08,1.2-2.57,3-1.59,4.68A4.77,4.77,0,0,1,18.14,44.63Z"/><path class="cls-6" d="M19,48.32l3,1.74c3.56,2,9,2.28,12,.5a4.69,4.69,0,0,0,1.59-1.44,6.62,6.62,0,0,0-2.45-2.26l-3-1.73c-3.56-2.06-8.94-2.28-12-.5a4.77,4.77,0,0,0-1.59,1.43A6.66,6.66,0,0,0,19,48.32Z"/><path class="cls-4" d="M12.3,17.84c.93.39,1.12,1.14.42,1.67a3.29,3.29,0,0,1-3,.23c-.93-.39-1.11-1.14-.42-1.67A3.29,3.29,0,0,1,12.3,17.84Z"/><path class="cls-8" d="M9.94,18.32a2.14,2.14,0,0,1,1.92-.15.83.83,0,0,1,.52.48c.09-.28-.09-.58-.52-.76A2.14,2.14,0,0,0,9.94,18a.53.53,0,0,0-.24.61A.65.65,0,0,1,9.94,18.32Z"/><path class="cls-8" d="M10.21,19.13A2.14,2.14,0,0,0,12.13,19a.74.74,0,0,0,.25-.33.83.83,0,0,0-.52-.48,2.14,2.14,0,0,0-1.92.15.65.65,0,0,0-.24.33A.86.86,0,0,0,10.21,19.13Z"/><path class="cls-8" d="M10.21,19.13A2.14,2.14,0,0,0,12.13,19a.74.74,0,0,0,.25-.33.83.83,0,0,0-.52-.48,2.14,2.14,0,0,0-1.92.15.65.65,0,0,0-.24.33A.86.86,0,0,0,10.21,19.13Z"/><path class="cls-9" d="M47.13,78.39c.23.67.95.94,1.4,2.49a3.33,3.33,0,0,1-1.06,3.77c-.94.72-3.49.85-4.12-.72-.61-.25-1.79-.6-2.6-.85-2.92-.89-4-2.63-4.07-3.65s1.64-2.47,4.21-1.67a34.4,34.4,0,0,1,3.88,1.41Z"/><path class="cls-9" d="M59.82,71.08c.24.66,1,.94,1.4,2.48a3.34,3.34,0,0,1-1.06,3.78c-.93.72-3.48.85-4.12-.73-.61-.24-1.79-.6-2.6-.84-2.92-.9-4-2.64-4.07-3.66s1.65-2.47,4.22-1.66a35.21,35.21,0,0,1,3.87,1.4Z"/><path class="cls-10" d="M47.88,13c.14-.14,4.24,2.21,6,3.25a1.6,1.6,0,0,1,.8,1.42c0,1.73.1,4.81,0,6.83a39.31,39.31,0,0,1-.56,4.56l-3.52-.67-.41-8.71L46,17.22Z"/><path class="cls-11" d="M51.33,24.15a20.06,20.06,0,0,1,2.25,0,1.62,1.62,0,0,1,1.16.5s0,3,0,3.63a3.15,3.15,0,0,0,0,.93,2.21,2.21,0,0,1,1.71.66,4.18,4.18,0,0,1,1.11,1.61s.93-.65,1.21-.06c.17.36-.18,1.62-2.1,1.79s-4-1.73-4-1.73Z"/><path class="cls-5" d="M41.89,11.92a4,4,0,0,1,4.86-.77,51.67,51.67,0,0,1,5.89,3.92A11.23,11.23,0,0,1,52.08,18a17.1,17.1,0,0,1-1.56,2.57Z"/><path class="cls-12" d="M45.48,33.61s.73,8.47,1.57,14.35,5.66,17.17,6.18,21.83,4.6,5.14,6.58,3.8a2.41,2.41,0,0,0,.87-3.25A61.21,61.21,0,0,0,60,61.48c-.75-5.51-3-7.11-3-7.11s.35-3.53.56-8.44a44.52,44.52,0,0,0-.09-6.26s2.2-3.91-1.65-8.84S45.48,33.61,45.48,33.61Z"/><path class="cls-2" d="M42.34,36.94s-1.08,8.43-1.49,14.36.64,19.54.17,24.21,3.4,6,5.62,5.11a2.41,2.41,0,0,0,1.53-3A16.75,16.75,0,0,0,51.09,69a26.05,26.05,0,0,0-.82-9.33,80.72,80.72,0,0,0,2.13-8.79,44.91,44.91,0,0,0,.83-8.1s3.21-3.14-.3-9C49.71,28.39,42.34,36.94,42.34,36.94Z"/><path class="cls-10" d="M35.11,14.83,38,17.09c1.52-.58,2.64-2.42,3.25-4.17-.57-.43-2.58-1.52-2.73-2.11.55-1.67-.38-3-1.94-4.48a5,5,0,0,0-6.24,0A2.72,2.72,0,0,0,29,9c.24,1.75,1.89,4.91,3.4,5.63A2.86,2.86,0,0,0,35.11,14.83Z"/><path class="cls-9" d="M39,6.24A3.88,3.88,0,0,0,36.6,3.1c-1.64-.7-4.53-.74-5.8.75a.46.46,0,0,0-.07-.14,1.06,1.06,0,0,0-1.54,0,2.69,2.69,0,0,0-.81,1.18,1.21,1.21,0,0,0-.86,0c-.93.41-1.06,2.49,1.13,3.28-.36,1.54,1.68,2.54,3.55,2.05-.08.95.4,1.45,1.16,2,1.2.94,4.75.9,6.07.21.21-1.6.91-4,.76-5.72C40.12,5.92,39.68,6.62,39,6.24Z"/><path class="cls-10" d="M31.54,10.65a.83.83,0,0,1,1.37-.44c1.05.66-.14,2.75-.14,2.75Z"/><path class="cls-7" d="M43.08,11.26c-1.73.8-1.6,1.11-5.15,4a19.82,19.82,0,0,0-2.6,2.59A4,4,0,0,0,34.39,22c.37,1.72.07,4.52,3.28,7.1,1,1.35,2.46,4.24,5.12,5.82,3.35,2,8.14,2.24,11-1.58a4.07,4.07,0,0,0,.78-3.66c-.82-4.48-2.84-8.09-3.83-10.9C49.29,14.55,44.59,10.57,43.08,11.26Z"/><path class="cls-5" d="M36,16.74s1.76.11,4.38-2,1.48-2.83,1.48-2.83a7.77,7.77,0,0,0-2.94,2C37.44,15.4,36,16.74,36,16.74Z"/><path class="cls-2" d="M50.62,19.48C49.05,21,46.85,23,45.21,24.34a7,7,0,0,1-1.9,8.26c-1,.93-1.76.38-2.68.56.11.31.41,2.38,1.89,3a8.62,8.62,0,0,0,5.94-.44,13.88,13.88,0,0,0,7.15-6.32C54.66,27.7,51.73,21.2,50.62,19.48Z"/><path class="cls-2" d="M35.73,17.38a7.62,7.62,0,0,1,4.79,1.94,25,25,0,0,1,5,6l.91-1s-3-4.72-5.64-6.43a7.35,7.35,0,0,0-4.41-1.49Z"/><path class="cls-2" d="M41.89,11.92s1.78-.29,4.53,3.12a25,25,0,0,1,3.71,5.85l.87-.8a38.16,38.16,0,0,0-4.11-6.25,7.24,7.24,0,0,0-4.08-2.45Z"/><path class="cls-12" d="M41.87,35.34a6.6,6.6,0,0,0,0,2.32s5.65.36,8.81-1.27a16.5,16.5,0,0,0,5.39-5.16l-.62-1.91a17.19,17.19,0,0,1-6.13,5.19A13.8,13.8,0,0,1,41.87,35.34Z"/><path class="cls-10" d="M34.19,22.17c-.09.9-.25,3.63-.41,6.52a42,42,0,0,0,.13,6.63c0,.89.91,1,2.37,1.85a28.48,28.48,0,0,0,7.08,3.22l1.1-2.89-6.13-4.76.74-8.32Z"/><path class="cls-5" d="M34.72,18.38a15,15,0,0,0-1.38,4.48C33,25.46,32.63,30,32.63,30a17.72,17.72,0,0,0,3.34,1c1.43.24,3.13.4,3.13.4A30.14,30.14,0,0,1,40,27.77c.35-.83,2-2.82.38-5.41A9.1,9.1,0,0,0,34.72,18.38Z"/><path class="cls-12" d="M37,4.58a15.47,15.47,0,0,0,4.44,2.17c2.24.61.68,3.45-1,3.91a5.41,5.41,0,0,1-5.16-1.14A7.42,7.42,0,0,0,33,8.16Z"/><path class="cls-2" d="M28.38,4.85C29.74,1,32.06-1.1,36,.59a5.32,5.32,0,0,1,3.21,6.49C39.21,8.36,30.76,9.84,28.38,4.85Z"/><path class="cls-12" d="M34,.86c0,.27.34.55.84.61s.93-.09,1-.36S35.45.57,35,.5,34,.59,34,.86Z"/><path class="cls-11" d="M43.05,43.28s2,.67,2.25.47c.64-.54,1.78-1.27,2-2.12a2.69,2.69,0,0,0-.59-2.8c-1.18-.95-2.26-1.75-2.46-1.86-1-.54-3-2-3-2S39.31,37.08,39.62,39c1.45.63,3.42,1.36,3.42,1.36.18,0,.39.42.31,1C42.69,41.53,42.81,43,43.05,43.28Z"/></g></g></svg>