<svg xmlns="http://www.w3.org/2000/svg" viewBox="0 0 45.61 91.79"><defs><style>.cls-1{fill:#373951;}.cls-2{fill:#23263a;}.cls-3{fill:#474864;}.cls-4{fill:#c1c1c1;}.cls-5{fill:#d6d6d6;}.cls-6{fill:#adadad;}.cls-7{fill:#f77b28;}.cls-8{fill:#e56813;}.cls-9{fill:#ff8d40;}.cls-10{fill:#ffc9b6;}.cls-11{fill:#f66232;}.cls-12{fill:#2c1d1b;}.cls-13{fill:#80a8e8;}.cls-14{fill:#9cbaf7;}.cls-15{fill:#eaeaea;}.cls-16{fill:#ffb9a4;}</style></defs><title>Asset 5</title><g id="Layer_2" data-name="Layer 2"><g id="Layer_1-2" data-name="Layer 1"><path class="cls-1" d="M.32,49.17l1,7.36a1.2,1.2,0,0,0,.67,1l8.48,4.9a2.51,2.51,0,0,0,1.2.3,2,2,0,0,0,1-.23L26,54.77a1,1,0,0,0,.55-.86l.51-8Z"/><path class="cls-2" d="M27.76,45.39h-.63L27,45.33l-9.35-5.4a2.68,2.68,0,0,0-1.31-.33,2.12,2.12,0,0,0-1.07.26L.6,48.35l-.08.06H0v.89a1.31,1.31,0,0,0,.73,1.09l9.34,5.39a2.61,2.61,0,0,0,1.32.33,2.23,2.23,0,0,0,1.07-.25l14.71-8.5a1.09,1.09,0,0,0,.6-.94C27.77,46.37,27.76,45.39,27.76,45.39Z"/><path class="cls-1" d="M11.39,55.13a2.61,2.61,0,0,1-1.32-.33L.73,49.41A1.31,1.31,0,0,1,0,48.32a1.11,1.11,0,0,1,.6-1l14.71-8.49a2.12,2.12,0,0,1,1.07-.26,2.58,2.58,0,0,1,1.31.34L27,44.35a1.3,1.3,0,0,1,.73,1.09,1.11,1.11,0,0,1-.6,1L12.46,54.88A2.12,2.12,0,0,1,11.39,55.13Z"/><path class="cls-2" d="M.88,48.32l14.71-8.49a2,2,0,0,1,1.82.07l9.35,5.4a.86.86,0,0,1,.37.36c.16-.26,0-.58-.37-.82l-9.35-5.39a2,2,0,0,0-1.82-.08L.88,47.86a.5.5,0,0,0-.25.69A.7.7,0,0,1,.88,48.32Z"/><path class="cls-3" d="M1,48.92l9.35,5.39a2.06,2.06,0,0,0,1.82.08l14.71-8.5a.59.59,0,0,0,.24-.23.86.86,0,0,0-.37-.36l-9.35-5.4a2,2,0,0,0-1.82-.07L.88,48.32a.7.7,0,0,0-.25.23A1,1,0,0,0,1,48.92Z"/><path class="cls-2" d="M21.92,46.74l.21.13a2.25,2.25,0,0,0,2,.08c.51-.3.44-.81-.14-1.15l-.22-.13Z"/><path class="cls-4" d="M25,44.44h-.16a1.47,1.47,0,0,0-.39-.33l-6.37-3.67a2.52,2.52,0,0,0-2.26-.1L12.88,42a1,1,0,0,0-.19.15h-.2v.43h0a.92.92,0,0,0,.54.73L19.41,47a2.52,2.52,0,0,0,2.26.1l2.93-1.69a.68.68,0,0,0,.38-.55h0Z"/><path class="cls-5" d="M24.6,45.05l-2.93,1.69a2.48,2.48,0,0,1-2.26-.09L13,43c-.67-.38-.74-1-.16-1.3L15.81,40a2.51,2.51,0,0,1,2.26.09l6.37,3.68C25.11,44.13,25.18,44.72,24.6,45.05Z"/><path class="cls-6" d="M13.43,42l2.49-1.44a2.11,2.11,0,0,1,1.92.08l6,3.45a1,1,0,0,1,.44.46c.09-.25-.06-.55-.44-.78l-6-3.45a2.17,2.17,0,0,0-1.92-.08l-2.49,1.44a.53.53,0,0,0-.3.64A.65.65,0,0,1,13.43,42Z"/><path class="cls-4" d="M13.57,42.83l6,3.45a2.11,2.11,0,0,0,1.92.08L24,44.92a.63.63,0,0,0,.3-.33,1,1,0,0,0-.44-.46l-6-3.45a2.11,2.11,0,0,0-1.92-.08L13.43,42a.65.65,0,0,0-.3.32A.89.89,0,0,0,13.57,42.83Z"/><path class="cls-2" d="M12.65,47.3h-.43v.1L11.57,47a.37.37,0,0,0-.34,0l-.18.1v-.09h-.43v.39h0s0,.07.06.1l1,.59a.37.37,0,0,0,.34,0l.53-.31a.11.11,0,0,0,.07-.12h0Z"/><path class="cls-1" d="M11.7,47.73l-1-.59c-.09,0-.08-.14,0-.2l.53-.3a.37.37,0,0,1,.34,0l1,.59c.09,0,.08.14,0,.2l-.53.3A.37.37,0,0,1,11.7,47.73Z"/><path class="cls-2" d="M16.08,45.32h-.43v.11L15,45.05a.37.37,0,0,0-.34,0l-.18.1v-.09h-.43v.39h0a.12.12,0,0,0,.06.1l1,.59a.37.37,0,0,0,.34,0l.53-.3c.06,0,.09-.08.08-.13h0Z"/><path class="cls-1" d="M15.13,45.76l-1-.6c-.09,0-.08-.13,0-.19l.53-.31a.41.41,0,0,1,.34,0l1,.59c.09,0,.08.14,0,.2l-.53.3A.37.37,0,0,1,15.13,45.76Z"/><path class="cls-7" d="M15.41,42.77l-.69-.38h0a.36.36,0,0,0-.37,0L11.66,44a1.35,1.35,0,0,0-.57,1.09v2.11l.7.4V45.89a9.37,9.37,0,0,1,.57-1.32l2.17-1.17c0,.46,0,1.79,0,1.79l.37-.22.7.39V43.47Z"/><polygon class="cls-8" points="15.24 45.58 14.54 45.19 14.53 43.4 15.24 43.2 15.39 44.04 15.24 45.58"/><path class="cls-9" d="M11.79,45.43v2.13l.37-.22s0-1.46,0-1.82a.87.87,0,0,1,.17-.58c.19-.26.42-.22.82-.36a2.39,2.39,0,0,0,.54-.23,2.49,2.49,0,0,0,.54-.39c.4-.33.63-.62.82-.59s.17.09.17.38,0,1.83,0,1.83l.37-.22V43.23c0-.42-.25-.61-.56-.43l-2.7,1.55A1.36,1.36,0,0,0,11.79,45.43Z"/><path class="cls-2" d="M11.56,52.78l.21.13a2.25,2.25,0,0,0,2,.08c.51-.3.44-.81-.15-1.15l-.21-.13Z"/><path class="cls-4" d="M14.63,50.48h-.16a1.47,1.47,0,0,0-.39-.33L7.71,46.48a2.52,2.52,0,0,0-2.26-.1L2.52,48.07a1,1,0,0,0-.19.15h-.2v.43h0a.92.92,0,0,0,.54.73l6.37,3.67a2.52,2.52,0,0,0,2.26.1l2.93-1.69a.68.68,0,0,0,.38-.55h0Z"/><path class="cls-5" d="M14.24,51.09l-2.93,1.69a2.48,2.48,0,0,1-2.26-.09L2.68,49c-.67-.38-.74-1-.16-1.3L5.45,46a2.51,2.51,0,0,1,2.26.09l6.37,3.68C14.74,50.17,14.82,50.76,14.24,51.09Z"/><path class="cls-6" d="M3.07,48.08l2.49-1.44a2.11,2.11,0,0,1,1.92.08l6,3.45a.89.89,0,0,1,.43.46c.1-.25-.05-.55-.43-.78l-6-3.45a2.17,2.17,0,0,0-1.92-.08L3.07,47.76a.53.53,0,0,0-.3.64A.65.65,0,0,1,3.07,48.08Z"/><path class="cls-4" d="M3.21,48.87l6,3.45a2.11,2.11,0,0,0,1.92.08L13.6,51a.61.61,0,0,0,.29-.33.89.89,0,0,0-.43-.46l-6-3.45a2.11,2.11,0,0,0-1.92-.08L3.07,48.08a.65.65,0,0,0-.3.32A.89.89,0,0,0,3.21,48.87Z"/><path class="cls-6" d="M24.28,49.86a.83.83,0,0,1,.07.35v3.1a1.49,1.49,0,0,1-.62,1.19l-8.48,4.9a.58.58,0,0,1-.21.07.36.36,0,0,0,.55.12l8.48-4.89a1.52,1.52,0,0,0,.62-1.19V50.4C24.69,50,24.52,49.84,24.28,49.86Z"/><path class="cls-4" d="M23.73,54.5a1.49,1.49,0,0,0,.62-1.19v-3.1a.83.83,0,0,0-.07-.35.58.58,0,0,0-.21.07l-8.48,4.89A1.5,1.5,0,0,0,15,56v3.11a.72.72,0,0,0,.08.35.58.58,0,0,0,.21-.07Z"/><path class="cls-10" d="M24.35,21.06,19.12,19.8A74.45,74.45,0,0,1,17,28.17c-1.23,3.55-3.74,10.32-4.79,12.62a4.3,4.3,0,0,0-.37,3.08c.33-.07,1.75-.91,2.21-1.06.11,0,.24,0,.39.14a4.83,4.83,0,0,1,.77.92l.27-2.63a.85.85,0,0,1,.13-.84c1.15-1.47,5.26-6.82,6.48-9.91A54.17,54.17,0,0,0,24.35,21.06Z"/><path class="cls-11" d="M17.34,38.05,17,38a4.33,4.33,0,0,1-1.76-.56,4.88,4.88,0,0,1-.89-.87L14,36.17c-.74,1.94-1.42,3.67-1.86,4.62a4.3,4.3,0,0,0-.37,3.08c.33-.07,1.75-.91,2.21-1.06.11,0,.24,0,.39.14a4.83,4.83,0,0,1,.77.92l.27-2.63a.85.85,0,0,1,.13-.84C15.92,39.93,16.57,39.09,17.34,38.05Z"/><path class="cls-12" d="M39.66,70.87c-.15-1.21-1.6-1.45-3.26-1.66s-.53,3.64-.53,3.78S39.87,72.61,39.66,70.87Z"/><path class="cls-1" d="M39.66,70.87a5.05,5.05,0,0,1-4,1.31,16.53,16.53,0,0,1-4.84-1s.76,4.12,1.1,5.76.93,3.52.74,4.87A18.72,18.72,0,0,1,30.4,87a3.23,3.23,0,0,0,1,4.23c1,.69,4,1,4.93-.72a10.24,10.24,0,0,0,1.29-4.91,5.5,5.5,0,0,0,1-1.37c.68-1.3-.26-2.53-.46-3.45S39.62,74.74,39.66,70.87Z"/><path class="cls-1" d="M24.72,64.75A4.55,4.55,0,0,1,20.56,67c-2.55,0-2.33-1.8-2.33-1.8s.06,7.11.29,8.61a2.45,2.45,0,0,1-1.33,2.72c-.88.61-3.2,1.84-3.35,3.58s.64,2.49,3,3.09c1.27.34,2.7-.47,3.82-1.41s2.52-2.74,2.52-3.37C25,77.79,25,76.75,24.26,74,25.24,70.47,24.8,66,24.72,64.75Z"/><path class="cls-5" d="M25.63,23.33c-3,.22-5.76-1.14-8.09-2.95a16.09,16.09,0,0,1,1.35-2.6c-.12-5,3.25-7.65,6-6.29s2.55,3.56,2.13,6.34A41,41,0,0,1,25.63,23.33Z"/><path class="cls-13" d="M16.86,59.72c-.08-1.69-.07-3.88,0-5.57S16.06,39.76,22,36c.1-.13,5.71.66,7.59.82a.63.63,0,0,1,.53.52c1.07,6.22,1,13.15-2.32,18.74a10.61,10.61,0,0,1-2.6,3c1,1.8.84,13-.83,15.4-.8,1.17-3.73,2.86-6.08.9-.68-.57-.34-1.69-.54-4C17.42,67.22,16.91,60.92,16.86,59.72Z"/><path class="cls-14" d="M26.39,46.05c-2-1.38-2.65-3.95-2.34-8.72,1.66-2.47,8.76-.64,11.36-.62,2.38,1.87,1.83,5,1.21,8.21.65,2.83,2.11,7.07,2.62,11.5.12,1.12.24,3.62-.85,4.64a25.12,25.12,0,0,1,1.48,9.81c-.16,3.82-1.36,7.77-1.56,9.25-1.42.89-3.49,2.36-5.64.44-1.74-1.55-3-12.93-2.6-18.4-.83-1.33-1.62-2.11-1.95-3.64C27.28,54.57,27,50,26.39,46.05Z"/><path class="cls-13" d="M36.6,38.18l.36.93a7.92,7.92,0,0,1-5.05,2.42,18.12,18.12,0,0,1-8.21-.69,4.1,4.1,0,0,1-2.07-2.12s8.13,1.39,10.28.78Z"/><path class="cls-13" d="M37,35.89c-.3-1.59-2.43-1.69-2.43-1.69l-.83,2.94S37.38,38.18,37,35.89Z"/><path class="cls-15" d="M21,35.77c-.85-1.46-.3-6.9.19-9.27-1.05-3.92-1.46-6.8-.65-10,.5-2,2.3-4.26,4.74-4.38,1.18-.06,5.2,1.6,5.95,2a14,14,0,0,1,7.07,4.68c.26.29-.79,9.49-1.31,11.22-.61,2-.27,5.08-.74,7,.23,1.83-5.37,2.9-7,2.91C23.52,40,22.14,38.39,21,35.77Z"/><path class="cls-5" d="M33.2,14.89a3.51,3.51,0,0,1-2.44,2.63c-3.31,1.14-5.65-.42-6.29-2.17s1.4-3.2,1.4-3.2A17.51,17.51,0,0,1,33.2,14.89Z"/><path class="cls-14" d="M37,35.89l.62,1.55a17.58,17.58,0,0,1-5,2.53c-3.65,1.36-7.7.58-9.5-1s-2.9-2.6-3-4.05a31.78,31.78,0,0,1,.23-6.23c.29-2.29.82-8.38.82-8.38a14,14,0,0,0,4.08,1.87,25.31,25.31,0,0,0,4.58.86s-.12,5.65.53,8.11c.48,1.8,1.2,3.62,3.14,4.59A4,4,0,0,0,37,35.89Z"/><path class="cls-13" d="M28.19,24.59a17.29,17.29,0,0,1-3.73-.69A14.37,14.37,0,0,1,22,23a21.8,21.8,0,0,0-.51,3.73c0,1.17,1.24,2.29,2.72,2.66s3.43,0,3.61-1.39C28.09,25.63,28.19,24.59,28.19,24.59Z"/><path class="cls-14" d="M34.19,15.39A8.12,8.12,0,0,0,31.28,19a20.67,20.67,0,0,0-1.49,6l-1.45-.42A13.31,13.31,0,0,1,30,18.36c1.84-3,2.4-3.69,3.7-3.7C34.4,14.66,34.19,15.39,34.19,15.39Z"/><path class="cls-14" d="M26.89,12.47A8,8,0,0,0,24,16.05a20.56,20.56,0,0,0-1.49,6L21,21.59a13.48,13.48,0,0,1,1.63-6.16c1.84-3,2.4-3.69,3.7-3.7C27.1,11.73,26.89,12.47,26.89,12.47Z"/><path class="cls-16" d="M25.86,11.23a8.3,8.3,0,0,0,2.57.23,5.91,5.91,0,0,0,2.73-1.33A18.75,18.75,0,0,0,32,14.51c.51,1.11-1.93,2.25-4,2-1.46-.15-2.75-1.42-2.75-2A33,33,0,0,0,25.86,11.23Z"/><path class="cls-10" d="M23.64,6.47a5.88,5.88,0,0,1,1.82-3.81c1.13-.83,2.88-.72,4.19-.48,2,.37,3.21,2.8,2.55,5.37-.61,2.38-2.64,5.92-5.39,6.12-1.4.1-2.35-1.05-2.83-2.44A11.05,11.05,0,0,1,23.64,6.47Z"/><path class="cls-14" d="M24,3.54a5.6,5.6,0,0,1-2.21.51,1.54,1.54,0,0,1-1.45-1.33A8.21,8.21,0,0,1,22.9,2.4,1.28,1.28,0,0,1,24,3.54Z"/><path class="cls-1" d="M32.88,8.1s.15.09-.28,1.07a21.29,21.29,0,0,1-1.29,2.32s-.61-.43-.55-1.82a4.55,4.55,0,0,1,.55-2.13,4.08,4.08,0,0,1-3-.91c-1.54-1.18-1.74-2-1.74-2S25.4,6.3,23.78,6.21s-3.26-2.44-1.64-3,5.31,0,5.31,0S33,6.24,32.88,8.1Z"/><path class="cls-14" d="M32.91,8.54c-1.24-2.78-5.8-5.95-9.2-5.75l.05-.09C25.57-.12,27.49-.75,31.3.89s2.82,5,2.62,5.36A9.25,9.25,0,0,1,32.91,8.54Z"/><path class="cls-13" d="M30.82,5.85a8.69,8.69,0,0,0-3.76-3.13,8.87,8.87,0,0,0-6.75,0s2.45.41,3.45,1.51,1.58,2,3.55,2A10.43,10.43,0,0,0,30.82,5.85Z"/><path class="cls-13" d="M33.57,36.37a12.16,12.16,0,0,1-3,1.31,5.59,5.59,0,0,1-2.6,0,17.07,17.07,0,0,0,2.6-.58C32.28,36.61,33.57,36.37,33.57,36.37Z"/><path class="cls-13" d="M38.31,57.91a15.79,15.79,0,0,1-1,2.21,5.74,5.74,0,0,1-1.38,1.41A2.84,2.84,0,0,1,37,59.32,4.83,4.83,0,0,0,38.31,57.91Z"/><path class="cls-13" d="M35.77,62.27s1.34.45,1.69,1.11.68,1.35.68,1.35A1.35,1.35,0,0,1,36.76,64C36.16,63,35.77,62.27,35.77,62.27Z"/><path class="cls-10" d="M34.21,23.46l5.16,8.76L34,37.74l2.17,2.85s3.69-2.27,6.1-4.19a16.32,16.32,0,0,0,3.09-3.82,2,2,0,0,0,0-2.1l-6.62-10Z"/><path class="cls-5" d="M33.59,17.49a5.76,5.76,0,0,0,.95,8.64,22.34,22.34,0,0,0,2.9,4,32.29,32.29,0,0,0,3.76-2.85c1-1,2.15-2.15,2.15-2.15a79.41,79.41,0,0,0-5.09-7.4A3.19,3.19,0,0,0,33.59,17.49Z"/><path class="cls-11" d="M11.79,42.45c0-.08.7,1,1.17,1.63a1.37,1.37,0,0,0,1,.6,4.45,4.45,0,0,0,1.33-.25s.07-.47-.27-.6a2.57,2.57,0,0,0-1,0,1.42,1.42,0,0,0,0-.88c-.15-.38-.05-1-.6-1.17S11.79,42.45,11.79,42.45Z"/><path class="cls-11" d="M13.24,43.84l-.18.47-.41.42s0,.26.45.37a.74.74,0,0,0,.71-.21.94.94,0,0,0,.62,0c.28-.13.2-.57.2-.57a.35.35,0,0,0,.5,0,1.8,1.8,0,0,0,.16-1.67c-.31-.49-1-.07-1-.07Z"/><path class="cls-11" d="M34,37.74A17.54,17.54,0,0,0,31.7,41a2.81,2.81,0,0,0,.16,2.85,3,3,0,0,0,2.88,1.45c1.29,0,3.15-.74,3-1.39s-.85-.24-.85-.24,1.05-.8.58-1.25-1.53.26-1.53.26-.42-.81-.86-.9a27.78,27.78,0,0,0,3.43-2.74A8.11,8.11,0,0,0,36,35.58,22.79,22.79,0,0,0,34,37.74Z"/></g></g></svg>