<svg xmlns="http://www.w3.org/2000/svg" viewBox="0 0 49.15 100.93"><defs><style>.cls-1{fill:#ffc9b6;}.cls-2{fill:#f66232;}.cls-3{fill:#2c1d1b;}.cls-4{fill:#373951;}.cls-5{fill:#d6d6d6;}.cls-6{fill:#80a8e8;}.cls-7{fill:#9cbaf7;}.cls-13,.cls-8{fill:#eaeaea;}.cls-9{fill:#ffb9a4;}.cls-10{fill:#adadad;}.cls-11{fill:#c4c4c4;}.cls-12{fill:#c1c1c1;}.cls-13{opacity:0.5;}</style></defs><title>Asset 8</title><g id="Layer_2" data-name="Layer 2"><g id="Layer_1-2" data-name="Layer 1"><path class="cls-1" d="M23.58,23.16l5.75-1.38A80.89,80.89,0,0,0,31.72,31c1.35,3.9,4.11,11.35,5.26,13.88a4.68,4.68,0,0,1,.41,3.38c-.36-.07-1.93-1-2.43-1.16a.47.47,0,0,0-.42.16,5,5,0,0,0-.85,1l-.3-2.89a1,1,0,0,0-.15-.93c-1.26-1.61-5.78-7.5-7.12-10.9A59.57,59.57,0,0,1,23.58,23.16Z"/><path class="cls-2" d="M31.29,41.84l.36,0a4.82,4.82,0,0,0,1.93-.62,5,5,0,0,0,1-1l.37-.45c.82,2.13,1.57,4,2,5.08a4.68,4.68,0,0,1,.41,3.38c-.36-.07-1.93-1-2.43-1.16a.47.47,0,0,0-.42.16,5,5,0,0,0-.85,1l-.3-2.89a1,1,0,0,0-.15-.93C32.85,43.91,32.13,43,31.29,41.84Z"/><path class="cls-3" d="M6.74,77.93c.17-1.33,1.76-1.59,3.58-1.82s.59,4,.59,4.15S6.51,79.84,6.74,77.93Z"/><path class="cls-4" d="M6.74,77.93a5.55,5.55,0,0,0,4.39,1.45,18.51,18.51,0,0,0,5.33-1.08s-.84,4.53-1.22,6.33-1,3.87-.81,5.35a20.6,20.6,0,0,0,2.49,5.68,3.54,3.54,0,0,1-1.06,4.65c-1.14.76-4.36,1.15-5.43-.79A11.3,11.3,0,0,1,9,94.12a6.55,6.55,0,0,1-1.1-1.5c-.75-1.44.28-2.79.51-3.8S6.79,82.19,6.74,77.93Z"/><path class="cls-4" d="M23.17,71.2a5,5,0,0,0,4.57,2.51c2.81,0,2.56-2,2.56-2s-.06,7.82-.31,9.46a2.72,2.72,0,0,0,1.46,3c1,.67,3.52,2,3.69,3.93s-.71,2.74-3.26,3.41c-1.39.36-3-.52-4.2-1.56s-2.77-3-2.77-3.7c-2-.73-2-1.87-1.23-4.93C22.6,77.49,23.09,72.62,23.17,71.2Z"/><path class="cls-5" d="M22.17,25.65c3.3.24,6.34-1.25,8.89-3.24a18.52,18.52,0,0,0-1.47-2.86c.13-5.47-3.58-8.41-6.6-6.92s-2.81,3.91-2.35,7A43.91,43.91,0,0,0,22.17,25.65Z"/><path class="cls-6" d="M31.82,65.67c.08-1.85.07-4.27,0-6.13s.87-15.82-5.69-19.91c-.11-.14-6.28.72-8.35.9a.69.69,0,0,0-.58.57C16,48,16.11,55.57,19.75,61.72A11.94,11.94,0,0,0,22.61,65c-1.13,2-.92,14.28.91,16.93.89,1.29,4.1,3.16,6.69,1,.75-.63.37-1.86.59-4.42C31.19,73.92,31.75,67,31.82,65.67Z"/><path class="cls-7" d="M21.34,50.64c2.2-1.52,2.91-4.35,2.56-9.59-1.82-2.72-9.62-.7-12.48-.68-2.62,2.06-2,5.56-1.33,9-.72,3.11-2.33,7.77-2.88,12.65-.14,1.22-.27,4,.93,5.09A27.72,27.72,0,0,0,6.51,77.93C6.69,82.14,8,86.48,8.23,88.1c1.56,1,3.83,2.6,6.2.48,1.91-1.7,3.35-14.21,2.86-20.23.91-1.45,1.78-2.32,2.14-4C20.35,60,20.68,55,21.34,50.64Z"/><path class="cls-6" d="M10.1,42l-.38,1a8.66,8.66,0,0,0,5.55,2.66,19.78,19.78,0,0,0,9-.77,4.48,4.48,0,0,0,2.28-2.32s-8.94,1.53-11.3.86Z"/><path class="cls-6" d="M9.72,39.47c.32-1.75,2.66-1.86,2.66-1.86l.92,3.23S9.25,42,9.72,39.47Z"/><path class="cls-8" d="M27.29,39.33c.94-1.6.34-7.58-.2-10.19,1.16-4.31,1.6-7.48.71-11-.55-2.17-2.53-4.68-5.21-4.81-1.3-.07-5.71,1.76-6.55,2.22a15.43,15.43,0,0,0-7.77,5.15c-.28.32.87,10.44,1.45,12.33.66,2.21.29,5.6.8,7.66-.25,2,5.91,3.19,7.73,3.2C24.49,44,26,42.21,27.29,39.33Z"/><path class="cls-5" d="M13.85,16.38a3.85,3.85,0,0,0,2.68,2.89c3.63,1.25,6.21-.47,6.91-2.4s-1.53-3.51-1.53-3.51A19.25,19.25,0,0,0,13.85,16.38Z"/><path class="cls-7" d="M9.72,39.47l0,2.51a46.59,46.59,0,0,0,4.82,2c4,1.5,8.48.64,10.45-1.11s3.19-2.85,3.32-4.45A35.15,35.15,0,0,0,28,31.54c-.32-2.52-.9-9.21-.9-9.21a15.83,15.83,0,0,1-4.49,2.05,27,27,0,0,1-5,.94s.14,6.22-.58,8.92c-.53,2-1.31,4-3.45,5A4.38,4.38,0,0,1,9.72,39.47Z"/><path class="cls-6" d="M19.36,27a18.84,18.84,0,0,0,4.1-.75,16.38,16.38,0,0,0,2.72-1.05,23.17,23.17,0,0,1,.56,4.1c0,1.29-1.36,2.52-3,2.92s-3.77.05-4-1.52C19.46,28.18,19.36,27,19.36,27Z"/><path class="cls-7" d="M12.76,16.93A8.86,8.86,0,0,1,16,20.87a22.91,22.91,0,0,1,1.64,6.56L19.19,27a14.64,14.64,0,0,0-1.79-6.77c-2-3.25-2.64-4.06-4.07-4.07C12.53,16.12,12.76,16.93,12.76,16.93Z"/><path class="cls-7" d="M20.79,13.71A8.94,8.94,0,0,1,24,17.65a22.74,22.74,0,0,1,1.63,6.56l1.59-.47A14.71,14.71,0,0,0,25.43,17c-2-3.25-2.64-4.06-4.08-4.07C20.56,12.9,20.79,13.71,20.79,13.71Z"/><path class="cls-9" d="M21.92,12.35a9.06,9.06,0,0,1-2.83.25,6.53,6.53,0,0,1-3-1.46,19.57,19.57,0,0,1-.9,4.82c-.55,1.21,2.13,2.47,4.42,2.22,1.61-.17,3-1.56,3-2.16A34.62,34.62,0,0,1,21.92,12.35Z"/><path class="cls-1" d="M24.36,7.12c-.23-1.47-.76-3.28-2-4.2s-3.16-.79-4.6-.53c-2.23.42-3.53,3.08-2.81,5.91.67,2.62,2.91,6.51,5.93,6.73,1.54.11,2.58-1.15,3.11-2.68A12,12,0,0,0,24.36,7.12Z"/><path class="cls-7" d="M24,3.89a6,6,0,0,0,2.42.56A1.68,1.68,0,0,0,28,3a9.06,9.06,0,0,0-2.85-.36A1.4,1.4,0,0,0,24,3.89Z"/><path class="cls-4" d="M14.2,8.9s-.17.11.3,1.19a23.08,23.08,0,0,0,1.43,2.54s.67-.47.6-2a5.12,5.12,0,0,0-.6-2.34,4.45,4.45,0,0,0,3.26-1C20.89,6,21.11,5,21.11,5s1.31,1.89,3.09,1.79S27.79,4.14,26,3.56s-5.85,0-5.85,0S14.08,6.86,14.2,8.9Z"/><path class="cls-7" d="M14.17,9.39c1.35-3.05,6.37-6.55,10.11-6.32a.53.53,0,0,0-.06-.1c-2-3.1-4.09-3.79-8.29-2s-3.1,5.46-2.88,5.89A10.31,10.31,0,0,0,14.17,9.39Z"/><path class="cls-6" d="M16.46,6.44A9.53,9.53,0,0,1,20.59,3,9.77,9.77,0,0,1,28,3s-2.7.44-3.8,1.65-1.73,2.19-3.9,2.22A11.5,11.5,0,0,1,16.46,6.44Z"/><path class="cls-6" d="M13.44,40a13.36,13.36,0,0,0,3.32,1.45,6.17,6.17,0,0,0,2.85,0,19.16,19.16,0,0,1-2.85-.64C14.86,40.26,13.44,40,13.44,40Z"/><path class="cls-6" d="M8.23,63.68a16.48,16.48,0,0,0,1.13,2.44,6.68,6.68,0,0,0,1.52,1.55,3.13,3.13,0,0,0-1.16-2.44A5.25,5.25,0,0,1,8.23,63.68Z"/><path class="cls-6" d="M11,68.48S9.55,69,9.16,69.7s-.75,1.48-.75,1.48a1.48,1.48,0,0,0,1.52-.83C10.59,69.32,11,68.48,11,68.48Z"/><path class="cls-1" d="M11.39,28.19,6.92,38.44l5.58,6.4L10.17,48s-3.06-2.66-5.83-4.63A22,22,0,0,1,.47,39.62a2.14,2.14,0,0,1-.24-2.3L6.14,25.57Z"/><path class="cls-5" d="M11,18.56c2.69,1.57,4.56,6.64,1.66,10a24.91,24.91,0,0,1-2.12,5,35.67,35.67,0,0,1-4.74-2.12C4.54,30.58,3,29.65,3,29.65s2.14-5.38,3.51-7.87S10,17.93,11,18.56Z"/><path class="cls-2" d="M37.39,46.68c0-.09-.77,1.15-1.29,1.79a1.47,1.47,0,0,1-1.08.66,4.7,4.7,0,0,1-1.46-.28s-.07-.51.3-.65a2.69,2.69,0,0,1,1-.06,1.63,1.63,0,0,1,0-1c.17-.41,0-1.09.66-1.29S37.39,46.68,37.39,46.68Z"/><path class="cls-2" d="M35.8,48.2l.2.53.44.45s0,.29-.49.41a.83.83,0,0,1-.79-.23,1,1,0,0,1-.67,0c-.31-.14-.22-.62-.22-.62a.38.38,0,0,1-.55,0,2,2,0,0,1-.17-1.83c.34-.54,1.07-.08,1.07-.08Z"/><path class="cls-10" d="M41,34.11h4.71c0,5.82-3.5,12.38-8,15l-4.85,2.8V46.42L35.41,45C38.44,43.24,41,38.26,41,34.11Z"/><polygon class="cls-11" points="42.46 19.09 49.15 15.18 46.86 33.27 39.66 37.4 42.46 19.09"/><path class="cls-11" d="M41.24,31.84l1.76,1c3.4,2,6.15-.12,6.15-4.65v-13L35.09,7.06v13C35.09,24.62,37.85,29.88,41.24,31.84Z"/><path class="cls-5" d="M34.55,35.75l1.76,1c3.4,2,6.15-.12,6.15-4.65v-13L28.4,11V24C28.4,28.53,31.16,33.79,34.55,35.75Z"/><path class="cls-12" d="M12.13,41.08l28.43-3.56V54.06l-10,5.8c-3.27,1.88-8.21,2.09-11,.46a3.21,3.21,0,0,1-1.9-3s0-.07,0-.11c0-3.43-1.61-5.14-3.66-8S12.13,41.08,12.13,41.08Z"/><path class="cls-10" d="M16.77,53.58a9.84,9.84,0,0,0,1.83.69,13.43,13.43,0,0,0,3.6.65,15.15,15.15,0,0,0,3.67-.43,15.78,15.78,0,0,0,6.57-3.11,13.9,13.9,0,0,0,4.41-6.78,18.25,18.25,0,0,0,.56-4.23c0-.82,0-1.64,0-2.46l3.14-.39V54.06l-10,5.8c-3.27,1.88-8.21,2.09-11,.46a3.21,3.21,0,0,1-1.9-3s0-.07,0-.11A8.28,8.28,0,0,0,16.77,53.58Z"/><path class="cls-5" d="M14.67,46.07h0c4,2.31,11,2,15.59-.64l10.68-6.17a1,1,0,0,0,0-1.79l-11.7-6.75a2.44,2.44,0,0,0-2.45,0l-11,6.35C11.18,39.74,10.67,43.77,14.67,46.07Z"/><polygon class="cls-5" points="41.44 36.84 41.44 38.42 39.7 39.17 39.81 36.5 41.44 36.84"/><polygon class="cls-5" points="11.97 40.47 11.98 42.36 13.23 43.64 14.24 39.93 11.97 40.47"/><path class="cls-8" d="M14.67,44.37h0c4,2.31,11,2,15.59-.65l10.68-6.16a1,1,0,0,0,0-1.79L29.24,29a2.44,2.44,0,0,0-2.45,0l-11,6.35C11.18,38,10.67,42.06,14.67,44.37Z"/><polygon class="cls-8" points="28.41 10.97 35.09 7.06 49.15 15.18 42.46 19.09 28.41 10.97"/><path class="cls-10" d="M31.9,37.42c-2.93-1.69-8.06-1.48-11.44.48L17.6,39.55a6.2,6.2,0,0,0-2.33,2.14C14.19,40,15,38,17.6,36.45l2.86-1.65c3.38-1.95,8.51-2.17,11.44-.47,2,1.14,2.45,2.86,1.51,4.46A4.42,4.42,0,0,0,31.9,37.42Z"/><path class="cls-12" d="M31.08,40.93l-2.86,1.65c-3.39,2-8.51,2.17-11.44.48a4.32,4.32,0,0,1-1.51-1.37,6.2,6.2,0,0,1,2.33-2.14l2.86-1.65c3.38-2,8.51-2.17,11.44-.48a4.42,4.42,0,0,1,1.51,1.37A6.2,6.2,0,0,1,31.08,40.93Z"/><path class="cls-11" d="M37.45,11.94c-.88.38-1.06,1.09-.39,1.59a3.1,3.1,0,0,0,2.8.22c.88-.37,1.06-1.09.4-1.59A3.12,3.12,0,0,0,37.45,11.94Z"/><path class="cls-13" d="M39.7,12.4a2,2,0,0,0-1.83-.14.82.82,0,0,0-.49.45c-.09-.26.09-.55.49-.72a2,2,0,0,1,1.83.15.49.49,0,0,1,.23.57A.64.64,0,0,0,39.7,12.4Z"/><path class="cls-13" d="M39.44,13.17A2,2,0,0,1,37.61,13a.6.6,0,0,1-.23-.31.82.82,0,0,1,.49-.45,2,2,0,0,1,1.83.14.64.64,0,0,1,.23.31A.8.8,0,0,1,39.44,13.17Z"/><path class="cls-13" d="M39.44,13.17A2,2,0,0,1,37.61,13a.6.6,0,0,1-.23-.31.82.82,0,0,1,.49-.45,2,2,0,0,1,1.83.14.64.64,0,0,1,.23.31A.8.8,0,0,1,39.44,13.17Z"/><path class="cls-2" d="M14,46.22c1.13,1.23,3.22.79,3,1.59s-2.25.43-2.25.43A4.45,4.45,0,0,0,17,50c.83.25,2.29.89,1.48,1.58.33.39.59.71.59.91,0,.5-2.77,1.22-4.8.09s-3.29-3.37-4-4.13C9.11,47.3,8,46.18,8,46.18a6.28,6.28,0,0,1,.57-1.78,13.53,13.53,0,0,1,1.75-2.08S12.12,44.2,14,46.22Z"/><path class="cls-2" d="M45.19,34.49a11.88,11.88,0,0,1-2.13,2.82c-1,.75-1.66,2.15,0,2.3a4.43,4.43,0,0,0,4-2.82,10.14,10.14,0,0,0-.22-3.52Z"/></g></g></svg>