<svg xmlns="http://www.w3.org/2000/svg" viewBox="0 0 92.66 105.57"><defs><style>.cls-1{fill:#d39c66;}.cls-2{fill:#e5b177;}.cls-3{fill:#a37041;}.cls-4{fill:#c1c1c1;}.cls-5{fill:#f9cc95;}.cls-6{fill:#c18856;}.cls-7{fill:#adadad;}.cls-8{fill:#d7e3ff;}.cls-9{fill:#f7f7f7;}.cls-10{fill:#2c2f44;}.cls-11{fill:#474864;}.cls-12{fill:#373951;}.cls-13{fill:#eaeaea;}.cls-14{fill:#d8d8d8;}.cls-15{fill:#ffc9b6;}.cls-16{fill:#f66232;}.cls-17{fill:#7ca5ed;}.cls-18{fill:#9dbbfc;}.cls-19{fill:#23263a;}.cls-20{fill:#d6d6d6;}.cls-21{fill:#f77b28;}.cls-22{fill:#e56813;}.cls-23{fill:#ff8d40;}</style></defs><title>Asset 9</title><g id="Layer_2" data-name="Layer 2"><g id="Layer_1-2" data-name="Layer 1"><polygon class="cls-1" points="0 38.72 0 75.55 20.28 87.26 20.28 50.43 0 38.72"/><polygon class="cls-2" points="87.15 11.71 20.28 50.43 20.28 87.26 87.15 48.65 87.15 11.71"/><polygon class="cls-3" points="85.15 14.93 45.01 38.01 45.01 70.86 85.15 47.78 85.15 14.93"/><path class="cls-4" d="M62.93,27.7,45,38V41.2a1.78,1.78,0,0,0,.37-.13l17.08-9.85,0,0a.77.77,0,0,0,.42-.7h0Z"/><polygon class="cls-5" points="87.15 11.71 20.28 50.43 0 38.72 66.87 0 87.15 11.71"/><polygon class="cls-6" points="85.15 47.78 46.74 69.87 46.69 49.11 85.15 26.99 85.15 47.78"/><path class="cls-7" d="M64.25,37.22,51.89,44.36c-.37.2-.7.28-.86.18s-.49-.69-.49-1.6V38l-3,1.81v3.12a4.63,4.63,0,0,0,2,4.2,3.26,3.26,0,0,0,1.67.44A4.41,4.41,0,0,0,53.39,47l10.86-6.27Z"/><path class="cls-8" d="M60.15,70.21s-5.38,3.53-7.57,6.13.22,5.55,3.9,6.56,12.74,5.89,8.39,10.82-8.78,8.06-1.94,11S77.62,102.94,77.61,98c0-4.26-.39-5.95-6.69-11S55.53,79.55,60.85,76.36c6.21-3.7,3.74-9,1-9.92a41.45,41.45,0,0,0-1.67-6.65Z"/><polygon class="cls-1" points="43.35 38.95 22.31 50.86 22.31 84.17 43.35 72.09 43.35 38.95"/><polygon class="cls-9" points="42.95 39.58 22.71 51.06 22.71 83.53 42.95 71.84 42.95 39.58"/><polygon class="cls-10" points="37.43 45.88 38.46 46.48 28.81 52.05 27.78 51.45 26.94 51.94 29.12 53.2 29.96 52.71 40.44 46.66 38.27 45.4 37.43 45.88"/><polygon class="cls-10" points="37.43 44.99 37.43 45.88 38.46 46.48 38.46 45.59 37.43 44.99"/><polygon class="cls-11" points="37.43 44.99 38.46 45.59 28.81 51.16 27.78 50.56 26.94 51.04 29.12 52.3 29.96 51.82 40.44 45.76 38.27 44.51 37.43 44.99"/><polygon class="cls-10" points="26.94 51.04 26.94 51.94 29.12 53.2 29.12 52.3 26.94 51.04"/><polygon class="cls-12" points="40.44 45.76 40.44 46.66 29.12 53.2 29.12 52.3 40.44 45.76"/><polygon class="cls-1" points="85.23 14.93 64.19 26.83 64.19 60.14 85.23 48.06 85.23 14.93"/><polygon class="cls-9" points="84.83 15.55 64.59 27.04 64.59 59.5 84.83 47.82 84.83 15.55"/><polygon class="cls-10" points="79.31 21.86 80.34 22.45 70.69 28.03 69.66 27.43 68.82 27.91 71 29.17 71.83 28.69 82.32 22.63 80.14 21.37 79.31 21.86"/><polygon class="cls-10" points="79.31 20.96 79.31 21.86 80.34 22.45 80.34 21.56 79.31 20.96"/><polygon class="cls-11" points="79.31 20.96 80.34 21.56 70.69 27.13 69.66 26.54 68.82 27.02 71 28.28 71.83 27.79 82.32 21.74 80.14 20.48 79.31 20.96"/><polygon class="cls-10" points="68.82 27.02 68.82 27.91 71 29.17 71 28.28 68.82 27.02"/><polygon class="cls-12" points="82.32 21.74 82.32 22.63 71 29.17 71 28.28 82.32 21.74"/><polygon class="cls-9" points="59.02 48.01 45.01 37.82 45.01 70.18 59.02 80.37 59.02 48.01"/><polygon class="cls-13" points="45.01 37.82 46.15 37.23 60.15 47.41 59.02 48.01 45.01 37.82"/><polygon class="cls-4" points="60.15 79.77 59.02 80.37 59.02 48.01 60.15 47.41 60.15 79.77"/><path class="cls-9" d="M62.51,23,49.28,15.32a3.07,3.07,0,0,0-2.76-.11l-17.34,10c-.63.36-.62,1,0,1.43a2.29,2.29,0,0,0,.23.16l13.23,7.69a3.07,3.07,0,0,0,2.76.11l17.34-10s0,0,0,0C63.41,24.16,63.31,23.47,62.51,23Z"/><path class="cls-4" d="M48.88,23.17l7,4.09,4.77-2.76,0,0c.58-.36.5-1-.2-1.38L48.88,16.34a2.72,2.72,0,0,0-2.43-.1L31.2,25c-.55.32-.55.86,0,1.26l.21.15L36,29.11l10.47-6A2.68,2.68,0,0,1,48.88,23.17Z"/><path class="cls-14" d="M45.44,33.3l10.48-6-7-4.09a2.68,2.68,0,0,0-2.43-.1L36,29.11l7,4.09A2.72,2.72,0,0,0,45.44,33.3Z"/><polygon class="cls-15" points="70.05 44.8 74.71 45.63 73.11 48.85 68.89 47.11 70.05 44.8"/><path class="cls-16" d="M68.54,44.12a10.67,10.67,0,0,1-1.7-1.43l-1.21,2.44v.27a1.54,1.54,0,0,0,1.09.91c.76.11.84,0,.84,0l2.35,1.4a6.62,6.62,0,0,1,0-1.63,5.45,5.45,0,0,1,.8-1.09A8.11,8.11,0,0,1,68.54,44.12Z"/><path class="cls-7" d="M65.62,48.14l.73.43a.83.83,0,0,1,.37.69v1.4s.47-.08.56-.87a3,3,0,0,0-.12-1.33c0-.14-.27-.65-.31-.76a3.08,3.08,0,0,1-.22-1V40.14A2.15,2.15,0,0,1,67,38.86c0-.06.34-.29.41-.4a2.47,2.47,0,0,0,.14-1.34,3.73,3.73,0,0,0-.62-1.69V37c0,.3-.18.43-.4.29l-.81-.46a1,1,0,0,1-.4-.77V34.52s-.52.09-.62,1A3.26,3.26,0,0,0,65,37.25c0,.09.21.41.31.66a4.54,4.54,0,0,1,.36,1.65v6.59a.67.67,0,0,1-.22.55,3.45,3.45,0,0,1-.37.16c-.27.17-.42.59-.34,1.44a3.43,3.43,0,0,0,.57,1.53l0-1.42C65.25,48.14,65.42,48,65.62,48.14Z"/><polygon class="cls-7" points="65.04 46.86 64.58 47.17 64.64 47.35 65.24 47.1 65.04 46.86"/><polygon class="cls-7" points="64.86 50.1 65.27 49.83 64.94 48.6 64.61 48.71 64.86 50.1"/><polygon class="cls-7" points="66.43 50.88 66.9 50.56 67.01 49.97 66.49 50.12 66.43 50.88"/><polygon class="cls-7" points="66.51 35.7 66.92 35.43 67.16 36.25 66.8 36.8 66.51 35.7"/><polygon class="cls-7" points="65.33 34.52 65.15 34.6 64.72 34.87 64.85 35.19 65.25 35 65.33 34.52"/><path class="cls-4" d="M65.22,48.41l.73.42a.88.88,0,0,1,.37.7l0,1.4s.47-.09.57-.88a3.3,3.3,0,0,0-.12-1.33c0-.13-.27-.64-.31-.76a2.78,2.78,0,0,1-.22-1V40.4a2.13,2.13,0,0,1,.37-1.28,5,5,0,0,0,.4-.4,2.28,2.28,0,0,0,.14-1.34,3.66,3.66,0,0,0-.62-1.68l0,1.56c0,.3-.18.44-.41.3l-.8-.47a.91.91,0,0,1-.4-.76V34.78s-.52.1-.62,1a3.29,3.29,0,0,0,.25,1.77c0,.09.21.4.31.66a4.55,4.55,0,0,1,.35,1.65v6.59A.65.65,0,0,1,65,47a2.31,2.31,0,0,1-.37.17c-.28.17-.43.59-.34,1.44a3.35,3.35,0,0,0,.56,1.53V48.68C64.85,48.41,65,48.28,65.22,48.41Z"/><path class="cls-16" d="M65.72,41.71s-1.13.55-1.14,1c0,.77,1.34.35,1.34.35l1.09.57a2.89,2.89,0,0,0-.32,1.62c.14.77,1.85,1.28,1.85,1.28l1-1.71s-1.42-1.88-1.87-2.54A2.19,2.19,0,0,0,65.72,41.71Z"/><path class="cls-16" d="M65.22,41.48s-.86.27-.94.57a1.34,1.34,0,0,0,0,.64s-.68.84-.18,1.26l.49.42s-.31.65,0,1,1,1,1.51.91,0-.91,0-.91.29,0,.39-.5-.59-.81-.59-.81.49.12.51-.48-.71-1-.71-1l-.64-.5Z"/><path class="cls-12" d="M78.07,73.67a18.2,18.2,0,0,1,3.69,2.69c.75,1,.55,1.06.69,2.31s-.38,2.44-1.72,2.38C79.56,81,79.6,80,79.41,79.29c0,0-3.3-.34-5-1.52S75.29,73.36,78.07,73.67Z"/><path class="cls-17" d="M67.6,58.33c2.63-.58,5.9.4,8.68,1.7a.53.53,0,0,1,.2,0c3.33,1.6,11.13,1.54,11.09,1.66a12.27,12.27,0,0,1,.56,6.37c-.52,2-2.27,3.94-4.65,3.63a6.26,6.26,0,0,1-5.58.52s.31.45.68,1A3.46,3.46,0,0,0,75.7,74.6a5.85,5.85,0,0,0-.94,1.76c-1.05-.78-2.09-1.63-2.82-2.19-1.36-1-6-6.11-6-10.38A3.16,3.16,0,0,1,67.6,58.33Z"/><path class="cls-18" d="M67.06,76.87a14.57,14.57,0,0,1,2.08-5.68c2.09-3.13,3.78-7.71,6-9.15,2.71-1.73,8.78-.37,9-.48,0,1.48.51,5,.29,6.63a11.85,11.85,0,0,1-1,3.55C82.82,73,81,74.16,78.41,74.23a10.24,10.24,0,0,1-3.2,3.37A28.43,28.43,0,0,1,78.33,80a58.08,58.08,0,0,0,6.88,5.61,5,5,0,0,0-1.44,1.22A3.58,3.58,0,0,0,83,88.59c-4.51-1-8.08-3.39-11.79-6a14.33,14.33,0,0,1-3-3.07A1.62,1.62,0,0,1,67.06,76.87Z"/><path class="cls-13" d="M79.71,48.11c-.65-3.12-1.08-7.43-1.08-7.43s3.3-3.61,6.56.5c1,1.27.93,3,1.22,3.67a4.27,4.27,0,0,1,.67,2.08C85.18,49.07,82,49,79.71,48.11Z"/><path class="cls-15" d="M73.47,40.17,75.35,43c1.52-.06,3.06-1.35,4.13-2.7-.37-.56-1.82-2.13-1.78-2.7,1-1.31.58-2.79-.37-4.54a4.65,4.65,0,0,0-5.51-1.9,2.58,2.58,0,0,0-2,1.94c-.32,1.62-.6,5.66.51,6.75C71.15,40.65,72.47,40.22,73.47,40.17Z"/><path class="cls-12" d="M79.49,33.75a3.61,3.61,0,0,0-1.17-3.5c-1.23-1.11-3.78-2-5.35-1.08A.77.77,0,0,0,73,29a1,1,0,0,0-1.35-.5,2.52,2.52,0,0,0-1.07.8,1.19,1.19,0,0,0-.77-.23c-1,.09-1.29,1.28-1.21,2.07.16,1.63,1.94,3.92,3.74,4.05a2.07,2.07,0,0,0,.42,2.16,3.69,3.69,0,0,0,3.64,1.49,4.54,4.54,0,0,0,3.66-3A2.34,2.34,0,0,0,79.49,33.75Z"/><path class="cls-18" d="M80.4,32.55a5.91,5.91,0,0,0-4-4.12c-3.2-.85-4.65.88-5.27,2.5a5.07,5.07,0,0,0,2.57,5.86,11,11,0,0,0,5.52,1S81.16,34.24,80.4,32.55Z"/><path class="cls-15" d="M71.58,35.4a.78.78,0,0,1,1.34,0c.73.91-1,2.39-1,2.39Z"/><path class="cls-9" d="M75.15,43.56c3.76-2,4-2.82,5.74-3.25,1.5-.37,5,4.07,5.58,8.21A91.3,91.3,0,0,1,87.1,62c-3.69,2.41-8.6,1-12.18-1.44A21.64,21.64,0,0,1,72.27,54a23.57,23.57,0,0,1-.93-5.81C71.3,46.57,71.39,45.58,75.15,43.56Z"/><path class="cls-12" d="M82.89,83.93a22.27,22.27,0,0,1,3.45,0c1,.17,1.15,2,2,2.83s3.42,1.29,4.1,3-.56,4.48-2.15,3.81c-2.61-1.1-7.88-5.5-7.88-5.5A3.75,3.75,0,0,1,82.89,83.93Z"/><path class="cls-18" d="M80.59,40.4c.6.54,2.45,1.64,3.21,3.05a14.56,14.56,0,0,1,2,6.3l1.08.18s-.7-4.64-2.1-6.88a8,8,0,0,0-4.16-3.19A3.51,3.51,0,0,1,80.59,40.4Z"/><path class="cls-13" d="M81.71,39.86a5.57,5.57,0,0,0-2.61-.36c-.83.29-3.5,1.57-4.08,2.37a11.59,11.59,0,0,0-1.11,2.25,18.37,18.37,0,0,0,5.13-2C81.36,40.75,81.71,39.86,81.71,39.86Z"/><path class="cls-18" d="M74.19,59.25s1,1.59,3.13.25a6.7,6.7,0,0,0,3.23-7.39,67.21,67.21,0,0,0,5.92-3.59c.74,1.81.6,5.1,1.15,7.33a11.92,11.92,0,0,1-.09,6.24,9.22,9.22,0,0,1-5.75,2.57c-5.06.6-8.89-3.31-8.57-3.89S74.19,59.25,74.19,59.25Z"/><path class="cls-18" d="M77.06,46.59a15.85,15.85,0,0,1,3.62,6.48l1-.78S80.13,47.77,78,45.72a11.77,11.77,0,0,0-2.54-2c-.88-.42-1.91.81-1.91.81S74.76,44.31,77.06,46.59Z"/><path class="cls-17" d="M73.91,61.92c.21.07,6.8,2.15,8.77,1.64s5.12-2.88,5.12-2.88V62.5a10.34,10.34,0,0,1-5.65,2.9c-3.94.85-7.72-1.18-9.05-1.87C73.17,63.33,73.72,62.25,73.91,61.92Z"/><path class="cls-17" d="M74.31,78a2.34,2.34,0,0,1-1.15.73,5.8,5.8,0,0,1-1.88-.37L72.57,78C73.05,77.88,73.79,78.11,74.31,78Z"/><path class="cls-17" d="M79.56,37.14A3.17,3.17,0,0,1,82.08,37a15.17,15.17,0,0,1,2.37.86,3.47,3.47,0,0,1-2.74,1.07A2.31,2.31,0,0,1,79.56,37.14Z"/><path class="cls-17" d="M79.24,37.29a14.23,14.23,0,0,1-1.06,2.59A10.47,10.47,0,0,1,77,41.77s-1.58-2-.73-3.28S79.24,37.29,79.24,37.29Z"/><path class="cls-17" d="M79.24,36.41c.73-.16,1.24.57,1.35,1.4a1.31,1.31,0,0,1-2,1.1A1.36,1.36,0,0,1,79.24,36.41Z"/><path class="cls-15" d="M60.52,52.75c1.72,1.92,4.13,2.58,5.3,3.14.37-.53,1.28-3.3,3.45-3.91,0,0,3.44,3.12,2.82,4.22-1.39,2.45-3.87,5.2-4.78,5.36s-2.48-1.29-3.58-1.89c-.6-.33-4.42-3.38-5.39-5.4C58.43,52.73,60.05,53.35,60.52,52.75Z"/><path class="cls-13" d="M73.48,57C71,56.92,68.54,55,67.06,53.29c.16-.38,1.18-1.43,1.39-1.84.1-3.59,1.36-5.43,2.68-6a3,3,0,0,1,4.1,2.42A12,12,0,0,1,73.48,57Z"/><path class="cls-16" d="M60.15,48.85a2.31,2.31,0,0,1-.95,1.68,4.86,4.86,0,0,1-1.74-.22c-2.28-.66-3.19-1.47-3.64-1.14a.67.67,0,0,0-.1,1c-.39.78.52,2.27,2.05,3.47.43.35,1.66.68,2.57,1.2a15.85,15.85,0,0,1,1.81,1.75,4.4,4.4,0,0,1,1.67-2.71s-1.46-1.21-1.48-1.63.14-1.56.17-2.35C60.53,49.46,60.73,49.15,60.15,48.85Z"/><polygon class="cls-11" points="48.54 43.1 47.56 43.61 55.36 49.3 56.34 48.8 57.27 49.41 55.43 50.33 45.95 43.54 47.79 42.62 48.54 43.1"/><polygon class="cls-12" points="48.54 43.1 48.54 42.26 47.56 42.76 47.56 43.61 48.54 43.1"/><polygon class="cls-11" points="48.54 42.26 47.56 42.76 55.36 48.46 56.34 47.96 57.27 48.56 55.43 49.48 45.95 42.69 47.79 41.77 48.54 42.26"/><polygon class="cls-12" points="57.27 48.56 55.43 49.48 55.43 50.33 57.27 49.41 57.27 48.56"/><polygon class="cls-10" points="45.95 42.69 45.95 43.54 55.43 50.33 55.43 49.48 45.95 42.69"/><ellipse class="cls-11" cx="42.95" cy="28.09" rx="1.47" ry="0.84"/><path class="cls-11" d="M42.19,6.79,39.88,5.43a2.4,2.4,0,0,0-2.44-.15,3.06,3.06,0,0,0-1.27,2.78V19a.6.6,0,0,0,.65.44.61.61,0,0,0,.65-.44V8.06a1.87,1.87,0,0,1,.62-1.65,1.17,1.17,0,0,1,1.13.14l2.32,1.37A5.81,5.81,0,0,1,44,12.57v.93h0c0,.26.28.45.64.45s.64-.19.65-.45h0v-.93A7.15,7.15,0,0,0,42.19,6.79Z"/><path class="cls-4" d="M34.25,21.26c0,.45-.63.82-1.42.82s-1.42-.37-1.42-.82.64-.82,1.42-.82S34.25,20.81,34.25,21.26Z"/><polygon class="cls-4" points="31.56 19.36 31.41 21.26 34.25 21.26 34.1 19.36 31.56 19.36"/><path class="cls-14" d="M34.1,19.36c0,.4-.57.73-1.27.73s-1.27-.33-1.27-.73.57-.73,1.27-.73S34.1,19,34.1,19.36Z"/><path class="cls-16" d="M33.9,19.36c0,.34-.48.62-1.07.62s-1.07-.28-1.07-.62.48-.61,1.07-.61S33.9,19,33.9,19.36Z"/><path class="cls-4" d="M41.87,17.23c0,.46-.64.82-1.43.82S39,17.69,39,17.23s.64-.81,1.42-.81S41.87,16.78,41.87,17.23Z"/><polygon class="cls-4" points="39.18 15.34 39.02 17.23 41.87 17.23 41.71 15.34 39.18 15.34"/><ellipse class="cls-14" cx="40.44" cy="15.34" rx="1.27" ry="0.73"/><path class="cls-17" d="M41.51,15.34c0,.33-.48.61-1.07.61s-1.06-.28-1.06-.61.47-.62,1.06-.62S41.51,15,41.51,15.34Z"/><path class="cls-12" d="M30,90.48l1,7.35a1.17,1.17,0,0,0,.66,1l8.49,4.9a2.34,2.34,0,0,0,1.19.3,2,2,0,0,0,1-.23l13.36-7.71a1,1,0,0,0,.54-.86l.51-8Z"/><path class="cls-19" d="M57.46,86.7h-.64s0,0-.09-.06l-9.34-5.4a2.72,2.72,0,0,0-1.32-.33,2.23,2.23,0,0,0-1.07.25l-14.71,8.5-.08,0h-.52v.89a1.3,1.3,0,0,0,.73,1.09l9.35,5.4a2.68,2.68,0,0,0,1.31.33,2.12,2.12,0,0,0,1.07-.26l14.71-8.49a1.11,1.11,0,0,0,.6-1Z"/><path class="cls-12" d="M41.08,96.44a2.68,2.68,0,0,1-1.31-.33l-9.35-5.4a1.29,1.29,0,0,1-.73-1.08,1.1,1.1,0,0,1,.6-.95L45,80.19a2.12,2.12,0,0,1,1.07-.26,2.72,2.72,0,0,1,1.32.33l9.34,5.4a1.29,1.29,0,0,1,.73,1.08,1.1,1.1,0,0,1-.6,1L42.15,96.18A2.12,2.12,0,0,1,41.08,96.44Z"/><path class="cls-19" d="M30.57,89.62l14.71-8.49a2,2,0,0,1,1.82.08l9.35,5.39a1,1,0,0,1,.38.37c.15-.26,0-.59-.38-.82l-9.35-5.4a2,2,0,0,0-1.82-.07L30.57,89.17a.5.5,0,0,0-.25.69A.82.82,0,0,1,30.57,89.62Z"/><path class="cls-11" d="M30.7,90.22l9.35,5.4a2,2,0,0,0,1.82.07L56.58,87.2a.81.81,0,0,0,.25-.23,1,1,0,0,0-.38-.37L47.1,81.21a2,2,0,0,0-1.82-.08L30.57,89.62a.82.82,0,0,0-.25.24A1,1,0,0,0,30.7,90.22Z"/><path class="cls-19" d="M51.61,88.05l.22.12a2.19,2.19,0,0,0,2,.08c.51-.29.45-.81-.14-1.15L53.46,87Z"/><path class="cls-4" d="M54.68,85.75h-.15a1.5,1.5,0,0,0-.4-.33l-6.37-3.68a2.51,2.51,0,0,0-2.26-.09l-2.93,1.69a.94.94,0,0,0-.19.14h-.2v.43h0a.89.89,0,0,0,.55.73l6.36,3.68a2.48,2.48,0,0,0,2.26.09l2.93-1.69a.68.68,0,0,0,.39-.54h0Z"/><path class="cls-20" d="M54.29,86.36l-2.93,1.69A2.54,2.54,0,0,1,49.1,88l-6.36-3.68c-.67-.39-.75-1-.17-1.3l2.93-1.7a2.51,2.51,0,0,1,2.26.1l6.37,3.67C54.8,85.44,54.87,86,54.29,86.36Z"/><path class="cls-7" d="M43.12,83.34l2.49-1.44a2.14,2.14,0,0,1,1.92.08l6,3.45a.93.93,0,0,1,.44.47c.09-.26-.05-.56-.44-.78l-6-3.45a2.14,2.14,0,0,0-1.92-.08L43.12,83a.52.52,0,0,0-.3.64A.67.67,0,0,1,43.12,83.34Z"/><path class="cls-4" d="M43.26,84.14l6,3.45a2.17,2.17,0,0,0,1.92.08l2.49-1.44a.67.67,0,0,0,.3-.33.93.93,0,0,0-.44-.47l-6-3.45a2.14,2.14,0,0,0-1.92-.08l-2.49,1.44a.67.67,0,0,0-.3.33A1,1,0,0,0,43.26,84.14Z"/><path class="cls-19" d="M42.34,88.6h-.43v.11l-.65-.38a.37.37,0,0,0-.34,0l-.18.1v-.09h-.43v.39h0a.11.11,0,0,0,.06.1l1,.59a.37.37,0,0,0,.34,0l.53-.3c.06,0,.09-.09.08-.13h0Z"/><path class="cls-12" d="M41.39,89l-1-.59c-.09,0-.08-.14,0-.19l.53-.31a.37.37,0,0,1,.34,0l1,.59c.09,0,.08.14,0,.19l-.53.31A.37.37,0,0,1,41.39,89Z"/><path class="cls-19" d="M45.78,86.63h-.44v.1l-.65-.37a.41.41,0,0,0-.34,0l-.17.11v-.09h-.44v.39h0a.08.08,0,0,0,0,.09l1,.59a.35.35,0,0,0,.33,0l.53-.3c.07,0,.09-.09.08-.13h0Z"/><path class="cls-12" d="M44.83,87.06l-1-.59c-.08,0-.07-.14,0-.2l.52-.3a.37.37,0,0,1,.34,0l1,.59c.08,0,.07.13,0,.19l-.53.31A.38.38,0,0,1,44.83,87.06Z"/><path class="cls-21" d="M45.1,84.07l-.68-.38h0a.36.36,0,0,0-.38,0l-2.69,1.55a1.35,1.35,0,0,0-.57,1.08v2.11l.7.4V87.2a9.37,9.37,0,0,1,.57-1.32l2.18-1.18v1.79l.38-.21.7.38V84.77Z"/><polygon class="cls-22" points="44.93 86.88 44.23 86.49 44.23 84.7 44.93 84.5 45.09 85.35 44.93 86.88"/><path class="cls-23" d="M41.48,86.74v2.12l.37-.21s0-1.47,0-1.83a.88.88,0,0,1,.17-.57c.2-.26.42-.22.82-.36a2.18,2.18,0,0,0,.54-.23,3.67,3.67,0,0,0,.55-.4c.4-.32.62-.62.81-.58s.17.09.17.37,0,1.83,0,1.83l.38-.22V84.53c0-.42-.26-.61-.57-.43l-2.69,1.56A1.33,1.33,0,0,0,41.48,86.74Z"/><path class="cls-19" d="M41.25,94.09l.21.12a2.22,2.22,0,0,0,2,.08c.51-.29.45-.81-.14-1.15L43.1,93Z"/><path class="cls-4" d="M44.32,91.79h-.15a1.5,1.5,0,0,0-.4-.33L37.4,87.78a2.51,2.51,0,0,0-2.26-.09l-2.93,1.69a.94.94,0,0,0-.19.14h-.2V90h0a.89.89,0,0,0,.54.73l6.37,3.68a2.48,2.48,0,0,0,2.26.09l2.93-1.69a.67.67,0,0,0,.38-.54h0Z"/><path class="cls-20" d="M43.93,92.4,41,94.09A2.54,2.54,0,0,1,38.74,94l-6.37-3.68c-.66-.39-.74-1-.16-1.3l2.93-1.7a2.52,2.52,0,0,1,2.26.1l6.37,3.67C44.44,91.48,44.51,92.06,43.93,92.4Z"/><path class="cls-7" d="M32.76,89.38l2.49-1.44a2.14,2.14,0,0,1,1.92.08l6,3.45a.93.93,0,0,1,.44.47c.09-.26-.05-.56-.44-.78l-6-3.45a2.14,2.14,0,0,0-1.92-.08l-2.49,1.44a.52.52,0,0,0-.3.64A.67.67,0,0,1,32.76,89.38Z"/><path class="cls-4" d="M32.9,90.18l6,3.45a2.17,2.17,0,0,0,1.92.08l2.49-1.44a.67.67,0,0,0,.3-.33.93.93,0,0,0-.44-.47l-6-3.45a2.14,2.14,0,0,0-1.92-.08l-2.49,1.44a.67.67,0,0,0-.3.33A.93.93,0,0,0,32.9,90.18Z"/><path class="cls-7" d="M54,91.16a.72.72,0,0,1,.08.35v3.11a1.48,1.48,0,0,1-.63,1.19L45,100.7a.4.4,0,0,1-.22.07.37.37,0,0,0,.55.13L53.76,96a1.5,1.5,0,0,0,.62-1.19v-3.1C54.38,91.35,54.21,91.14,54,91.16Z"/><path class="cls-4" d="M53.42,95.81a1.48,1.48,0,0,0,.63-1.19V91.51a.72.72,0,0,0-.08-.35.58.58,0,0,0-.21.07l-8.48,4.9a1.5,1.5,0,0,0-.62,1.19v3.1a.83.83,0,0,0,.07.35.4.4,0,0,0,.22-.07Z"/></g></g></svg>