<svg xmlns="http://www.w3.org/2000/svg" viewBox="0 0 74.83 91.48"><defs><style>.cls-1{fill:#d7e3ff;}.cls-2{fill:#f7f7f7;}.cls-3{fill:#fff;}.cls-4{fill:#eaeaea;}.cls-5{fill:#d6d6d6;}.cls-6{fill:#c1c1c1;}.cls-7{fill:#515570;}.cls-8{fill:#373951;}.cls-9{fill:#2c2f44;}.cls-10{fill:#ffc9b6;}.cls-11{fill:#7ca5ed;}.cls-12{fill:#9dbbfc;}.cls-13{fill:#23263a;}.cls-14{fill:#474864;}.cls-15{fill:#adadad;}.cls-16{fill:#f77b28;}.cls-17{fill:#e56813;}.cls-18{fill:#ff8d40;}</style></defs><title>Asset 11</title><g id="Layer_2" data-name="Layer 2"><g id="Layer_1-2" data-name="Layer 1"><path class="cls-1" d="M69.23,67.15c-.88-.84-1.92-1.49-2.76-2.38A21.73,21.73,0,0,1,63.85,61c-2.32-4-5-7-10-6.67-5.5.35-10.38,4.19-15.21,6.48a97.15,97.15,0,0,1-19.47,6.82c-3.35.79-6.87,1.06-10.18,2-2,.56-4,1.68-4.81,3.71S2.91,77.94,4,79.65s3,3.28,7.12,4.08c3.48.67,4,4.6,6.05,6.21,1.9,1.48,4.82,1.46,7.11,1.53a11.81,11.81,0,0,0,7-1.56c2.59-1.71,4.17-4.31,7.09-5.64s5.95-1.8,8.93-2.56q5.37-1.38,10.66-3c2.81-.88,5.71-1.7,8.43-2.84,2-.83,4-2.14,4.48-4.38A4.48,4.48,0,0,0,69.23,67.15Z"/><polygon class="cls-2" points="51.47 14.6 18.92 33.38 0 22.46 32.54 3.67 51.47 14.6"/><polygon class="cls-3" points="51.47 60.44 18.92 79.23 0 68.3 32.54 49.51 51.47 60.44"/><polygon class="cls-4" points="51.47 14.6 51.47 60.44 18.92 79.23 18.92 33.38 51.47 14.6"/><polygon class="cls-5" points="0 22.46 18.92 33.38 18.92 79.23 0 68.3 0 22.46"/><polygon class="cls-6" points="51.47 21.65 51.47 22.59 18.92 41.38 18.92 40.44 51.47 21.65"/><polygon class="cls-6" points="42.83 22.87 50.39 18.5 50.39 20.97 42.83 25.33 42.83 22.87"/><polygon class="cls-7" points="42.83 22.38 50.39 18.02 50.39 18.74 42.83 23.11 42.83 22.38"/><polygon class="cls-6" points="0 29.51 0 30.45 18.92 41.38 18.92 40.44 0 29.51"/><polygon class="cls-6" points="0 27.23 0 27.76 14.82 36.32 14.82 35.79 0 27.23"/><path class="cls-8" d="M26,53c0,7.74,4.71,11.3,10.51,7.95S47,48.56,47,40.82s-4.71-11.3-10.52-8S26,45.22,26,53Z"/><polygon class="cls-8" points="44.19 32.81 43.36 32.3 29.35 61.29 30.4 61.93 44.19 32.81"/><path class="cls-7" d="M26.83,53.46c0,7.74,4.7,11.3,10.51,7.95S47.85,49.06,47.85,41.32s-4.7-11.3-10.51-8S26.83,45.72,26.83,53.46Z"/><path class="cls-9" d="M36.77,56.93c4.16-2.4,7.53-8.84,7.53-14.39a7.6,7.6,0,0,0-1.79-5.46c1.48,1,2.42,3.05,2.42,6,0,5.55-3.37,12-7.53,14.4-2.31,1.33-4.36,1.13-5.74-.24C33,58.09,34.79,58.07,36.77,56.93Z"/><path class="cls-8" d="M29.86,51.74c0-5.55,3.37-12,7.54-14.39,2-1.14,3.76-1.16,5.11-.27a7.6,7.6,0,0,1,1.79,5.46c0,5.55-3.37,12-7.53,14.39-2,1.14-3.77,1.16-5.11.27A7.54,7.54,0,0,1,29.86,51.74Z"/><path class="cls-6" d="M21.5,75.39a1,1,0,0,0,.46-.13l5.19-3a2.36,2.36,0,0,0,1-1.89V67.5a1,1,0,0,0-.41-.91.78.78,0,0,0-.8,0l-5.2,3a2.33,2.33,0,0,0-1,1.89V74.4a1,1,0,0,0,.42.9A.67.67,0,0,0,21.5,75.39Zm5.9-8.47a.19.19,0,0,1,.12,0,.6.6,0,0,1,.21.54v2.87a1.91,1.91,0,0,1-.79,1.52l-5.2,3a.38.38,0,0,1-.37,0,.62.62,0,0,1-.2-.54V71.53A2,2,0,0,1,22,70l5.19-3A.53.53,0,0,1,27.4,66.92Z"/><polygon class="cls-8" points="20.39 36.98 26.92 33.2 26.92 30.34 20.39 34.11 20.39 36.98"/><polygon class="cls-7" points="20.96 34.23 24.08 32.42 24.08 34.43 20.96 36.23 20.96 34.23"/><polygon class="cls-3" points="24.43 32.66 26.34 31.56 26.34 31.12 24.43 32.22 24.43 32.66"/><polygon class="cls-3" points="24.43 33.43 26.34 32.33 26.34 31.89 24.43 32.99 24.43 33.43"/><polygon class="cls-3" points="24.43 34.2 26.34 33.1 26.34 32.66 24.43 33.76 24.43 34.2"/><path class="cls-7" d="M25.75,35.1c0,.3.18.43.41.3a1,1,0,0,0,.4-.77c0-.3-.18-.43-.4-.31A1,1,0,0,0,25.75,35.1Z"/><path class="cls-7" d="M24.28,35.94c0,.3.18.43.41.3a1,1,0,0,0,.4-.77c0-.3-.18-.43-.4-.3A1,1,0,0,0,24.28,35.94Z"/><path class="cls-7" d="M22.79,36.78c0,.3.18.43.4.3a1,1,0,0,0,.41-.77c0-.3-.18-.43-.41-.3A1,1,0,0,0,22.79,36.78Z"/><path class="cls-7" d="M21.32,37.62c0,.3.18.43.4.31a1,1,0,0,0,.41-.78c0-.29-.18-.43-.41-.3A1,1,0,0,0,21.32,37.62Z"/><path class="cls-8" d="M33.12,28.69c0,1.32.8,1.93,1.79,1.36a4.28,4.28,0,0,0,1.8-3.43c0-1.33-.8-1.94-1.8-1.36A4.3,4.3,0,0,0,33.12,28.69Z"/><polygon class="cls-8" points="36.02 25.13 36.77 25.54 34.55 30.58 33.76 30.16 36.02 25.13"/><path class="cls-7" d="M33.8,29.07c0,1.32.8,1.93,1.79,1.36A4.3,4.3,0,0,0,37.39,27c0-1.32-.8-1.93-1.8-1.36A4.32,4.32,0,0,0,33.8,29.07Z"/><path class="cls-3" d="M34.28,28.87c0,1.06.65,1.55,1.45,1.09a3.46,3.46,0,0,0,1.45-2.76c0-1.07-.65-1.56-1.45-1.1A3.47,3.47,0,0,0,34.28,28.87Z"/><polygon class="cls-7" points="28.63 29.09 31.28 27.55 31.28 28.4 28.63 29.94 28.63 29.09"/><polygon class="cls-7" points="28.63 30.82 31.28 29.29 31.28 30.14 28.63 31.67 28.63 30.82"/><polygon class="cls-7" points="28.63 32.54 31.28 31 31.28 31.86 28.63 33.39 28.63 32.54"/><polygon class="cls-7" points="38.41 23.45 41.06 21.92 41.06 22.77 38.41 24.3 38.41 23.45"/><polygon class="cls-7" points="38.41 25.19 41.06 23.65 41.06 24.5 38.41 26.04 38.41 25.19"/><polygon class="cls-7" points="38.41 26.9 41.06 25.37 41.06 26.22 38.41 27.75 38.41 26.9"/><path class="cls-6" d="M13.72,40.44a1.84,1.84,0,0,0-.24,1V71.16a3.87,3.87,0,0,0,1.61,3.07h0a1.13,1.13,0,0,0,.83.16.94.94,0,0,1-1.37.24A3.86,3.86,0,0,1,13,71.56V41.82C13,41,13.26,40.55,13.72,40.44Z"/><path class="cls-4" d="M15.09,74.23h0a3.87,3.87,0,0,1-1.61-3.07V41.42a1.84,1.84,0,0,1,.24-1,1.18,1.18,0,0,1,.83.16,3.84,3.84,0,0,1,1.61,3.07V73.42a1.83,1.83,0,0,1-.24,1A1.13,1.13,0,0,1,15.09,74.23Z"/><path class="cls-6" d="M8.37,37.5a1.78,1.78,0,0,0-.25,1V68.21a3.87,3.87,0,0,0,1.61,3.07h0a1.1,1.1,0,0,0,.83.16.93.93,0,0,1-1.37.24,3.86,3.86,0,0,1-1.6-3.07V38.87C7.59,38.1,7.9,37.6,8.37,37.5Z"/><path class="cls-4" d="M9.73,71.28h0a3.87,3.87,0,0,1-1.61-3.07V38.47a1.78,1.78,0,0,1,.25-1,1.07,1.07,0,0,1,.82.16,3.84,3.84,0,0,1,1.61,3.06V70.47a1.8,1.8,0,0,1-.24,1A1.1,1.1,0,0,1,9.73,71.28Z"/><path class="cls-6" d="M3.07,34.53a1.8,1.8,0,0,0-.24,1V65.25a3.84,3.84,0,0,0,1.61,3.06h0a1.09,1.09,0,0,0,.83.16.94.94,0,0,1-1.37.25,3.88,3.88,0,0,1-1.6-3.07V35.9C2.3,35.13,2.61,34.64,3.07,34.53Z"/><path class="cls-4" d="M4.44,68.31h0a3.84,3.84,0,0,1-1.61-3.06V35.5a1.8,1.8,0,0,1,.24-1,1.09,1.09,0,0,1,.83.16,3.84,3.84,0,0,1,1.61,3.07V67.5a1.78,1.78,0,0,1-.24,1A1.09,1.09,0,0,1,4.44,68.31Z"/><polygon class="cls-6" points="14.57 36.17 15.02 36.42 15.02 31.13 14.57 30.87 14.57 36.17"/><path class="cls-4" d="M19.15,30.22a8.85,8.85,0,0,0,4.37-1l20.74-12a3.1,3.1,0,0,0,1.79-2.62c0-1.23-.91-2.46-2.49-3.37L37.82,7.94c-3-1.71-7.46-1.9-10-.41L7,19.5a3.09,3.09,0,0,0-1.78,2.62c0,1.23.91,2.46,2.49,3.37l5.74,3.32A11.67,11.67,0,0,0,19.15,30.22Zm13-23.35a11.35,11.35,0,0,1,5.49,1.37l5.74,3.32c1.47.85,2.31,2,2.31,3.06a2.77,2.77,0,0,1-1.61,2.32l-20.74,12c-2.47,1.42-6.81,1.24-9.67-.41L7.93,25.19c-1.47-.85-2.32-2-2.32-3.07a2.75,2.75,0,0,1,1.61-2.31L28,7.83A8.62,8.62,0,0,1,32.15,6.87Z"/><path class="cls-10" d="M52.21,36c-2.55-.07-7.94-.26-8.58-.48,0,0-1.25-1.58-2.25-2.8s-2.17-1-3.24-1-1.31.81-.56,1.57a7.43,7.43,0,0,0,1.8,1.16c.47.33,1.23,1.09,1.07,1.08s-1.61.08-1.74.45.54.56,1.08.57,1.12,1,2.18,1.22a6.91,6.91,0,0,0,2,.15,16.09,16.09,0,0,0,3.25,1.55,16.4,16.4,0,0,0,5.24.95S54.76,36.11,52.21,36Z"/><path class="cls-4" d="M55.35,30.22s3-5,6.86-1.64c3,2.62,2.95,6.12,1.37,8.25S55.35,30.22,55.35,30.22Z"/><path class="cls-8" d="M73,79.39c-.74-3.14-4.14-7.7-5.52-8.92-2,1-4.35,2.46-5.19,4.14,1.27,1.45,1.32,1.78,2.19,2.84A41.34,41.34,0,0,1,67.1,81a2.53,2.53,0,0,0-3,3.37,6.34,6.34,0,0,0,2.4,2c2.88.26,3.76-1.24,4.56-1.9a3.52,3.52,0,0,0,3.72-1.92C75,82,73.58,79.61,73,79.39Z"/><path class="cls-8" d="M47.11,79.1a41.59,41.59,0,0,0,0,5c-1.38-.48-2.7-1.24-3.89-.51a2.47,2.47,0,0,0-1,3,6.68,6.68,0,0,0,2.3,1.88,16.85,16.85,0,0,0,4.18,1.24c1,.6,2.39,1.07,3.42.53s1.59-1,1.28-2.2c-.52-2-.19-2.73-.19-6.08C53.16,79.15,47.3,77.44,47.11,79.1Z"/><path class="cls-11" d="M69,49.66s.31,0,.8,3.11a8,8,0,0,1-1.78,6.35,18.68,18.68,0,0,1-1.94,5,10,10,0,0,1-2.53,2.76s.81-.15,1.1.92a6.26,6.26,0,0,1,3.37,2.42c2.09,2.7,4.41,7,4.93,9.16.17.67-1.12,1.36-2.44,1.83A4,4,0,0,1,67.1,81c-1.28-.91-7.61-9.07-9-9.91-1.81-1.12-2.36-1.72-1.79-4.35C56.64,65.27,59,57,59,57Z"/><path class="cls-12" d="M54.13,52.34s-2.79,2.42-5,4.54a23.27,23.27,0,0,0-4.29,6.39c-.48,1-1.62,2.19-.93,4.28a61.91,61.91,0,0,1,1.93,9.11c.5,3.1,1.21,7.42,1.21,7.42s1.16,4.07,6.34,2.52c1.09-.78.5-8.34.35-10-.29-3.27-.64-6.45-1.92-7.28.75-1.08-.59-1.43-.59-1.43s2-1.3,4-2.41,4.53-1.83,5.81-3.29c1.43.36,4.74-1.15,5.52-4.42,1-4.09-.25-6.22-.77-6.07S54.13,52.34,54.13,52.34Z"/><path class="cls-10" d="M50.6,31.83l2.79,2.29c1.5-.54,2.65-2.32,3.29-4-.55-.44-2.5-1.55-2.64-2.14.58-1.62-.29-3-1.8-4.45a4.9,4.9,0,0,0-6.13-.16,2.69,2.69,0,0,0-1.35,2.56c.19,1.73,1.74,4.87,3.2,5.62A2.84,2.84,0,0,0,50.6,31.83Z"/><path class="cls-8" d="M54.61,23.49a3.77,3.77,0,0,0-2.27-3.14c-1.59-.73-4.43-.84-5.71.6,0-.05,0-.1-.07-.14a1,1,0,0,0-1.51-.08,2.64,2.64,0,0,0-.82,1.14,1.3,1.3,0,0,0-.85,0c-.92.39-1.1,2.42,1,3.25-.38,1.5,1.59,2.53,3.44,2.1a2.18,2.18,0,0,0,1.1,2,5.37,5.37,0,0,0,4.88.68c1.48-.74,2.08-2.77,2-4.49A2.45,2.45,0,0,0,54.61,23.49Z"/><path class="cls-10" d="M47.2,27.65a.82.82,0,0,1,1.35-.41c1,.68-.2,2.7-.2,2.7Z"/><path class="cls-2" d="M58.51,28.51c-1.71.74-1.59,1-5.14,3.79a33.88,33.88,0,0,0-3.31,2.63,4,4,0,0,0-1.23,4,28.33,28.33,0,0,0,2.09,6.33c1.76,4.2,3.55,5.18,3.55,5.18s-.38,1.05-.73,1.76.62.84,1.61,1.43c2.07,1.22,7.94,3.48,13.2-3.14a4,4,0,0,0,.86-3.57c-.71-4.42-2.61-8-3.51-10.79C64.54,31.89,60,27.86,58.51,28.51Z"/><path class="cls-11" d="M50,24.16s-2.28,2-5.9-.31-.43-4.9,2.08-4.58A7.41,7.41,0,0,1,50,20.77Z"/><path class="cls-12" d="M45.86,21.53c.29-3.2,4.88-5,8.4-2.54,1.92,1.36,3,4.24,1.1,7.31C54.94,27.54,46.63,27.13,45.86,21.53Z"/><path class="cls-11" d="M51.91,18.51c-.12.25.16.64.62.86s.94.2,1.06-.05-.16-.64-.62-.86S52,18.26,51.91,18.51Z"/><path class="cls-10" d="M34.18,35.12c.57-.3,1.55,0,2.26,1.39.43.82-.11,1.26,0,2.47,1.57,1.4,4.45,2.48,5.74,3.62.87,0,4-2.68,6.58-2.66,0,0,3.12,4.69,1.75,5.08s-7.05,2.54-8.08,2.42-1.49.35-2.5-.65c-.69-.69-4.37-3.41-5.63-5.51h0c-1.3-1.65-2.57-3.43-2.33-4.4S33.1,35.69,34.18,35.12Z"/><path class="cls-4" d="M50.06,34.93s-1.69,0-3,2.25a9.06,9.06,0,0,0-1.4,2.89s-1.41,1-2.46,1.64c0,2.41,1.22,4.63,2.29,6.64,3.51-.66,7-1.62,7.49-2.82C53.73,43.72,52.26,35.74,50.06,34.93Z"/><path class="cls-4" d="M51.46,33.73s1.72.14,4.35-1.85,1.52-2.75,1.52-2.75A7.69,7.69,0,0,0,54.4,31C52.88,32.45,51.46,33.73,51.46,33.73Z"/><path class="cls-11" d="M53,53.36a16.13,16.13,0,0,0,5.27,2.15,10.93,10.93,0,0,0,7.84-1.08,7.05,7.05,0,0,0,2-1.61l-.37-1.37S63.05,54.07,61,54.17s-7.8-1.3-7.8-1.3Z"/><path class="cls-12" d="M53.74,51a6.62,6.62,0,0,0,4.51-1.5,6.94,6.94,0,0,0,2-8.07c1.64-1.25,3.85-3.15,5.42-4.65,1.06,1.71,1.57,3.15,2.83,5.1s1.75,6.18,1,7.8S67.29,52.8,63.65,54a11.92,11.92,0,0,1-7.39.06c-2.69-.66-3.33-1-3.1-1.66S53.74,51,53.74,51Z"/><path class="cls-12" d="M50.71,34.32a8.41,8.41,0,0,1,5.1,2,24.37,24.37,0,0,1,4.78,6l.92-1S58.65,36.69,56.12,35a7.18,7.18,0,0,0-4.3-1.57Z"/><path class="cls-12" d="M57.33,29.13s1.75-.24,4.38,3.17a24.87,24.87,0,0,1,3.51,5.83l.87-.76a37.78,37.78,0,0,0-3.89-6.23,7.18,7.18,0,0,0-4-2.51Z"/><path class="cls-11" d="M50,68.28a3.58,3.58,0,0,1-1.82.28,2.38,2.38,0,0,1-1.65-1S49.07,67.53,50,68.28Z"/><path class="cls-11" d="M50.67,69.32a3.56,3.56,0,0,1-1.35,1.25,2.39,2.39,0,0,1-1.93.1S49.47,69.23,50.67,69.32Z"/><path class="cls-8" d="M11.76,10.55l1,7.36a1.17,1.17,0,0,0,.66,1l8.49,4.9a2.38,2.38,0,0,0,1.2.3,2,2,0,0,0,1-.23l13.36-7.71a1,1,0,0,0,.54-.86l.51-8Z"/><path class="cls-13" d="M39.2,6.77h-.63l-.09-.06-9.35-5.4A2.71,2.71,0,0,0,27.82,1a2.16,2.16,0,0,0-1.08.26L12,9.73l-.07,0h-.52v.9a1.28,1.28,0,0,0,.73,1.08l9.34,5.4a2.71,2.71,0,0,0,1.31.33,2.13,2.13,0,0,0,1.08-.26L38.61,8.74a1.09,1.09,0,0,0,.59-1Z"/><path class="cls-8" d="M22.82,16.51a2.71,2.71,0,0,1-1.31-.33l-9.34-5.4a1.27,1.27,0,0,1-.73-1.08A1.09,1.09,0,0,1,12,8.75L26.74.26A2.16,2.16,0,0,1,27.82,0a2.71,2.71,0,0,1,1.31.33l9.35,5.4a1.27,1.27,0,0,1,.72,1.08,1.09,1.09,0,0,1-.59,1L23.9,16.25A2.13,2.13,0,0,1,22.82,16.51Z"/><path class="cls-13" d="M12.32,9.69,27,1.2a2,2,0,0,1,1.82.08l9.34,5.39a1,1,0,0,1,.38.37c.16-.26,0-.59-.38-.82L28.85.82A2,2,0,0,0,27,.75L12.32,9.24a.49.49,0,0,0-.25.69A.64.64,0,0,1,12.32,9.69Z"/><path class="cls-14" d="M12.45,10.29l9.34,5.4a2,2,0,0,0,1.82.07L38.32,7.27A.63.63,0,0,0,38.57,7a1,1,0,0,0-.38-.37L28.85,1.28A2,2,0,0,0,27,1.2L12.32,9.69a.64.64,0,0,0-.25.24A1,1,0,0,0,12.45,10.29Z"/><path class="cls-13" d="M33.36,8.12l.21.12a2.25,2.25,0,0,0,2,.09c.51-.3.44-.82-.15-1.16l-.21-.12Z"/><path class="cls-6" d="M36.43,5.82h-.16a1.24,1.24,0,0,0-.4-.33L29.51,1.81a2.51,2.51,0,0,0-2.26-.09L24.32,3.41a.58.58,0,0,0-.19.15h-.2V4h0a1,1,0,0,0,.55.74l6.37,3.67a2.48,2.48,0,0,0,2.26.09L36,6.79a.67.67,0,0,0,.38-.54h0Z"/><path class="cls-5" d="M36,6.43,33.11,8.12A2.54,2.54,0,0,1,30.85,8L24.48,4.35c-.67-.39-.74-1-.16-1.3l2.93-1.7a2.52,2.52,0,0,1,2.26.1l6.36,3.67C36.54,5.51,36.62,6.09,36,6.43Z"/><path class="cls-15" d="M24.87,3.41,27.36,2a2.17,2.17,0,0,1,1.92.08l6,3.45a1,1,0,0,1,.43.47c.1-.26,0-.56-.43-.78l-6-3.45a2.14,2.14,0,0,0-1.92-.08L24.87,3.1a.52.52,0,0,0-.3.64A.62.62,0,0,1,24.87,3.41Z"/><path class="cls-6" d="M25,4.21l6,3.45a2.14,2.14,0,0,0,1.92.08L35.39,6.3a.62.62,0,0,0,.3-.33,1,1,0,0,0-.43-.47l-6-3.45A2.17,2.17,0,0,0,27.36,2L24.87,3.41a.62.62,0,0,0-.3.33A.93.93,0,0,0,25,4.21Z"/><path class="cls-13" d="M24.09,8.67h-.44v.11L23,8.4a.35.35,0,0,0-.33,0l-.18.1V8.43h-.43v.39h0s0,.07.05.1l1,.59a.38.38,0,0,0,.34,0l.52-.3c.07,0,.09-.08.08-.13h0Z"/><path class="cls-8" d="M23.14,9.1l-1-.59c-.08,0-.07-.13,0-.19L22.67,8A.38.38,0,0,1,23,8l1,.59c.08.05.07.14,0,.2l-.52.3A.37.37,0,0,1,23.14,9.1Z"/><path class="cls-13" d="M27.52,6.7h-.43v.1l-.65-.37a.41.41,0,0,0-.34,0l-.18.11V6.46h-.43v.39h0s0,.07.06.09l1,.6a.37.37,0,0,0,.34,0l.53-.3a.13.13,0,0,0,.07-.13h0Z"/><path class="cls-8" d="M26.57,7.13l-1-.59c-.09,0-.08-.14,0-.19L26.1,6a.37.37,0,0,1,.34,0l1,.59c.09,0,.08.14,0,.19l-.53.31A.37.37,0,0,1,26.57,7.13Z"/><path class="cls-16" d="M26.85,4.14l-.69-.38h0a.36.36,0,0,0-.38,0L23.09,5.34a1.36,1.36,0,0,0-.56,1.08V8.53l.69.4V7.27A9.82,9.82,0,0,1,23.8,6L26,4.78c0,.46,0,1.78,0,1.78l.37-.21.7.38V4.84Z"/><polygon class="cls-17" points="26.68 6.95 25.98 6.57 25.97 4.78 26.68 4.57 26.83 5.42 26.68 6.95"/><path class="cls-18" d="M23.22,6.81V8.93l.38-.21V6.89a.83.83,0,0,1,.18-.57c.19-.26.41-.22.81-.36a2.55,2.55,0,0,0,.55-.23,3.87,3.87,0,0,0,.54-.4c.4-.32.62-.62.82-.58s.16.09.17.37,0,1.83,0,1.83l.38-.22V4.6c0-.42-.25-.61-.57-.43L23.79,5.73A1.36,1.36,0,0,0,23.22,6.81Z"/><path class="cls-13" d="M23,14.16l.22.12a2.22,2.22,0,0,0,2,.08c.51-.29.44-.81-.15-1.15l-.21-.12Z"/><path class="cls-6" d="M26.07,11.86h-.16a1.24,1.24,0,0,0-.4-.33L19.15,7.85a2.51,2.51,0,0,0-2.26-.09L14,9.45a.75.75,0,0,0-.2.15h-.19V10h0a1,1,0,0,0,.55.74l6.37,3.67a2.46,2.46,0,0,0,2.25.09l2.94-1.69a.67.67,0,0,0,.38-.54h0Z"/><path class="cls-5" d="M25.68,12.47l-2.94,1.69a2.52,2.52,0,0,1-2.25-.09l-6.37-3.68c-.67-.39-.74-1-.16-1.3l2.93-1.7a2.52,2.52,0,0,1,2.26.1l6.36,3.67C26.18,11.55,26.25,12.13,25.68,12.47Z"/><path class="cls-15" d="M14.51,9.45,17,8a2.14,2.14,0,0,1,1.92.08l6,3.45a1,1,0,0,1,.43.47c.1-.26,0-.56-.43-.78l-6-3.45A2.14,2.14,0,0,0,17,7.7L14.51,9.14a.52.52,0,0,0-.3.64A.62.62,0,0,1,14.51,9.45Z"/><path class="cls-6" d="M14.64,10.25l6,3.45a2.14,2.14,0,0,0,1.92.08L25,12.34a.62.62,0,0,0,.3-.33,1,1,0,0,0-.43-.47l-6-3.45A2.14,2.14,0,0,0,17,8L14.51,9.45a.62.62,0,0,0-.3.33A1,1,0,0,0,14.64,10.25Z"/><path class="cls-15" d="M35.71,11.24a.68.68,0,0,1,.08.34v3.11a1.5,1.5,0,0,1-.62,1.19l-8.48,4.9a.42.42,0,0,1-.21.06A.37.37,0,0,0,27,21l8.47-4.9a1.47,1.47,0,0,0,.63-1.19v-3.1C36.13,11.42,36,11.21,35.71,11.24Z"/><path class="cls-6" d="M35.17,15.88a1.5,1.5,0,0,0,.62-1.19V11.58a.68.68,0,0,0-.08-.34.48.48,0,0,0-.21.06L27,16.2a1.48,1.48,0,0,0-.63,1.19V20.5a.68.68,0,0,0,.08.34.42.42,0,0,0,.21-.06Z"/></g></g></svg>